<?xml version="1.0" encoding="utf-8"?>
<!-- Generator: Adobe Illustrator 22.0.1, SVG Export Plug-In . SVG Version: 6.00 Build 0)  -->
<svg version="1.1" id="Layer_1" xmlns="http://www.w3.org/2000/svg" xmlns:xlink="http://www.w3.org/1999/xlink" x="0px" y="0px"
	 viewBox="0 0 202.8 63.1" style="enable-background:new 0 0 202.8 63.1;" xml:space="preserve">
<style type="text/css">
	.st0{opacity:0.7;fill:#BCBEC0;enable-background:new    ;}
	.st1{fill:#BCBEC0;}
	.st2{opacity:0.7;}
	.st3{opacity:0.5;}
</style>
<g>
	<g>
		<path class="st0" d="M35.7,38.2c4.3-3.8,9.4-5.1,15.1-4.6c0.5,0,0.5,0.3,0.5,0.7c0,4.1,0,8.2,0,12.3c0,3.7,0,7.5,0,11.2
			c0,0.8-0.2,0.8-0.9,0.8c-4.9-0.4-9.4,0.6-13.4,3.5c-0.2,0.2-0.4,0.4-0.7,0.5c-0.2,0.1-0.3,0.5-0.7,0.5c0-2,0-3.9,0-5.9
			C35.7,50.8,35.7,44.5,35.7,38.2z"/>
		<path class="st1" d="M35.7,38.2c0,6.3,0,12.7,0,19c0,2,0,3.9,0,5.9c-2.3-2.1-5-3.4-8.1-4.1c-2.2-0.5-4.4-0.7-6.6-0.4
			c-0.6,0.1-0.8-0.1-0.8-0.7c0-7.7,0-15.5,0-23.2c0-0.8,0.1-1.1,1-1.1c5.1-0.3,9.9,0.8,13.9,4.1C35.3,37.8,35.5,38,35.7,38.2z"/>
		<path class="st0" d="M35.8,0c1.7-0.1,3.4,0.1,5.2,0.2c4.3,0.2,8.6,0.4,13,0.7C59,1.2,64.1,1.4,69.1,1.7c0.3,0,0.5,0,0.8,0
			c1.5,0.1,1.5,0.1,1.5,1.6c0,0.8-0.1,1.6,0,2.3c0.1,0.7-0.2,0.8-0.8,0.7c-3-0.2-6-0.4-9-0.6C58,5.7,54.4,5.5,50.9,5.7
			C45.4,6,41,9.6,39.7,14.8c-1.6,6.5,2.6,13,9.2,14.3c0.6,0.1,1.2,0.2,1.8,0.3c0.5,0,0.6,0.2,0.6,0.6c0,1.3,0,1.3-1.2,1.2
			c-4.6-0.3-8.9,0.5-12.8,3c-0.5,0.3-0.9,0.9-1.5,1c0-0.2,0-0.4,0-0.7c0-11.1,0-22.3,0-33.4C35.7,0.7,35.6,0.4,35.8,0z"/>
		<path class="st1" d="M35.8,0c-0.1,0.3-0.1,0.7-0.1,1c0,11.1,0,22.3,0,33.4c0,0.2,0,0.4,0,0.7c-4.4-3.4-9.5-4.4-14.9-3.9
			c-0.4,0-0.5-0.1-0.5-0.5c-0.1-1.3-0.1-1.3,1.3-1.5c5.5-0.7,9.6-4.6,10.5-10c1-6.4-3.8-12.7-10.3-13.4c-3.4-0.4-6.7-0.1-10.1,0
			C8,5.9,4.3,6.2,0.7,6.4C0.2,6.5,0,6.4,0,5.8c0-1.1,0-2.2,0-3.4C0,2,0.1,1.8,0.6,1.8c6.9-0.3,13.8-0.7,20.7-1.1
			C25.9,0.5,30.5,0.2,35,0C35.3,0,35.5,0,35.8,0z"/>
		<path class="st1" d="M20.2,17.5c0-1.7,0-3.3,0-5c0-0.5,0.2-0.6,0.7-0.6c2.6,0.2,4.7,2.5,5,5.2c0.2,2.6-1.6,5.2-4.2,5.8
			c-1.5,0.3-1.5,0.3-1.5-1.2C20.2,20.4,20.2,18.9,20.2,17.5z"/>
		<path class="st0" d="M51.2,17.5c0,1.6-0.1,3.2,0,4.8c0,0.8-0.4,0.8-0.9,0.7c-2.3-0.3-4.3-2.3-4.6-4.6c-0.3-2.6,0.9-5,3.2-6
			c0.5-0.2,1.1-0.4,1.7-0.5c0.5-0.1,0.7,0.1,0.7,0.6C51.2,14.2,51.2,15.9,51.2,17.5z"/>
	</g>
	<g>
		<g>
			<path class="st1" d="M181.9,28.6c0-2.2,0-4.3,0-6.5c0-0.6,0.2-0.9,0.8-0.9c0.7,0,1.4,0,2.2,0c0.3,0,0.6-0.1,0.7,0.2
				c0.2,1,0.7,0.5,1.2,0.3c2-1,4.3-0.8,5.9,0.6c0.5,0.5,0.8,0.2,1.2-0.1c2.3-1.8,5.9-1.6,7.7,0.5c0.8,0.9,1.2,1.9,1.2,3.1
				c0,3.1,0,6.2,0,9.3c0,0.7-0.2,0.9-0.9,0.9c-2.8,0.1-2.8,0.1-2.8-2.6c0-2.2,0-4.3,0-6.5c0-1-0.4-2-1.5-2.3c-1-0.3-2-0.3-2.8,0.7
				c-0.5,0.6-0.5,1.2-0.5,1.9c0,2.6,0,5.1,0,7.7c0,0.9-0.3,1.2-1.2,1.2c-2.7,0-2.7,0-2.7-2.7c0-2.1,0-4.2,0-6.2
				c0-1.8-0.8-2.7-2.4-2.7c-1.6,0-2.4,0.9-2.4,2.6c0,2.6,0,5.2,0,7.8c0,0.8-0.2,1.1-1.1,1.1c-2.8,0-2.8,0-2.8-2.7
				C181.9,31.9,181.9,30.3,181.9,28.6z"/>
			<path class="st1" d="M117.7,22.5c1.3-0.9,2.5-1.4,3.9-1.2c2.8,0.3,4.4,2,4.5,4.7c0.1,3.1,0,6.3,0,9.4c0,0.7-0.3,0.8-0.9,0.8
				c-2.9,0.1-2.9,0.1-2.9-2.9c0-2,0-4.1,0-6.1c0-1.7-0.8-2.6-2.3-2.6c-1.5,0-2.3,0.8-2.3,2.6c0,2.6,0,5.2,0,7.8
				c0,0.8-0.2,1.2-1.1,1.2c-2.7,0-2.7,0-2.7-2.7c0-5.5,0-11,0-16.4c0-0.9,0.3-1.2,1.2-1.2c2.7,0,2.7,0,2.7,2.7
				C117.7,19.8,117.7,21,117.7,22.5z"/>
			<path class="st1" d="M94,35c-1.7,1.4-3.4,1.5-5,1.2c-2.3-0.4-3.7-2.3-3.6-4.6c0.1-2.3,1.7-3.9,4-4.1c1-0.1,2,0,3.1-0.1
				c0.5,0,1.3,0.4,1.4-0.4c0.1-0.9,0-1.8-1-2.2c-1.3-0.5-2.7-0.6-3.9,0.3c-0.6,0.5-1,0.4-1.4-0.1c-0.2-0.2-0.4-0.4-0.6-0.6
				c-1.1-1-1.1-1.3,0.2-2c2.7-1.5,5.5-1.4,8.2-0.1c1.4,0.7,2.1,2,2.2,3.6c0,3.2,0,6.4,0,9.6c0,0.7-0.3,0.9-0.9,0.9
				c-0.5,0-1.1,0-1.6,0C94.4,36.2,93.7,36.3,94,35z M92.1,29.9c-0.7,0-1.4-0.1-2.1,0.2c-0.6,0.2-1,0.7-1,1.4c0,0.6,0.2,1.2,0.8,1.5
				c0.9,0.5,2.5,0.4,3.3-0.3c0.8-0.7,0.9-1.6,0.7-2.5c-0.2-0.7-1-0.2-1.5-0.3C92.3,29.9,92.2,29.9,92.1,29.9z"/>
			<path class="st1" d="M79.1,29.9c-1.2,0-2.4,0.1-3.6,0c-1-0.1-1,0.4-0.8,1.1c0.7,2.1,3.5,2.9,5.5,1.4c0.8-0.6,1.2-0.6,1.8,0.1
				c1.5,1.6,1.5,1.8-0.4,2.9c-2.9,1.6-7.4,1-9.2-1.3c-2-2.6-2-8,0-10.6c1.7-2.2,4-2.7,6.6-2.2c2.6,0.5,4,2.3,4.6,4.9
				c0.2,0.9,0.2,1.9,0.2,2.8c0,0.7-0.3,0.9-0.9,0.9C81.6,29.9,80.3,29.9,79.1,29.9z M77.2,27.4c0.7,0,1.4,0,2,0
				c0.6,0,0.8-0.1,0.7-0.8c-0.3-1.3-1.3-2.3-2.6-2.4c-1.3,0-2.5,1-2.7,2.4c-0.1,0.6,0.1,0.7,0.6,0.7C75.8,27.4,76.5,27.4,77.2,27.4z
				"/>
			<path class="st1" d="M179.2,28.8c-0.1,1-0.1,2-0.3,2.9c-0.6,3.1-3.1,4.7-6.6,4.6c-2.9-0.1-5.1-2.1-5.5-5c-0.2-1.7-0.2-3.5,0-5.2
				c0.5-3,3.1-5.1,6.4-4.8c3.8,0.3,5.7,2.3,6,6.3C179.2,28,179.1,28.4,179.2,28.8C179.2,28.8,179.2,28.8,179.2,28.8z M175.3,28.9
				c0-0.6,0-1.1,0-1.7c0-0.3-0.1-0.5-0.2-0.8c-0.3-1.2-1.1-1.8-2.3-1.8c-1.1,0-2,0.6-2.3,1.8c-0.4,1.6-0.4,3.2,0,4.8
				c0.3,1,0.9,1.7,2.1,1.8c1.2,0.1,2-0.4,2.4-1.5C175.4,30.6,175.3,29.7,175.3,28.9z"/>
			<path class="st1" d="M154,28.7c0-2.6,0.5-5.1,2.9-6.6c2.3-1.4,5.9-1.2,7.9,0.4c0.5,0.4,0.6,0.8,0.1,1.2c-0.3,0.3-0.6,0.6-0.9,0.9
				c-0.6,0.8-1.1,1-2.1,0.3c-1.3-1-3.2-0.3-3.8,1.2c-0.6,1.6-0.7,3.3-0.1,5c0.7,1.8,2.6,2.4,4.1,1.3c0.8-0.6,1.2-0.4,1.6,0.2
				c0.1,0.1,0.3,0.3,0.4,0.4c1.5,1.5,1.5,1.6-0.4,2.6c-4.4,2.4-9.4-0.5-9.7-5.6C154,29.6,154,29.2,154,28.7z"/>
			<path class="st1" d="M100.3,28.8c0-0.5,0-0.9,0-1.4c0.3-2.4,1.1-4.5,3.5-5.5c2.4-1,4.8-0.9,7.1,0.6c0.7,0.5,0.9,0.9,0.1,1.5
				c-0.2,0.2-0.4,0.4-0.6,0.6c-0.7,0.7-1.1,1.2-2.3,0.4c-1.5-1.1-3.6-0.1-4,1.9c-0.3,1.3-0.3,2.6,0,3.9c0.5,2,2.8,2.9,4.4,1.6
				c0.6-0.5,0.9-0.4,1.4,0.1c0.3,0.4,0.7,0.7,1.1,1c0.8,0.6,0.8,1-0.1,1.6c-2.3,1.6-4.8,1.6-7.2,0.5c-2.3-1-3.1-3.1-3.4-5.5
				C100.2,29.7,100.3,29.2,100.3,28.8z"/>
			<path class="st1" d="M62.6,29c0-1.1,0-2.3,0-3.4c0-0.6-0.1-1-0.8-0.9c-0.7,0.1-0.9-0.2-0.8-0.9c0-0.4,0-0.8,0-1.2
				c0-0.6,0.2-0.9,0.8-0.8c0.8,0.1,0.8-0.4,0.8-1c0-0.9-0.2-1.9,0-2.7c0.4-1.4,1.6-0.5,2.4-0.6c0.4-0.1,1.2-0.4,1.2,0.6
				c0,0.9,0,1.8,0,2.7c0,0.7,0.2,1,0.9,1c0.5,0,1.3-0.3,1.6,0.2c0.3,0.7,0.2,1.5,0.1,2.2c-0.1,0.6-0.8,0.4-1.1,0.4
				c-1.1-0.1-1.5,0.2-1.5,1.4c0.1,1.8,0,3.5,0,5.3c0,1.3,0.3,1.6,1.5,1.5c1,0,1.1,0.4,1.1,1.2c0,2.3-0.1,2.3-2.3,2.1
				c-2.8-0.3-4-1.7-4-4.5C62.6,30.8,62.6,29.9,62.6,29C62.6,29,62.6,29,62.6,29z"/>
			<path class="st1" d="M129.3,24.5c0-2.5,0-5.1,0-7.6c0-0.7,0.1-1,0.9-1c2.9,0,2.9-0.1,2.9,2.8c0,4.1,0,8.3,0,12.4
				c0,1.6,0.1,1.8,1.7,1.8c0.8,0,1,0.3,1,1.1c0,2.4,0,2.5-2.5,2.2c-2.8-0.3-4.1-1.8-4.1-4.6C129.3,29.2,129.3,26.9,129.3,24.5z"/>
			<path class="st1" d="M141.8,22.5c2.1-1.5,4.1-1.8,6.3-0.6c0.7,0.4,0.9,0.8,0.2,1.4c-0.4,0.3-0.7,0.7-1,1c-0.6,0.7-1,1.1-2.1,0.5
				c-1.6-0.9-3.3,0.4-3.3,2.5c-0.1,2.5-0.1,5.1,0,7.6c0,1.1-0.3,1.4-1.4,1.4c-2.3-0.1-2.3,0-2.3-2.3c0-3.9,0-7.7,0-11.6
				c0-0.8,0.2-1.1,1-1c0.4,0,0.9,0,1.4,0C141.3,21.2,141.9,21.3,141.8,22.5z"/>
		</g>
		<path class="st1" d="M151.6,33.9c0,1.4-1.2,2.5-2.6,2.4c-1.3-0.1-2.4-1.2-2.4-2.5c0-1.4,1.2-2.5,2.6-2.4
			C150.6,31.3,151.6,32.4,151.6,33.9z"/>
	</g>
	<g class="st2">
		<path class="st1" d="M122.1,43.8c0.4-0.2,0.6-0.3,0.9-0.4c1.7-0.6,3.3,0.4,3.4,2.2c0.1,1.6,0,3.2,0,4.7c0,0.8-0.5,0.6-0.9,0.6
			c-0.4,0-1.1,0.3-1.1-0.6c0-1.2,0-2.5,0-3.7c0-0.8-0.1-1.6-1.2-1.6c-1,0-1.2,0.7-1.2,1.6c0,1.2,0,2.4,0,3.6c0,0.8-0.4,0.8-0.9,0.7
			c-0.5,0-1.1,0.2-1.1-0.7c0-3,0-6,0-8.9c0-0.8,0.5-0.8,1-0.8c0.6,0,1,0,1,0.8C122,42.1,122.1,42.8,122.1,43.8z"/>
		<path class="st1" d="M111.2,47.9c0,0.6-0.1,1.3,0,1.9c0.1,0.9-0.2,1.3-1.1,1.1c-1-0.3-1.9,0.1-2.9,0c-1.4-0.1-2.3-0.9-2.3-2.3
			c0-1.3,0.8-2.2,2.2-2.3c0.4,0,0.9,0,1.4,0c0.3,0,0.7,0.2,0.8-0.4c0-0.5-0.1-0.8-0.6-1c-0.6-0.2-1.2-0.2-1.7,0.1
			c-0.9,0.6-1.1-0.3-1.4-0.7c-0.4-0.4,0.3-0.7,0.6-0.8c1.4-0.6,2.8-0.6,4.1,0.1c0.7,0.4,1,1.1,1,1.9
			C111.2,46.4,111.2,47.2,111.2,47.9z M108.3,47.7c-0.6,0.1-1.4-0.2-1.4,0.8c0,0.7,0.5,0.8,1.1,0.8c0.7,0,1.2-0.2,1.3-1.1
			C109.3,47.4,108.6,47.9,108.3,47.7z"/>
		<path class="st1" d="M92.3,46.7c0-0.9,0-1.8,0-2.7c0-1.5,0-1.5-1.5-1.5c-0.2,0-0.3,0-0.5,0c-0.9,0.1-0.7-0.6-0.8-1.1
			c-0.1-0.7,0.2-0.8,0.8-0.8c2,0,3.9,0,5.9,0c0.8,0,0.8,0.4,0.8,1c0,0.6-0.1,1-0.8,1c-1.9,0-1.9,0.1-1.9,2c0,1.9-0.1,3.8,0,5.7
			c0,1-0.5,0.8-1.1,0.8c-0.6,0-1.1,0.1-1-0.8C92.4,49,92.3,47.8,92.3,46.7z"/>
		<path class="st1" d="M101.3,47.7c-0.5,0-1.1,0-1.6,0c-0.8,0-0.7,0.3-0.5,0.8c0.4,0.8,1.6,1.1,2.5,0.5c0.9-0.6,1.2,0,1.5,0.5
			c0.4,0.6-0.3,0.8-0.7,1c-1.3,0.7-3.5,0.5-4.5-0.4c-1.1-1-1.3-3.5-0.6-5.1c0.6-1.2,1.8-1.9,3.2-1.8c2.2,0.2,3.2,2,2.9,4.2
			c0,0.4-0.3,0.3-0.6,0.3C102.5,47.8,101.9,47.7,101.3,47.7C101.3,47.7,101.3,47.7,101.3,47.7z M100.5,46.5c0.3-0.4,1.2,0.4,1.2-0.5
			c0-0.7-0.6-1.2-1.3-1.1c-0.7,0-1.4,0.4-1.3,1.1C99.3,46.8,100,46.2,100.5,46.5z"/>
		<path class="st1" d="M116.5,50.9c-1.9,0-3-0.7-3.5-2c-0.6-1.7-0.2-4,0.9-5c1-0.8,2.7-1,3.9-0.3c0.3,0.2,1,0.4,0.6,0.8
			c-0.3,0.4-0.5,1.4-1.5,0.8c-1.1-0.6-2-0.1-2.2,1.2c-0.1,0.5-0.1,1.1,0,1.6c0.2,1,1.1,1.6,1.9,1c1.1-0.7,1.5,0.3,1.7,0.7
			c0.3,0.6-0.6,0.8-1,1C117.1,51,116.6,50.9,116.5,50.9z"/>
		<path class="st1" d="M129.4,48.4c0.8,0,1.3,0.4,1.3,1.2c0,0.8-0.4,1.3-1.2,1.3c-0.8,0-1.3-0.4-1.3-1.2
			C128.2,48.9,128.6,48.5,129.4,48.4z"/>
	</g>
	<g class="st3">
		<path class="st1" d="M166.5,47c0-0.8,0-1.7,0-2.5c0-1.2,0.6-1.7,1.7-1.2c0.5,0.2,0.7,0.1,1.1,0c1.9-0.6,3.5,0.4,3.5,2.4
			c0,1.4,0,2.9,0,4.3c0,0.8-0.4,0.8-1,0.8c-0.6,0-1.1,0-1-0.9c0.1-1.2,0-2.5,0-3.7c0-0.8-0.3-1.3-1.2-1.3c-0.8,0-1.2,0.5-1.2,1.2
			c0,1.3-0.1,2.6,0,3.8c0.1,0.9-0.5,0.8-1.1,0.8c-0.6,0-1-0.1-0.9-0.8C166.5,49,166.5,48,166.5,47z"/>
		<path class="st1" d="M148.1,47.7c-0.5,0-1.1,0-1.6,0c-0.8,0-0.7,0.3-0.4,0.8c0.4,0.8,1.6,1.1,2.5,0.5c0.9-0.6,1.2,0,1.5,0.5
			c0.4,0.6-0.3,0.8-0.7,1c-2.4,1.4-5.1,0-5.4-2.7c-0.3-2.4,0.7-4.1,2.5-4.6c2.4-0.6,4.6,1.6,4.1,4c-0.1,0.4-0.3,0.4-0.6,0.4
			C149.3,47.7,148.7,47.7,148.1,47.7z M147.1,46.4c0.4-0.3,1.3,0.4,1.4-0.5c0.1-0.7-0.6-1.1-1.3-1.1c-0.7,0-1.3,0.4-1.3,1.1
			C146,46.7,146.8,46.1,147.1,46.4z"/>
		<path class="st1" d="M157.9,47.9c0,0.6,0,1.2,0,1.8c0,1.1-0.6,1.6-1.6,1.1c-0.4-0.2-0.6-0.2-1,0c-1.9,0.6-3.6-0.4-3.6-2.2
			c0-1.3,0.8-2.1,2.1-2.3c0.4,0,0.9,0,1.4,0c0.3,0,0.7,0.2,0.8-0.3c0.1-0.4-0.1-0.8-0.6-1c-0.6-0.2-1.3-0.2-1.8,0.1
			c-0.9,0.6-1.1-0.4-1.4-0.7c-0.4-0.4,0.3-0.6,0.5-0.8c1.4-0.7,2.8-0.7,4.2,0.1c0.7,0.4,1,1.1,1,1.9
			C157.9,46.4,157.9,47.1,157.9,47.9z M155,47.7c-0.7,0-1.4-0.1-1.4,0.9c0,0.7,0.6,0.8,1.1,0.8c0.7,0,1.2-0.3,1.3-1.1
			C156.1,47.3,155.3,47.8,155,47.7z"/>
		<path class="st1" d="M136.1,45.6c0-1.4,0.1-2.9,0-4.3c0-0.9,0.4-0.9,1-0.9c0.6,0,1.1-0.1,1.1,0.8c-0.1,2.3,0,4.5,0,6.8
			c0,0.7,0.2,1,0.9,0.9c1-0.1,2,0,3.1,0c0.9-0.1,0.7,0.5,0.8,1c0,0.6-0.1,0.9-0.8,0.9c-1.7,0-3.5,0-5.2,0c-0.7,0-0.8-0.2-0.8-0.8
			C136.1,48.6,136.1,47.1,136.1,45.6z"/>
		<path class="st1" d="M159.9,47.1c0-0.9,0-1.7,0-2.6c0-1.2,0.6-1.7,1.7-1.2c0.5,0.3,0.8,0.2,1.2,0c0.4-0.1,0.7-0.2,1.1-0.2
			c0.5,0,1.1,0.2,1.4,0.6c0.2,0.3-0.1,0.5-0.3,0.6c-0.4,0.3-0.6,1.1-1.5,0.7c-0.8-0.4-1.5,0.1-1.6,1.1c-0.1,1.3-0.1,2.6,0,3.8
			c0.1,0.9-0.5,0.8-1,0.8c-0.6,0-1,0-0.9-0.8C160,49.1,159.9,48.1,159.9,47.1z"/>
		<path class="st1" d="M177.2,49.6c-0.1,0.9-0.5,1.3-1.4,1.3c-0.8,0-1.2-0.5-1.2-1.3c0-0.8,0.5-1.2,1.3-1.2
			C176.8,48.4,177.1,48.9,177.2,49.6z"/>
	</g>
</g>
</svg>
