<?xml version="1.0" encoding="utf-8"?>
<!-- Generator: Adobe Illustrator 22.0.1, SVG Export Plug-In . SVG Version: 6.00 Build 0)  -->
<svg version="1.1" xmlns="http://www.w3.org/2000/svg" xmlns:xlink="http://www.w3.org/1999/xlink" x="0px" y="0px"
	 viewBox="0 0 1058 792" style="enable-background:new 0 0 1058 792;" xml:space="preserve">
<style type="text/css">
	.st0{display:none;}
	.st1{fill-rule:evenodd;clip-rule:evenodd;fill:#FFFFFF;}
	.st2{fill:#FFFFFF;}
	.st3{fill-rule:evenodd;clip-rule:evenodd;fill:none;stroke:#FFFFFF;stroke-width:5;stroke-miterlimit:10;}
</style>
<g id="Grid" class="st0">
</g>
<g id="Layer_1">
</g>
<g id="Desktop">
</g>
<g id="Guides">
</g>
<g id="Page_1">
	<g id="Layer_1_1_">
		<path class="st1" d="M286.8,308.5L274,326c-6.4,8.8-4.4,24.4,4.3,30.7l23.6,17.1c4.1,2.9,4.4,5.8,2.5,8.9l3.4,2.5l12-16.6
			c7.4-10.2,6.7-24.2-4.2-32.2l-23.8-17.4c-2.9-2.1-3.1-5-1.6-8.2L286.8,308.5L286.8,308.5z M307.2,230.9l-19.8,27.5
			c-9.3,12.9-5.9,34.9,6.8,44.2l32.6,23.9c6.6,4.9,7.5,17.2,2.7,23.6l2.8,2.1l22.5-31.7c10.1-14.2,9.5-35.2-6.4-46.8l-34.9-25.3
			c-4.9-3.5-7.3-9.6-3.3-15.3L307.2,230.9L307.2,230.9z M254.9,403h26.3l4.7,15.9c14.3,0,28.7,0,43,0l4.7-15.9h26.3l-3.4-11.7
			c-32.7,0-65.4,0-98.1,0L254.9,403L254.9,403z M216.9,217.5h178.3c11.5,0,21,9.4,21,21v315.1c0,11.5-9.4,21-21,21H216.9
			c-11.5,0-21-9.4-21-21V238.5C195.9,226.9,205.3,217.5,216.9,217.5L216.9,217.5z M216.9,218.9h178.3c10.8,0,19.5,8.8,19.5,19.5
			v315.1c0,10.7-8.8,19.5-19.5,19.5H216.9c-10.7,0-19.5-8.8-19.5-19.5V238.5C197.3,227.7,206.1,218.9,216.9,218.9L216.9,218.9z
			 M410.4,504.5v49.1c0,8.4-6.9,15.2-15.2,15.2H216.9c-8.4,0-15.2-6.9-15.2-15.2v-49.1H410.4L410.4,504.5z M236.8,531.5l-7.8-19.5
			h-4l-7.9,19.5h4.4l1.6-4.3h7.5l1.6,4.3H236.8L236.8,531.5z M229.2,523.5h-4.7l1.3-3.5c0.2-0.6,0.4-1.1,0.6-1.7
			c0.2-0.5,0.3-1,0.4-1.4c0.1,0.4,0.2,0.8,0.4,1.4c0.2,0.5,0.4,1.1,0.6,1.7L229.2,523.5L229.2,523.5z M254.1,515.2
			c-1.2-1.4-3.1-2.7-4.9-3.2c-0.8-0.2-1.7-0.3-2.6-0.3c-1.4,0-2.6,0.2-3.7,0.7c-1.1,0.5-2.1,1.2-2.9,2.1c-0.8,0.9-1.4,1.9-1.9,3.2
			c-0.5,1.2-0.7,2.6-0.7,4.1c0,1.5,0.2,2.9,0.6,4.2c0.4,1.2,1,2.3,1.8,3.2c0.8,0.9,1.7,1.5,2.8,2c1.1,0.5,2.3,0.7,3.7,0.7
			c2.5,0,6.8-1.4,8-3.8l-2.9-2.6c-0.8,1.3-3.4,2.5-5,2.5c-0.8,0-1.4-0.2-2.1-0.5c-0.6-0.3-1.1-0.8-1.5-1.3s-0.7-1.2-1-2
			c-0.2-0.8-0.3-1.6-0.3-2.4c0-0.9,0.1-1.7,0.3-2.5c0.2-0.8,0.5-1.4,0.9-2c0.4-0.5,0.9-1,1.5-1.3c0.6-0.3,1.3-0.5,2.1-0.5
			c1.5,0,3.7,1,4.7,2.4L254.1,515.2L254.1,515.2z M293.1,531.5l-4.6-7.4c1.3-0.5,2.8-1.4,3.4-2.3c0.7-0.9,1-2.1,1-3.6
			c0-1-0.2-1.9-0.6-2.7c-0.4-0.8-0.9-1.4-1.5-1.9c-0.6-0.5-1.4-0.9-2.3-1.2c-0.9-0.3-1.8-0.4-2.7-0.4h-9.6v19.5h4.1v-7l3.7,0.2
			l4.3,6.9H293.1L293.1,531.5z M288.8,518.3c0,1.7-1,2.5-2.9,2.5h-5.4v-5h5.4c0.9,0,1.6,0.2,2.2,0.6
			C288.5,516.8,288.8,517.4,288.8,518.3L288.8,518.3z M310.4,531.5v-3.8h-10.6V523h8.5v-3.8h-8.5v-3.4H310V512h-14.3v19.5H310.4
			L310.4,531.5z M330.2,521.8c0-1.8-0.3-3.3-0.8-4.5c-0.5-1.2-1.2-2.2-2.1-3c-0.9-0.8-2-1.3-3.2-1.7c-1.2-0.3-2.6-0.5-4.1-0.5h-6.4
			v19.5h6.1c1.3,0,2.6-0.2,3.9-0.6c1.3-0.4,2.4-1,3.4-1.7c1-0.8,1.8-1.8,2.4-3C329.9,525,330.2,523.5,330.2,521.8L330.2,521.8z
			 M325.9,521.8c0,0.9-0.1,1.7-0.4,2.4c-0.3,0.7-0.6,1.4-1.1,1.9c-0.5,0.5-1.2,0.9-2,1.2c-0.8,0.3-1.7,0.4-2.8,0.4h-2v-11.9h2.2
			c2.2,0,3.7,0.5,4.7,1.5C325.5,518.3,325.9,519.8,325.9,521.8L325.9,521.8z M338.3,531.5V512h-4.1v19.5H338.3L338.3,531.5z
			 M357.4,515.9V512h-15.9v3.8h5.9v15.7h4.1v-15.7H357.4L357.4,515.9z M394.5,521.8c0-1.8-0.3-3.3-0.8-4.5c-0.5-1.2-1.2-2.2-2.1-3
			c-0.9-0.8-2-1.3-3.2-1.7c-1.2-0.3-2.6-0.5-4.1-0.5h-6.4v19.5h6.1c1.3,0,2.6-0.2,3.9-0.6c1.3-0.4,2.4-1,3.4-1.7
			c1-0.8,1.8-1.8,2.4-3C394.2,525,394.5,523.5,394.5,521.8L394.5,521.8z M390.3,521.8c0,0.9-0.1,1.7-0.4,2.4
			c-0.3,0.7-0.6,1.4-1.1,1.9c-0.5,0.5-1.2,0.9-2,1.2c-0.8,0.3-1.7,0.4-2.8,0.4h-2v-11.9h2.2c2.2,0,3.7,0.5,4.7,1.5
			C389.8,518.3,390.3,519.8,390.3,521.8L390.3,521.8z M374.8,531.5v-3.8h-10.6V523h8.5v-3.8h-8.5v-3.4h10.2V512h-14.3v19.5H374.8
			L374.8,531.5z M340.4,556.7v-3.8h-10.6v-4.7h8.5v-3.8h-8.5v-3.4h10.2v-3.8h-14.3v19.5H340.4L340.4,556.7z M273.1,515.2
			c-1.2-1.4-3.1-2.7-4.9-3.2c-0.8-0.2-1.7-0.3-2.6-0.3c-1.4,0-2.6,0.2-3.7,0.7c-1.1,0.5-2.1,1.2-2.9,2.1c-0.8,0.9-1.4,1.9-1.9,3.2
			c-0.5,1.2-0.7,2.6-0.7,4.1c0,1.5,0.2,2.9,0.6,4.2c0.4,1.2,1,2.3,1.8,3.2c0.8,0.9,1.7,1.5,2.8,2c1.1,0.5,2.3,0.7,3.7,0.7
			c2.5,0,6.8-1.4,8-3.8l-2.9-2.6c-0.8,1.3-3.4,2.5-5,2.5c-0.8,0-1.4-0.2-2.1-0.5c-0.6-0.3-1.1-0.8-1.5-1.3s-0.7-1.2-1-2
			c-0.2-0.8-0.3-1.6-0.3-2.4c0-0.9,0.1-1.7,0.3-2.5c0.2-0.8,0.5-1.4,0.9-2c0.4-0.5,0.9-1,1.5-1.3c0.6-0.3,1.3-0.5,2.1-0.5
			c1.5,0,3.7,1,4.7,2.4L273.1,515.2L273.1,515.2z M256.3,550.4c0-1.1-0.3-2-0.8-2.7c-0.5-0.7-1.2-1.2-2-1.6c0.7-0.4,1.2-0.9,1.6-1.6
			c0.4-0.7,0.6-1.4,0.6-2.2c0-1.7-0.6-3-1.7-3.8c-1.1-0.9-2.7-1.3-4.6-1.3h-9.2v19.5h9.1c1.1,0,2-0.1,2.9-0.4
			c0.9-0.3,1.6-0.7,2.2-1.2c0.6-0.5,1.1-1.2,1.4-2C256.1,552.4,256.3,551.5,256.3,550.4L256.3,550.4z M251.5,542.7
			c0,0.5-0.2,1-0.5,1.3c-0.3,0.3-0.9,0.5-1.8,0.5H244v-3.7h5.1c0.9,0,1.5,0.2,1.9,0.5C251.4,541.6,251.5,542.1,251.5,542.7
			L251.5,542.7z M252.2,550.5c0,0.8-0.2,1.4-0.7,1.9c-0.5,0.5-1.2,0.7-2.2,0.7H244v-5h5.3C251.2,548,252.2,548.8,252.2,550.5
			L252.2,550.5z M275.2,548.1v-10.9h-4v11c0,1.6-0.4,2.8-1.1,3.7c-0.7,0.9-1.7,1.3-3,1.3c-1.3,0-2.3-0.5-3-1.4
			c-0.7-0.9-1.1-2.2-1.1-3.7v-10.9h-4v11c0,1.4,0.2,2.7,0.6,3.8c0.4,1.1,0.9,2,1.6,2.8c0.7,0.8,1.6,1.3,2.6,1.7
			c1,0.4,2.1,0.6,3.3,0.6c2.6,0,4.6-0.8,6-2.3C274.5,553.2,275.2,551,275.2,548.1L275.2,548.1z M293.6,550.8c0-1.1-0.2-1.9-0.6-2.6
			c-0.4-0.7-0.9-1.3-1.6-1.7c-0.6-0.4-1.4-0.8-2.1-1c-0.8-0.3-1.6-0.5-2.4-0.7c-0.8-0.2-1.5-0.4-2-0.5c-0.5-0.1-0.9-0.3-1.2-0.5
			c-0.3-0.2-0.5-0.4-0.6-0.6c-0.1-0.2-0.2-0.5-0.2-0.8c0-0.2,0-0.4,0.1-0.6c0.1-0.2,0.3-0.4,0.5-0.6c0.2-0.2,0.5-0.3,0.9-0.4
			c0.4-0.1,0.8-0.2,1.3-0.2c0.9,0,1.7,0.2,2.5,0.5c0.7,0.3,1.4,0.8,2.1,1.5l2.9-2.7c-1-1-2-1.7-3.2-2.3c-1.2-0.5-2.5-0.8-4.1-0.8
			c-1,0-1.9,0.1-2.8,0.4c-0.9,0.3-1.6,0.6-2.3,1.1c-0.6,0.5-1.2,1.1-1.5,1.8c-0.4,0.7-0.6,1.5-0.6,2.4c0,1,0.2,1.8,0.5,2.4
			s0.7,1.2,1.3,1.6c0.6,0.4,1.2,0.8,2,1.1c0.8,0.3,1.6,0.5,2.5,0.7c0.9,0.2,1.7,0.4,2.3,0.6c0.6,0.2,1,0.4,1.4,0.6
			c0.3,0.2,0.5,0.4,0.6,0.7c0.1,0.2,0.2,0.5,0.2,0.8c0,0.7-0.3,1.3-0.8,1.6c-0.6,0.3-1.4,0.5-2.6,0.5c-1,0-1.9-0.2-2.8-0.5
			c-0.9-0.3-1.7-0.9-2.4-1.7l-2.9,2.5c0.8,1.1,1.8,2,3.2,2.6c1.4,0.6,2.9,0.9,4.6,0.9c1.4,0,2.6-0.1,3.5-0.4c1-0.3,1.8-0.7,2.4-1.3
			c0.6-0.5,1.1-1.2,1.4-2C293.5,552.6,293.6,551.8,293.6,550.8L293.6,550.8z M300.9,556.7v-19.5h-4v19.5H300.9L300.9,556.7z
			 M321.3,556.7v-19.5h-4v8.3c0,0.3,0,0.6,0,1c0,0.4,0,0.8,0,1.3c0,0.4,0,0.8,0,1.2c0,0.4,0,0.6,0,0.8c-0.1-0.3-0.3-0.6-0.6-1
			c-0.3-0.4-0.5-0.8-0.8-1.2l-7.1-10.3H305v19.5h4v-8.6c0-0.3,0-0.6,0-1c0-0.4,0-0.8,0-1.2c0-0.4,0-0.8,0-1.2c0-0.4,0-0.6,0-0.8
			c0.1,0.3,0.3,0.6,0.6,1c0.3,0.4,0.5,0.8,0.8,1.2l7.4,10.7H321.3L321.3,556.7z M356.7,550.8c0-1.1-0.2-1.9-0.6-2.6
			c-0.4-0.7-0.9-1.3-1.6-1.7c-0.6-0.4-1.4-0.8-2.1-1c-0.8-0.3-1.6-0.5-2.4-0.7c-0.8-0.2-1.5-0.4-2-0.5c-0.5-0.1-0.9-0.3-1.2-0.5
			c-0.3-0.2-0.5-0.4-0.6-0.6c-0.1-0.2-0.2-0.5-0.2-0.8c0-0.2,0-0.4,0.1-0.6c0.1-0.2,0.3-0.4,0.5-0.6c0.2-0.2,0.5-0.3,0.9-0.4
			c0.4-0.1,0.8-0.2,1.3-0.2c0.9,0,1.7,0.2,2.5,0.5c0.7,0.3,1.4,0.8,2.1,1.5l2.9-2.7c-1-1-2-1.7-3.2-2.3c-1.2-0.5-2.5-0.8-4.1-0.8
			c-1,0-1.9,0.1-2.8,0.4c-0.9,0.3-1.6,0.6-2.3,1.1c-0.6,0.5-1.2,1.1-1.5,1.8c-0.4,0.7-0.6,1.5-0.6,2.4c0,1,0.2,1.8,0.5,2.4
			s0.7,1.2,1.3,1.6c0.6,0.4,1.2,0.8,2,1.1c0.8,0.3,1.6,0.5,2.5,0.7c0.9,0.2,1.7,0.4,2.3,0.6c0.6,0.2,1,0.4,1.4,0.6
			c0.3,0.2,0.5,0.4,0.6,0.7c0.1,0.2,0.2,0.5,0.2,0.8c0,0.7-0.3,1.3-0.8,1.6c-0.6,0.3-1.4,0.5-2.6,0.5c-1,0-1.9-0.2-2.8-0.5
			c-0.9-0.3-1.7-0.9-2.4-1.7l-2.9,2.5c0.8,1.1,1.8,2,3.2,2.6c1.4,0.6,2.9,0.9,4.6,0.9c1.4,0,2.6-0.1,3.5-0.4c1-0.3,1.8-0.7,2.4-1.3
			c0.6-0.5,1.1-1.2,1.4-2C356.6,552.6,356.7,551.8,356.7,550.8L356.7,550.8z M374,550.8c0-1.1-0.2-1.9-0.6-2.6
			c-0.4-0.7-0.9-1.3-1.6-1.7c-0.6-0.4-1.4-0.8-2.1-1c-0.8-0.3-1.6-0.5-2.4-0.7c-0.8-0.2-1.5-0.4-2-0.5c-0.5-0.1-0.9-0.3-1.2-0.5
			c-0.3-0.2-0.5-0.4-0.6-0.6c-0.1-0.2-0.2-0.5-0.2-0.8c0-0.2,0-0.4,0.1-0.6c0.1-0.2,0.3-0.4,0.5-0.6c0.2-0.2,0.5-0.3,0.9-0.4
			c0.4-0.1,0.8-0.2,1.3-0.2c0.9,0,1.7,0.2,2.5,0.5c0.7,0.3,1.4,0.8,2.1,1.5l2.9-2.7c-1-1-2-1.7-3.2-2.3c-1.2-0.5-2.5-0.8-4.1-0.8
			c-1,0-1.9,0.1-2.8,0.4c-0.9,0.3-1.6,0.6-2.3,1.1c-0.6,0.5-1.2,1.1-1.5,1.8c-0.4,0.7-0.6,1.5-0.6,2.4c0,1,0.2,1.8,0.5,2.4
			s0.7,1.2,1.3,1.6c0.6,0.4,1.2,0.8,2,1.1c0.8,0.3,1.6,0.5,2.5,0.7c0.9,0.2,1.7,0.4,2.3,0.6c0.6,0.2,1,0.4,1.4,0.6
			c0.3,0.2,0.5,0.4,0.6,0.7c0.1,0.2,0.2,0.5,0.2,0.8c0,0.7-0.3,1.3-0.8,1.6c-0.6,0.3-1.4,0.5-2.6,0.5c-1,0-1.9-0.2-2.8-0.5
			c-0.9-0.3-1.7-0.9-2.4-1.7l-2.9,2.5c0.8,1.1,1.8,2,3.2,2.6c1.4,0.6,2.9,0.9,4.6,0.9c1.4,0,2.6-0.1,3.5-0.4c1-0.3,1.8-0.7,2.4-1.3
			c0.6-0.5,1.1-1.2,1.4-2C373.8,552.6,374,551.8,374,550.8L374,550.8z M256.9,475.8h-15.8v-13.2h15.8
			C268.5,462.6,267.8,475.8,256.9,475.8L256.9,475.8z M310.9,475.8h-15.8v-13.2h15.8C322.5,462.6,321.8,475.8,310.9,475.8
			L310.9,475.8z M364.9,475.8h-15.8v-13.2h15.8C376.5,462.6,375.8,475.8,364.9,475.8L364.9,475.8z M255.8,452.3h-14.7V440h14.1
			C264.1,440,264.4,452.3,255.8,452.3L255.8,452.3z M309.8,452.3h-14.7V440h14.1C318.1,440,318.4,452.3,309.8,452.3L309.8,452.3z
			 M363.8,452.3h-14.7V440h14.1C372.1,440,372.4,452.3,363.8,452.3L363.8,452.3z M277.5,468.5c-1.1-7.6-4.2-9.4-10.3-12.1
			c4.6-2.7,7.5-6.7,7.5-12.1c0-10.9-8.9-15.3-18.7-15.3h-27.2v57.8h26.9C267.3,486.7,279.5,481.7,277.5,468.5L277.5,468.5z
			 M331.5,468.5c-1.1-7.6-4.2-9.4-10.3-12.1c4.6-2.7,7.5-6.7,7.5-12.1c0-10.9-8.9-15.3-18.7-15.3h-27.2v57.8h26.9
			C321.3,486.7,333.5,481.7,331.5,468.5L331.5,468.5z M385.5,468.5c-1.1-7.6-4.2-9.4-10.3-12.1c4.6-2.7,7.5-6.7,7.5-12.1
			c0-10.9-8.9-15.3-18.7-15.3h-27.2v57.8h26.9C375.3,486.7,387.5,481.7,385.5,468.5L385.5,468.5z M390.8,484.8c0-0.2,0-0.5-0.1-0.6
			c-0.1-0.2-0.2-0.4-0.3-0.5c-0.2-0.2-0.3-0.3-0.6-0.4c-0.2-0.1-0.6-0.3-0.9-0.4c-0.3-0.1-0.6-0.2-0.8-0.3c-0.2-0.1-0.4-0.2-0.5-0.3
			c-0.1-0.1-0.2-0.2-0.2-0.3c0-0.1-0.1-0.2-0.1-0.4c0-0.1,0-0.3,0.1-0.4c0-0.1,0.1-0.2,0.2-0.3c0.1-0.1,0.2-0.2,0.4-0.2
			c0.2-0.1,0.4-0.1,0.6-0.1c0.3,0,0.6,0.1,0.9,0.2c0.2,0.1,0.5,0.3,0.7,0.5l0.5-0.6c-0.3-0.2-0.6-0.4-0.9-0.5
			c-0.3-0.1-0.7-0.2-1.1-0.2c-0.3,0-0.6,0-0.9,0.1c-0.3,0.1-0.5,0.2-0.7,0.3c-0.2,0.1-0.3,0.3-0.4,0.5c-0.1,0.2-0.2,0.4-0.2,0.7
			c0,0.2,0,0.4,0.1,0.6c0.1,0.2,0.2,0.3,0.3,0.5c0.2,0.1,0.3,0.3,0.6,0.4c0.2,0.1,0.6,0.3,0.9,0.4c0.3,0.1,0.6,0.2,0.8,0.3
			c0.2,0.1,0.4,0.2,0.5,0.3c0.1,0.1,0.2,0.2,0.3,0.3c0.1,0.1,0.1,0.3,0.1,0.4c0,0.3-0.1,0.6-0.4,0.8c-0.3,0.2-0.6,0.3-1.1,0.3
			c-0.3,0-0.7-0.1-1-0.2c-0.3-0.1-0.6-0.3-0.8-0.6l-0.5,0.5c0.3,0.3,0.6,0.5,1,0.6c0.4,0.2,0.8,0.3,1.3,0.3c0.4,0,0.7,0,0.9-0.1
			c0.3-0.1,0.5-0.2,0.7-0.4c0.2-0.2,0.3-0.4,0.4-0.6C390.7,485.3,390.8,485.1,390.8,484.8L390.8,484.8z M397.7,486.6V480h-0.8
			l-1.6,3.9c0,0.1-0.1,0.2-0.1,0.3c0,0.1-0.1,0.2-0.1,0.4c0,0.1-0.1,0.2-0.1,0.3c0,0.1-0.1,0.2-0.1,0.3c0-0.1,0-0.2-0.1-0.3
			c0-0.1-0.1-0.2-0.1-0.3c0-0.1-0.1-0.2-0.1-0.4c0-0.1-0.1-0.2-0.1-0.3l-1.6-3.9h-0.8v6.5h0.7v-4.4v-0.7c0,0.1,0,0.1,0.1,0.2
			c0,0.1,0.1,0.2,0.1,0.3c0,0.1,0.1,0.2,0.1,0.3c0,0.1,0.1,0.2,0.1,0.3l1.8,4.2l1.8-4.2c0-0.1,0.1-0.2,0.1-0.3
			c0-0.1,0.1-0.2,0.1-0.3c0-0.1,0.1-0.2,0.1-0.3c0-0.1,0.1-0.2,0.1-0.2v0.7v4.4H397.7L397.7,486.6z"/>
	</g>
	<g>
		<path class="st2" d="M468.4,275.5h19.9c11,0,15.2,5.7,15.2,11.6c0,5.1-2.7,8.5-5.8,9.9c3.1,1.2,7.1,4.4,7.1,10.4
			c0,7.8-6.1,13.6-15.8,13.6h-20.5V275.5z M487.2,293.4c4.7,0,6.6-2.1,6.6-5.3c0-3.3-2.5-5.1-6.3-5.1h-9.4v10.3H487.2z M478.1,313.4
			h8.9c5.3,0,7.7-2.2,7.7-6.3c0-3.7-2.4-6-7.8-6h-8.8V313.4z"/>
		<path class="st2" d="M512.4,275.5h19.9c11,0,15.2,5.7,15.2,11.6c0,5.1-2.7,8.5-5.8,9.9c3.1,1.2,7.1,4.4,7.1,10.4
			c0,7.8-6.1,13.6-15.8,13.6h-20.5V275.5z M531.2,293.4c4.7,0,6.6-2.1,6.6-5.3c0-3.3-2.5-5.1-6.3-5.1h-9.4v10.3H531.2z M522.1,313.4
			h8.9c5.3,0,7.7-2.2,7.7-6.3c0-3.7-2.4-6-7.8-6h-8.8V313.4z"/>
		<path class="st2" d="M566,283.6h-13.8v-8.1h37.4v8.1h-13.8V321H566V283.6z"/>
		<path class="st2" d="M621.3,302.8V321h-9.6v-45.5h20c9.9,0,15.3,5.5,15.3,12.5c0,6.1-3.3,9.4-6.6,10.8c2.3,0.8,5.7,3.2,5.7,11.3
			v2.2c0,3.1,0,6.5,0.7,8.7h-9.3c-0.8-2-1-5.4-1-10.2v-0.7c0-5-1.3-7.3-8.6-7.3H621.3z M621.3,295h8.2c5.4,0,7.5-2,7.5-5.9
			c0-3.7-2.4-5.8-7.2-5.8h-8.5V295z"/>
		<path class="st2" d="M665,310.5l-3.5,10.5h-9.7l15.5-45.5h12.4l16.1,45.5h-10.3l-3.7-10.5H665z M679.6,302.4
			c-3.2-9.6-5.3-15.7-6.4-19.8h-0.1c-1.1,4.5-3.4,11.6-6,19.8H679.6z"/>
		<path class="st2" d="M705.9,283.6h-13.8v-8.1h37.4v8.1h-13.8V321h-9.8V283.6z"/>
		<path class="st2" d="M745.5,275.5V321h-9.8v-45.5H745.5z"/>
		<path class="st2" d="M756.4,321v-45.5h12.2c5.7,10.2,16.2,28.6,18.3,33.6h0.1c-0.5-4.7-0.5-12.6-0.5-20.1v-13.5h8.9V321h-11.6
			c-4.9-8.9-16.5-30.1-18.8-35.3h-0.1c0.3,4,0.4,13.3,0.4,21.5V321H756.4z"/>
		<path class="st2" d="M845.8,321h-7.2c-0.4-1.4-0.6-3-0.8-4.5c-2.5,3.4-7,5.2-13.3,5.2c-13.2,0-20.6-10-20.6-22.9
			c0-13.7,8-24,22.3-24c11.7,0,18.6,6.6,19.7,14.4h-9.8c-0.9-3-3.3-6.7-10-6.7c-9.3,0-12,7.8-12,15.8c0,7.8,3,15.5,12.1,15.5
			c8.4,0,10-5.8,10-9.9v-0.4h-10v-8.1h19.6V321z"/>
	</g>
	<g>
		<path class="st2" d="M596.5,474.3l-6.2,18.5h-17l27.2-80h21.7l28.3,80h-18.2l-6.6-18.5H596.5z M622,460.2
			c-5.7-16.9-9.3-27.7-11.2-34.8h-0.1c-2,7.9-6,20.4-10.5,34.8H622z"/>
		<path class="st2" d="M690,431.1v27.3h26.2v7H690v27.5h-7.4v-27.5h-26.2v-7h26.2v-27.3H690z"/>
	</g>
	<circle class="st3" cx="641.1" cy="461.1" r="95.1"/>
	<path class="st3" d="M877,590H190c-6.6,0-12-5.4-12-12V217c0-6.6,5.4-12,12-12h687c6.6,0,12,5.4,12,12v361
		C889,584.6,883.6,590,877,590z"/>
</g>
</svg>
