<?xml version="1.0" encoding="utf-8"?>
<!-- Generator: Adobe Illustrator 22.0.1, SVG Export Plug-In . SVG Version: 6.00 Build 0)  -->
<svg version="1.1" id="Layer_1" xmlns="http://www.w3.org/2000/svg" xmlns:xlink="http://www.w3.org/1999/xlink" x="0px" y="0px"
	 viewBox="0 0 750 1334" style="enable-background:new 0 0 750 1334;" xml:space="preserve">
<style type="text/css">
	.st0{fill:#FFFFFF;}
	.st1{fill:none;stroke:#FFFFFF;stroke-width:3.8274;stroke-miterlimit:10;}
</style>
<g>
	<g>
		<path class="st0" d="M205.6,589.4c5.7,0,9.9,0.4,12.5,1.1c2.6,0.7,4.4,1.5,5.6,2.5c2.5,2.1,3.7,5.4,3.7,9.8c0,3.3-1.8,6.4-5.3,9.4
			c4.5,2.3,6.8,6.5,6.8,12.7c0,4.8-1.6,8.4-4.8,10.8c-3.2,2.4-7.9,3.6-14.2,3.9h-20.7l-0.7-6c0.6-0.8,2-1.6,4-2.4v-33.2
			c-2-0.7-3.3-1.5-4-2.5l0.7-6H205.6z M206.6,597.3h-3.8v12.6h6c2.5,0,4.4-0.6,5.7-1.9c1.3-1.3,2-2.8,2-4.6c0-1.8-0.5-3.2-1.4-4.1
			c-0.9-0.9-2-1.5-3.2-1.7C210.6,597.4,208.9,597.3,206.6,597.3z M209.3,617.9h-6.5v13.8h5c3.3,0,5.8-0.5,7.5-1.5
			c1.7-1,2.5-2.7,2.5-5.2s-0.7-4.3-2-5.5C214.6,618.4,212.4,617.9,209.3,617.9z"/>
		<path class="st0" d="M273,635.6c-2.9,3.1-7.6,4.6-14,4.6c-6.4,0-11-1.5-13.6-4.5c-2.6-3-3.9-7.8-3.9-14.2v-23.5
			c-1.8-0.7-3.2-1.5-4-2.5l0.7-6h17l0.7,6c-0.8,0.9-2.1,1.7-4,2.5v23.8c0,3.5,0.6,6.1,1.7,7.7c1.1,1.7,3.2,2.5,6.1,2.5
			c3,0,5-0.9,6.3-2.6c1.2-1.7,1.8-4.3,1.8-7.7v-23.8c-2-0.7-3.3-1.5-4-2.5l0.7-6h15.9l0.7,6c-0.8,0.9-2.1,1.7-4,2.5v23.5
			C277.3,627.8,275.9,632.5,273,635.6z"/>
		<path class="st0" d="M329.6,604.1c0,3.3-1,6.1-3.1,8.3c-2.1,2.2-4.6,3.9-7.7,5.1c2.4,1,4,2.3,4.8,3.7l5.3,10.1
			c2.3,0.8,3.8,1.7,4.7,2.7l-0.7,5.6h-12.3l-8.4-17.8c-0.8-1.8-1.7-2.7-2.7-2.7h-4.7v11.6c3.5,0.8,5.7,1.7,6.6,2.8l-0.7,6H291
			l-0.7-6c0.6-0.8,2-1.6,4-2.4v-33.2c-2-0.7-3.3-1.5-4-2.5l0.7-6h18.5c6.8,0.1,11.8,1.2,15.1,3.3
			C327.9,594.8,329.6,598.6,329.6,604.1z M309,597.3h-4.3v13.8h4.1c3.3,0,5.8-0.5,7.4-1.5c1.6-1,2.4-2.8,2.4-5.3
			c0-2.6-0.8-4.4-2.5-5.4C314.6,597.9,312.2,597.3,309,597.3z"/>
		<path class="st0" d="M362.5,597.1c-3.3,0-5.9,1.3-7.7,3.8c-1.8,2.5-2.7,6.9-2.7,13.2c0,12,3.3,18,9.9,18c2.6,0,4.9-0.4,7-1.2v-8.2
			c-2.2-0.7-3.8-1.6-4.6-2.7l0.7-5.7h17l0.7,5.7c-0.6,0.8-1.8,1.5-3.4,2.3v13.5c-2.3,1.7-4.9,2.9-7.7,3.6c-2.8,0.7-6.3,1.1-10.4,1.1
			c-6.9,0-12-2-15.3-5.9c-3.2-4-4.9-10.4-4.9-19.3c0-8.9,1.9-15.5,5.8-19.7c3.9-4.3,9.1-6.4,15.9-6.4c6.7,0,12.2,1.5,16.5,4.6
			c0,0.3,0,0.8,0,1.7s-0.2,2.2-0.5,4.2c-0.3,2-0.8,3.6-1.5,4.9h-6.7c-0.7-1.4-1.2-3.4-1.5-6C367.1,597.4,364.9,597.1,362.5,597.1z"
			/>
		<path class="st0" d="M426.4,639.6h-33.7l-0.7-6c0.6-0.8,2-1.6,4-2.4v-33.2c-2-0.7-3.3-1.5-4-2.5l0.7-6h33.2v12.7l-5.4,0.7
			c-1.1-1-2-2.8-2.7-5.4h-11.3v12.5h10.1c0.6-1.5,1.2-2.5,1.8-3.1l4.6,0.5v12.9l-4.6,0.6c-0.6-0.5-1.2-1.5-1.8-3.1h-10.1v13.9h11.9
			c0.6-2.5,1.5-4.3,2.7-5.4l5.4,0.7V639.6z"/>
		<path class="st0" d="M475.9,604.1c0,3.3-1,6.1-3.1,8.3c-2.1,2.2-4.6,3.9-7.7,5.1c2.4,1,4,2.3,4.8,3.7l5.3,10.1
			c2.3,0.8,3.8,1.7,4.7,2.7l-0.7,5.6h-12.3l-8.4-17.8c-0.8-1.8-1.7-2.7-2.7-2.7H451v11.6c3.5,0.8,5.7,1.7,6.6,2.8l-0.7,6h-19.6
			l-0.7-6c0.6-0.8,2-1.6,4-2.4v-33.2c-2-0.7-3.3-1.5-4-2.5l0.7-6h18.5c6.8,0.1,11.8,1.2,15.1,3.3
			C474.3,594.8,475.9,598.6,475.9,604.1z M455.3,597.3H451v13.8h4.1c3.3,0,5.8-0.5,7.4-1.5c1.6-1,2.4-2.8,2.4-5.3
			c0-2.6-0.8-4.4-2.5-5.4C460.9,597.9,458.5,597.3,455.3,597.3z"/>
		<path class="st0" d="M504.3,623.6h-16.7l-0.7-4.7c1.5-1.7,3.7-2.5,6.5-2.5h16.7l0.7,4.7C509.4,622.8,507.2,623.6,504.3,623.6z"/>
		<path class="st0" d="M222.4,700.8h-33.3l-0.7-6c0.6-0.8,2-1.6,4-2.4v-33.2c-2-0.7-3.3-1.5-4-2.5l0.7-6h17l0.7,6
			c-0.8,0.9-2.1,1.7-4,2.5v33.7h11.5c0.6-2.5,1.5-4.3,2.7-5.4l5.4,0.7V700.8z"/>
		<path class="st0" d="M257.4,650.7l0.7,6c-0.8,0.9-2.1,1.7-4,2.5v33.2c1.9,0.8,3.3,1.6,4,2.4l-0.7,6h-17l-0.7-6
			c0.6-0.8,2-1.6,4-2.4v-33.2c-2-0.7-3.3-1.5-4-2.5l0.7-6H257.4z"/>
		<path class="st0" d="M299.9,658.6c-1.6-0.4-3.4-0.7-5.2-0.7s-3.2,0.4-4.3,1.3c-1.1,0.9-1.6,2.2-1.6,3.8c0,1.6,0.4,2.9,1.2,3.8
			c0.8,0.9,2.4,1.7,4.9,2.4l6.5,1.9c3.5,1,6.3,2.6,8.3,4.8c2.1,2.2,3.1,5.3,3.1,9.5c0,4.9-1.8,8.8-5.3,11.7c-3.6,2.9-8,4.3-13.3,4.3
			c-2.9,0-5.9-0.4-9-1.1s-5.6-1.8-7.7-3.2c0-0.3,0-0.8,0-1.7c0-0.8,0.2-2.2,0.5-4.2c0.3-2,0.8-3.6,1.5-4.9h6.9
			c0.8,1.5,1.2,3.5,1.4,6c1.7,0.7,3.7,1.1,5.9,1.1c2.3,0,4.1-0.5,5.6-1.6c1.5-1.1,2.2-2.6,2.2-4.6c0-0.9-0.1-1.7-0.2-2.3
			c-0.1-0.6-0.6-1.3-1.3-2c-0.8-0.7-1.8-1.3-3.2-1.7l-7.5-2.2c-7.6-2.2-11.4-7-11.4-14.5c0-4.4,1.6-7.9,4.8-10.6
			c3.2-2.6,7.4-4,12.5-4c5.2,0,10.2,1.2,15.2,3.5c0,0.3,0,0.8,0,1.7c0,0.8-0.2,2.2-0.5,4.2c-0.3,2-0.8,3.6-1.5,4.9h-6.9
			C300.6,663.2,300.1,661.3,299.9,658.6z"/>
		<path class="st0" d="M358.5,659.2c-1.5-0.6-3.6-0.9-6.5-0.9c-2.9,0-5.3,1.3-7.1,3.8c-1.8,2.5-2.7,6.9-2.7,13.2
			c0,6.3,0.9,10.8,2.6,13.4c1.7,2.6,4.3,4,7.7,4c5.2,0,9.8-0.8,14-2.3l2.6,6.5c-5.1,3.1-11.2,4.6-18.1,4.6c-6.9,0-11.9-2-15-5.9
			c-3.1-3.9-4.6-10.3-4.6-19.3s1.9-15.5,5.7-19.8c3.8-4.3,9.1-6.4,16-6.4c5.5,0,10.8,1.5,15.8,4.6c0,0.3,0,0.8,0,1.7
			s-0.2,2.2-0.5,4.2c-0.3,2-0.8,3.6-1.5,4.9h-6.9C359.2,664.1,358.8,662.1,358.5,659.2z"/>
		<path class="st0" d="M405.4,650.7l0.7,6c-0.8,0.9-2.1,1.7-4,2.5v33.2c1.9,0.8,3.3,1.6,4,2.4l-0.7,6h-17l-0.7-6
			c0.6-0.8,2-1.6,4-2.4v-33.2c-2-0.7-3.3-1.5-4-2.5l0.7-6H405.4z"/>
		<path class="st0" d="M445.5,701.4c-6.9,0-12-2-15.5-6c-3.4-4-5.1-10.4-5.1-19.3c0-8.9,1.9-15.5,5.6-19.7c3.8-4.2,9.1-6.4,16.1-6.4
			c7,0,12.1,1.9,15.6,5.7c3.4,3.8,5.1,10.1,5.1,19c0,8.9-1.9,15.5-5.7,20C457.8,699.2,452.4,701.4,445.5,701.4z M438.5,662.1
			c-1.7,2.5-2.6,6.9-2.6,13.2s0.9,10.8,2.8,13.7c1.8,2.9,4.4,4.3,7.6,4.3c3.2,0,5.7-1.3,7.5-4c1.8-2.7,2.7-7.2,2.7-13.4
			c0-11.6-3.5-17.5-10.5-17.5C442.7,658.3,440.2,659.6,438.5,662.1z"/>
		<path class="st0" d="M509,658.6c-1.6-0.4-3.4-0.7-5.2-0.7c-1.8,0-3.2,0.4-4.3,1.3s-1.6,2.2-1.6,3.8c0,1.6,0.4,2.9,1.2,3.8
			c0.8,0.9,2.4,1.7,4.9,2.4l6.5,1.9c3.5,1,6.3,2.6,8.3,4.8c2.1,2.2,3.1,5.3,3.1,9.5c0,4.9-1.8,8.8-5.3,11.7c-3.6,2.9-8,4.3-13.3,4.3
			c-2.9,0-5.9-0.4-9-1.1s-5.6-1.8-7.7-3.2c0-0.3,0-0.8,0-1.7c0-0.8,0.2-2.2,0.5-4.2c0.3-2,0.8-3.6,1.5-4.9h6.9
			c0.8,1.5,1.2,3.5,1.4,6c1.7,0.7,3.7,1.1,5.9,1.1c2.3,0,4.1-0.5,5.6-1.6c1.5-1.1,2.2-2.6,2.2-4.6c0-0.9-0.1-1.7-0.2-2.3
			c-0.1-0.6-0.6-1.3-1.3-2s-1.8-1.3-3.2-1.7l-7.5-2.2c-7.6-2.2-11.4-7-11.4-14.5c0-4.4,1.6-7.9,4.8-10.6c3.2-2.6,7.4-4,12.5-4
			c5.2,0,10.2,1.2,15.2,3.5c0,0.3,0,0.8,0,1.7c0,0.8-0.2,2.2-0.5,4.2c-0.3,2-0.8,3.6-1.5,4.9h-6.9
			C509.6,663.2,509.1,661.3,509,658.6z"/>
	</g>
	<path class="st0" d="M521.3,721.6H168.5c-2.3,0-4.1-1.9-4.1-4.1l0,0c0-2.3,1.9-4.1,4.1-4.1h352.8c2.3,0,4.1,1.9,4.1,4.1l0,0
		C525.4,719.8,523.5,721.6,521.3,721.6z"/>
	<path class="st0" d="M191.9,816.7c0,0,55.7,42.7,173.4,42.7s153.5-23.6,153.5-23.6v44.7c0,0-50.9,52.7-155.5,44.3
		c-153.7-12.4-166.4-65.3-171.5-73C186.8,844.1,191.9,816.7,191.9,816.7z"/>
	<path class="st0" d="M517.8,477.3c0,0,10.2-23-31.9-52.3c-42.1-29.3-154.4-37-209.2-20.4c-54.9,16.6-82.9,52.3-84.2,60
		c-1.3,7.7,0,51,0,51c5.1,3.8,72.7,52.3,152.5,57.4c79.7,5.1,174-32.5,174-32.5L517.8,477.3z M286.7,423.7l-11.5-4.5l11.5-3.2V423.7
		z M296,438.8l8.9-13.6l6.9,7.9L296,438.8z M338.2,413.7l-15.6-6.1l15.6-4.3V413.7z M347.4,439.8l-3.5-11.8l9.6,7.1L347.4,439.8z
		 M380,463.7l-5.2-17.6l14.2,10.6L380,463.7z M394.1,429.7l11.3-9.8l4.1,8.7L394.1,429.7z M452.9,432l-10.8-12.8l15.8,3.7L452.9,432
		z"/>
	<g>
		<path class="st0" d="M414.7,770.7c9.3,0,16.5,2.5,21.7,7.4s7.9,12.3,7.9,22.2c0,11.6-3.4,20.2-10.3,25.8
			c-6.8,5.6-16.4,8.4-28.7,8.4c-4,0-8.3-0.6-13-1.7c-4.7-1.1-8.4-2.5-10.9-4l4.5-12.3c5.4,2.1,11.2,3.1,17.4,3.1
			c6.2,0,10.9-1.3,14-3.8c3.1-2.5,4.7-6.7,4.7-12.3c0-7.6-1.8-12.7-5.4-15.2c-2.8-2-6.2-3-10.2-3s-9.1,0.5-15.4,1.4l-5.7-10.5h-0.1
			v-40.6h52.3v16.1h-34.6v19.8C405.9,770.9,409.8,770.7,414.7,770.7z"/>
	</g>
	<path class="st1" d="M175.8,823c0,0-77.2,2.6-45.9,35.7s95.1,68.9,214,79.7s201.2-17.2,220.4-34.4c19.1-17.2,18.5-36.4,0-47.2
		c-18.5-10.8-38.9-12.1-38.9-12.1"/>
	<g>
		<path class="st0" d="M240.5,778.4v19c1.8,0.7,3.1,1.6,4,2.7l-0.7,5.6h-14.2l-0.7-5.6c0.9-1.1,2.2-2,4-2.7V764
			c-2-0.7-3.3-1.6-4.1-2.7l0.7-5.6h14.9l14.4,28c1.1,2,2.1,4.7,3.1,8.1l0.5,1.7l0.8-0.3c-0.7-4.2-1-7.7-1-10.6v-18.7
			c-1.7-0.7-3.1-1.6-4-2.7l0.7-5.6H273l0.7,5.6c-0.9,1.2-2.2,2.1-4,2.7v41.6h-11.3l-14.5-28.3c-1.1-2-2.1-4.7-3.1-8.2l-0.5-1.7
			l-0.8,0.3C240.1,772.1,240.5,775.6,240.5,778.4z"/>
		<path class="st0" d="M296.3,806.2c-5.7,0-9.9-1.5-12.7-4.6c-2.7-3-4.1-7.6-4.1-13.8s1.5-10.8,4.6-14.1c3.1-3.3,7.5-4.9,13.2-4.9
			c5.7,0,10,1.4,12.8,4.3c2.8,2.9,4.2,7.4,4.2,13.6s-1.6,10.9-4.7,14.3C306.4,804.5,302,806.2,296.3,806.2z M289.9,787.3
			c0,7.7,2.3,11.6,6.9,11.6c2.4,0,4.1-0.9,5.2-2.6c1.1-1.8,1.7-4.6,1.7-8.6c0-7.5-2.4-11.3-7.1-11.3c-2.3,0-4,0.8-5.1,2.5
			C290.4,780.5,289.9,783.3,289.9,787.3z"/>
		<path class="st0" d="M343.1,806.1h-8l-11.9-28.2c-2.4-0.8-4-1.7-4.8-2.8l0.7-5.6h16.6l0.7,5.6c-0.6,0.8-1.7,1.5-3.1,2.1l3.9,10.9
			c0.9,2.3,1.5,4.5,1.9,6.7l0.1,1h1c0.4-2.4,1.1-4.9,2-7.6l3.8-10.7c-1.8-0.7-3-1.5-3.8-2.5l0.7-5.6H359l0.7,5.6
			c-0.9,1.1-2.5,2-4.8,2.8L343.1,806.1z"/>
		<path class="st0" d="M368.8,806.4c-4,0-6-1.8-6-5.5c0-3.6,2-5.5,6-5.5c4,0,6,1.8,6,5.5C374.9,804.6,372.9,806.4,368.8,806.4z"/>
	</g>
	<g>
		<path class="st0" d="M458.9,739.3v5.3h6v3.5h-6v10.7c0,0.9,0.1,1.6,0.4,2c0.3,0.4,0.9,0.6,1.8,0.6c1,0,2-0.2,3.1-0.6l1.3,3.3
			c-2.2,1.1-4.4,1.6-6.6,1.6c-2.3,0-3.8-0.5-4.6-1.5c-0.8-1-1.2-2.4-1.2-4.2v-11.8h-1.9l-0.5-2.6c0.4-0.5,1.4-1.1,2.8-1.6
			c0.3-2.3,1.1-3.9,2.4-4.7H458.9z"/>
		<path class="st0" d="M468.6,735.7c1.6-0.4,3-0.5,4.4-0.5c1.3,0,2.5,0,3.4,0.1v10.5c0.7-0.4,1.6-0.8,2.7-1.1c1.1-0.3,2.1-0.5,3-0.5
			c2.8,0,4.7,0.7,5.8,2c1.1,1.3,1.6,3.4,1.6,6.1v8.5c1.1,0.4,1.9,0.9,2.3,1.4l-0.4,3.2h-9.7l-0.4-3.2c0.4-0.5,1.2-1,2.3-1.4v-8.3
			c0-1.5-0.2-2.5-0.7-3c-0.5-0.5-1.4-0.8-2.7-0.8c-1.3,0-2.5,0.5-3.7,1.3V761c1.1,0.4,1.9,0.9,2.3,1.4l-0.4,3.2h-9.7l-0.4-3.2
			c0.4-0.5,1.2-1,2.3-1.4v-20.5c-1-0.3-1.8-0.8-2.3-1.4L468.6,735.7z"/>
	</g>
</g>
</svg>
