<?xml version="1.0" encoding="utf-8"?>
<!-- Generator: Adobe Illustrator 22.0.1, SVG Export Plug-In . SVG Version: 6.00 Build 0)  -->
<svg version="1.1" id="Layer_1" xmlns="http://www.w3.org/2000/svg" xmlns:xlink="http://www.w3.org/1999/xlink" x="0px" y="0px"
	 viewBox="0 0 1008.5 750" style="enable-background:new 0 0 1008.5 750;" xml:space="preserve">
<style type="text/css">
	.st0{fill:none;stroke:#000000;stroke-miterlimit:10;}
	.st1{fill:#FFFFFF;}
	.st2{fill:none;stroke:#FFFFFF;stroke-width:9.2023;stroke-miterlimit:10;}
	.st3{fill:none;stroke:#FFFFFF;stroke-width:2.3006;stroke-miterlimit:10;}
	.st4{stroke:#FFFFFF;stroke-width:2.3006;stroke-miterlimit:10;}
</style>
<g>
	<g>
		<path class="st1" d="M395.9,355.4c0,1.8-0.6,3.4-1.7,4.7c-1.1,1.3-2.6,2.2-4.6,2.6c-1.5,0.4-3,0.6-4.4,0.6
			c-1.4,0.1-5.4,0.1-12.1,0.1c-0.9,0-1.5,0-1.7,0c-0.2,0-0.3-0.1-0.3-0.3c0-0.3,0.5-0.4,1.4-0.4c0.9,0,1.5-0.1,1.8-0.4
			c0.2-0.3,0.3-1,0.3-2v-25c0-0.8-0.7-1.3-2-1.3c-1,0-1.5-0.2-1.5-0.4c0-0.2,0.3-0.4,1-0.4c0.6,0,1.2,0,1.8,0h10.5
			c6.7,0,10.1,2.3,10.1,6.9c0,3.8-2.5,6.2-7.5,7.1l-0.1,0.2c2.9,0.6,5,1.4,6.1,2.3C395,351.2,395.9,353.1,395.9,355.4z M388.9,355.2
			c0-4.1-1.2-6.5-3.5-7.2c-0.9-0.3-2.2-0.4-4-0.4v2.5c0,0.7,0,1.8-0.1,3.1c0,0.7,0,1.9,0,3.8c0,3.1,0.1,4.8,0.3,5
			c0.2,0.3,0.9,0.5,2,0.5C387.1,362.6,388.9,360.1,388.9,355.2z M388.1,340.3c0-4.2-1.3-6.3-3.9-6.3c-0.9,0-1.5,0-1.8,0.1
			c-0.6,0.2-0.9,0.7-0.9,1.4v11.5c2.5,0,4.3-0.4,5.2-1.4C387.6,344.7,388.1,342.9,388.1,340.3z"/>
		<path class="st1" d="M420.5,358c0,0.6-0.4,1.5-1.1,2.5c-1.6,2.2-3.8,3.4-6.4,3.4c-2.9,0-5.4-0.9-7.3-2.8c-1.9-1.9-2.8-4.3-2.8-7.2
			c0-2.9,0.9-5.2,2.8-7.1c1.8-1.9,4.1-2.9,6.9-2.9c1.9,0,3.5,0.4,4.8,1.2c1.5,0.9,2.4,2.2,2.8,3.9c0.1,0.5,0.2,1.2,0.3,1.9
			c-0.7,0.1-3.4,0.1-8.1,0.2c-0.7,0-1.6,0-2.8,0.1c-0.1,1-0.1,1.9-0.1,2.7c0,3.4,0.7,5.8,2.1,7.2c0.8,0.8,1.9,1.3,3.1,1.3
			c1,0,2-0.4,3-1c0.9-0.7,1.7-1.6,2.2-2.7c0.2-0.6,0.4-0.8,0.6-0.8C420.5,357.7,420.5,357.8,420.5,358z M415,350.3
			c0-2.2-0.1-3.8-0.5-4.6c-0.3-0.9-1-1.3-1.8-1.3c-1.8,0-2.8,2-3.1,5.9c0.6,0,1.9,0,3.8,0C414.1,350.3,414.6,350.3,415,350.3z"/>
		<path class="st1" d="M440.2,357.3c0,2-0.6,3.5-1.8,4.7c-1.2,1.2-2.7,1.8-4.6,1.8c-0.9,0-2-0.2-3.3-0.7c-1-0.4-1.7-0.6-2-0.6
			c-0.6,0-0.9,0.2-1.1,0.6c-0.2,0.4-0.3,0.6-0.4,0.6c-0.2,0-0.3-0.1-0.3-0.3c0-0.2,0-0.5,0.1-0.8c0.1-0.6,0.1-1.5,0.1-2.9
			c0-0.1,0-0.2,0-0.4c0-0.2,0-0.6,0-1v-0.7c0-0.3,0.1-0.5,0.2-0.5c0.2,0,0.3,0.2,0.4,0.7c0.3,1.5,1,2.8,2.2,3.9
			c1.2,1,2.6,1.6,4.1,1.6c1,0,1.7-0.3,2.3-0.9c0.6-0.6,0.9-1.4,0.9-2.3c0-0.8-0.3-1.4-0.8-1.9c-0.4-0.4-1.5-0.9-3.3-1.4
			c-2.2-0.7-3.8-1.6-4.7-2.6c-1-1-1.5-2.4-1.5-4c0-1.7,0.6-3.2,1.7-4.4c1.2-1.2,2.6-1.8,4.3-1.8c0.6,0,1.7,0.2,3.3,0.6
			c0.2,0.1,0.4,0.1,0.5,0.1c0.6,0,1.1-0.4,1.4-1.2c0.1-0.1,0.1-0.2,0.2-0.2c0.2,0,0.3,0.2,0.3,0.5l0,0.8c0,0.1,0,0.3,0,0.6
			c0,1.2,0.1,2.4,0.2,3.7v0.2c0,0.2-0.1,0.4-0.3,0.4c-0.1,0-0.3-0.1-0.4-0.4c-0.8-3-2.6-4.5-5.2-4.5c-1,0-1.8,0.3-2.4,0.8
			c-0.6,0.5-0.9,1.2-0.9,2c0,0.8,0.3,1.4,0.8,1.8c0.5,0.4,1.5,0.9,3.1,1.5c2.7,0.9,4.4,1.9,5.4,2.8
			C439.7,354.3,440.2,355.6,440.2,357.3z"/>
		<path class="st1" d="M460.1,360.5c0,0.3-0.3,0.7-0.8,1.3c-1.4,1.4-3.4,2.1-5.9,2.1c-2.3,0-3.8-0.6-4.6-1.7
			c-0.3-0.4-0.5-0.8-0.5-1.2c0-0.4-0.1-1.4-0.1-2.9v-2.1c0.1-0.6,0.1-1.1,0.1-1.7l-0.1-0.9v-3.9v-3.1c0-0.5-0.1-0.8-0.2-0.9
			c-0.1-0.1-0.6-0.1-1.3-0.1c-0.9,0-1.3-0.1-1.3-0.4c0-0.2,0.2-0.3,0.5-0.3c2.7-0.1,5.1-1.6,7.1-4.5c0.3-0.4,0.5-0.6,0.6-0.6
			c0.2,0,0.3,0.2,0.3,0.6c0,2.5,0.1,3.9,0.3,4.1c0.2,0.2,0.9,0.4,2.1,0.4c1.2,0,2.1-0.1,2.6-0.2c0.1,0,0.1,0,0.2,0
			c0.1,0,0.2,0.1,0.2,0.3c0,0.4-0.2,0.6-0.6,0.6c-1.2,0-2.5,0-3.9,0c-0.1,0-0.3,0-0.6,0v0.9c0,7.8,0.1,12.3,0.2,13.7
			c0.3,1.7,1.1,2.5,2.5,2.5c0.6,0,1.4-0.4,2.4-1.3c0.5-0.4,0.8-0.6,0.9-0.6C460.1,360.3,460.1,360.4,460.1,360.5z"/>
		<path class="st1" d="M494.9,354c0,3.1-1.2,5.6-3.7,7.6c-1.9,1.5-4,2.3-6.3,2.3c-2.7,0-5.1-1-7.1-2.9c-2-2-3-4.3-3-7
			c0-2.8,1-5.2,3-7.1c2-2,4.4-2.9,7.2-2.9c2.7,0,5,1,7,3C494,348.8,494.9,351.2,494.9,354z M488.3,354.1c0-3.6-0.2-6.1-0.7-7.4
			c-0.6-1.5-1.4-2.2-2.6-2.2c-1.1,0-2,0.8-2.6,2.3c-0.6,1.6-1,3.7-1,6.4c0,3.8,0.4,6.5,1.1,8.1c0.6,1.3,1.5,1.9,2.6,1.9
			c1.4,0,2.3-0.8,2.7-2.4C488.1,359.3,488.3,357,488.3,354.1z"/>
		<path class="st1" d="M517.9,336.7c0,0.8-0.2,1.4-0.7,1.9c-0.5,0.5-1.1,0.7-1.9,0.7c-0.8,0-1.4-0.2-1.9-0.7c-0.5-0.5-0.7-1-0.7-1.7
			c0-0.6,0.3-1.3,0.9-2.3c0.1-0.1,0.2-0.4,0.2-0.6c0-0.7-0.4-1-1.3-1c-0.7,0-1.3,0.4-1.7,1.1c-0.4,0.6-0.7,1.3-0.9,2.1
			c-0.2,0.8-0.3,2.2-0.3,4.2v4h3.1c0.3,0,0.5,0.1,0.5,0.3c0,0.1-0.1,0.2-0.3,0.3c-0.3,0.1-0.8,0.1-1.7,0.1c-0.2,0-0.8,0-1.7,0v15.4
			c0,1,0,1.5,0.1,1.7c0.1,0.3,0.6,0.5,1.4,0.4h1.3c0.4,0,0.6,0.1,0.6,0.4c0,0.2-0.2,0.3-0.6,0.3c-0.2,0-0.4,0-0.7,0
			c-0.9-0.1-2-0.1-3.3-0.1c-0.6,0-1.8,0-3.6,0.1c-1.8,0.1-2.8,0.1-3,0.1h-0.6c-0.3,0-0.5-0.1-0.5-0.3c0-0.2,0.5-0.4,1.5-0.4
			c0.8,0,1.2-0.1,1.4-0.3c0.1-0.2,0.2-0.7,0.2-1.7v-15.5h-2.3c-0.4,0-0.7-0.1-0.7-0.4c0-0.2,0.1-0.3,0.3-0.3c0.2,0,0.9,0,2.1,0h0.6
			v-0.9c0-1.7,0.3-3.5,0.9-5.1c0.6-1.7,1.4-2.9,2.4-3.8c1.4-1.3,3.2-2,5.3-2c1.7,0,3,0.4,4,1.2C517.4,334.5,517.9,335.5,517.9,336.7
			z"/>
	</g>
	<g>
		<path class="st1" d="M428.2,245.5c0,0.1-0.1,0.2-0.2,0.2c-0.1,0-0.2,0-0.2-0.1c0-0.1-0.1-0.4-0.3-0.9c-0.4-1.5-1.1-2.5-2.1-3
			c-0.6-0.3-1.7-0.4-3.4-0.4c-0.7,0-1.6,0-2.5,0.1v8.4h0.8c1.7,0,2.8-0.2,3.3-0.6c0.4-0.4,0.8-1.4,1-3.1c0-0.2,0.1-0.4,0.3-0.4
			s0.2,0.1,0.2,0.4c0-0.1,0,0,0,0.4c0,0.3,0,0.9,0,1.7v1.8c0,1.3,0,2.1,0,2.6c0,0.4,0,0.8,0,1.1s-0.1,0.4-0.3,0.4
			c-0.2,0-0.4-0.3-0.4-0.9c-0.1-1.3-0.4-2.2-1-2.6c-0.3-0.2-0.8-0.3-1.5-0.3c-0.9,0-1.7,0-2.4,0v6.7c0,1.2,0.1,1.9,0.3,2.1
			c0.2,0.2,0.8,0.3,1.9,0.3c0.3,0,0.5,0.1,0.5,0.2c0,0.2-0.2,0.2-0.5,0.2c-0.4,0-0.9,0-1.5,0c-1.1,0-2.4-0.1-3.9-0.1
			c-1,0-1.9,0-2.7,0.1c-0.1,0-0.2,0-0.4,0c-0.2,0-0.3-0.1-0.3-0.2c0-0.2,0.3-0.2,0.9-0.3c0.9,0,1.3-0.2,1.4-0.6
			c0.1-0.1,0.1-0.4,0.1-0.8v-16c0-0.3-0.1-0.4-0.3-0.5c-0.2-0.1-0.5-0.2-1.1-0.2c-0.5,0-0.8-0.1-0.8-0.2c0-0.2,0.2-0.3,0.6-0.3h0.5
			c0.1,0,0.8,0,2.1,0c1.5,0,2.8-0.1,3.9-0.1c1.7,0,3.1,0,4.3,0l1.9,0.1c0.3,0,0.7,0,1.3-0.1c0.1,2.2,0.3,3.7,0.4,4.5
			C428.2,245.2,428.2,245.3,428.2,245.5z"/>
		<path class="st1" d="M442.5,253.9c0,2-0.8,3.6-2.3,4.8c-1.2,1-2.5,1.4-4,1.4c-1.7,0-3.2-0.6-4.5-1.9s-1.9-2.7-1.9-4.4
			c0-1.8,0.6-3.3,1.9-4.5c1.3-1.2,2.8-1.9,4.6-1.9c1.7,0,3.2,0.6,4.4,1.9C441.9,250.6,442.5,252.2,442.5,253.9z M438.3,254
			c0-2.3-0.2-3.8-0.5-4.7c-0.3-0.9-0.9-1.4-1.7-1.4c-0.7,0-1.3,0.5-1.7,1.5c-0.4,1-0.6,2.3-0.6,4.1c0,2.4,0.2,4.1,0.7,5.1
			c0.4,0.8,0.9,1.2,1.6,1.2c0.9,0,1.4-0.5,1.7-1.5C438.2,257.2,438.3,255.8,438.3,254z"/>
		<path class="st1" d="M455.1,250.3c0,0.4-0.1,0.8-0.4,1.1c-0.3,0.3-0.6,0.4-1,0.4c-1,0-1.5-0.4-1.5-1.3c0-0.2,0.1-0.5,0.2-0.8
			c0.1-0.3,0.2-0.5,0.2-0.6c0-0.4-0.1-0.6-0.4-0.9c-0.3-0.2-0.6-0.4-1-0.4c-1.7,0-2.5,1.9-2.5,5.6c0,2.1,0.4,3.7,1.1,4.6
			c0.6,0.7,1.3,1,2.1,1c0.9,0,1.7-0.6,2.6-1.7c0.1-0.1,0.2-0.2,0.3-0.2c0.1,0,0.1,0.1,0.1,0.2c0,0.4-0.3,0.8-1,1.5
			c-1,0.9-2.1,1.4-3.5,1.4c-1.7,0-3.1-0.6-4.2-1.8c-1.2-1.2-1.8-2.6-1.8-4.3c0-1.8,0.6-3.4,1.8-4.7c1.2-1.3,2.8-1.9,4.6-1.9
			c1.2,0,2.1,0.3,2.9,0.8C454.7,248.9,455.1,249.5,455.1,250.3z"/>
		<path class="st1" d="M471.3,258.9c0,0.1-0.2,0.2-0.5,0.2c-1.7,0.1-2.8,0.1-3.5,0.3c-0.6,0.1-1.2,0.3-1.7,0.6
			c-0.1,0.1-0.2,0.1-0.3,0.1c-0.1,0-0.1-0.1-0.1-0.2c0-0.3,0-0.5,0-0.6c0-0.2,0-0.3,0-0.6c0-0.2,0-0.3,0-0.4
			c-1.2,1.2-2.4,1.8-3.8,1.8c-1.2,0-2.2-0.4-2.8-1.2c-0.4-0.5-0.7-1.4-0.7-2.7v-2c0-0.2,0-0.8,0-1.6c0-0.9,0-2.1,0-3.6
			c0-0.4-0.1-0.7-0.2-0.7c-0.1-0.1-0.4-0.1-1-0.2c-0.5,0-0.7-0.1-0.7-0.2c0-0.1,0.1-0.2,0.4-0.2h0.3c0.3,0,0.7,0,1.3,0
			c0.6,0,0.9,0,1.1,0c0,0,0.2,0,0.6,0c0.3,0,0.8,0,1.5,0h0.5v3c0,1.4,0,2.5-0.1,3.1c0,0.7-0.1,1-0.1,0.9c0,1.9,0.1,3.2,0.4,3.6
			c0.2,0.5,0.6,0.7,1.2,0.7c0.6,0,1.2-0.3,1.7-1c0.2-0.2,0.3-0.4,0.3-0.6c0-0.2,0-0.7,0-1.6v-4.8c0-1.3,0-2.2-0.1-2.4
			c0-0.4-0.3-0.5-0.7-0.5h-0.8c-0.3,0-0.4-0.1-0.4-0.2c0-0.1,0.5-0.2,1.5-0.2c0.9,0,2.2,0,4.1,0c0,0.7,0,1.8,0,3.4v5.6
			c0,0.9,0,1.4,0.1,1.5c0,0.2,0.2,0.3,0.4,0.3c0.2,0,0.7,0.1,1.5,0.1C471.2,258.7,471.3,258.7,471.3,258.9z"/>
		<path class="st1" d="M481.2,256c0,1.2-0.4,2.2-1.1,3c-0.8,0.8-1.7,1.1-2.9,1.1c-0.6,0-1.3-0.1-2.1-0.4c-0.7-0.2-1.1-0.4-1.3-0.4
			c-0.3,0-0.6,0.1-0.7,0.4c-0.1,0.3-0.2,0.4-0.2,0.4c-0.1,0-0.2-0.1-0.2-0.2c0-0.1,0-0.3,0-0.5c0-0.4,0.1-1,0.1-1.8c0,0,0-0.1,0-0.3
			c0-0.1,0-0.4,0-0.6v-0.5c0-0.2,0-0.3,0.1-0.3c0.1,0,0.2,0.1,0.2,0.4c0.2,1,0.6,1.8,1.4,2.4c0.8,0.7,1.6,1,2.6,1
			c0.6,0,1.1-0.2,1.5-0.6c0.4-0.4,0.6-0.9,0.6-1.5c0-0.5-0.2-0.9-0.5-1.2c-0.3-0.2-0.9-0.5-2.1-0.9c-1.4-0.5-2.4-1-3-1.7
			c-0.6-0.7-0.9-1.5-0.9-2.5c0-1.1,0.4-2,1.1-2.8c0.7-0.8,1.6-1.1,2.7-1.1c0.4,0,1.1,0.1,2.1,0.4c0.1,0,0.3,0.1,0.3,0.1
			c0.4,0,0.7-0.2,0.9-0.7c0-0.1,0.1-0.1,0.1-0.1c0.1,0,0.2,0.1,0.2,0.3l0,0.5c0,0.1,0,0.2,0,0.4c0,0.8,0,1.5,0.1,2.3v0.1
			c0,0.1-0.1,0.2-0.2,0.2c-0.1,0-0.2-0.1-0.2-0.2c-0.5-1.9-1.6-2.8-3.3-2.8c-0.6,0-1.1,0.2-1.5,0.5c-0.4,0.3-0.6,0.8-0.6,1.3
			c0,0.5,0.2,0.9,0.5,1.1c0.3,0.3,1,0.6,1.9,0.9c1.7,0.6,2.8,1.2,3.4,1.8C480.9,254.1,481.2,254.9,481.2,256z"/>
		<path class="st1" d="M506,250.3c0,2.8-0.9,5.1-2.6,7c-1.7,1.9-3.8,2.9-6.3,2.9c-2.4,0-4.5-1-6.3-2.9c-1.7-1.9-2.6-4.3-2.6-7
			c0-2.8,0.9-5.1,2.6-7c1.7-1.9,3.9-2.8,6.5-2.8c2.5,0,4.6,0.9,6.2,2.8C505.2,245.1,506,247.5,506,250.3z M501.2,250.7
			c0-3.7-0.4-6.4-1.3-8.1c-0.6-1.1-1.5-1.7-2.7-1.7c-1.3,0-2.3,0.8-3,2.4c-0.7,1.6-1.1,3.7-1.1,6.4c0,3.9,0.7,6.8,2,8.7
			c0.6,0.8,1.4,1.2,2.4,1.2c1.2,0,2.1-0.6,2.6-1.7C500.8,256.1,501.2,253.7,501.2,250.7z"/>
		<path class="st1" d="M522.7,259.6c0,0.1-0.2,0.2-0.7,0.2c0,0-0.3,0-0.7,0c-0.4,0-1.1,0-1.9,0h-0.9h-2.4c-0.3,0-0.4-0.1-0.4-0.2
			c0-0.1,0.1-0.2,0.3-0.2h0.2c0.5,0,0.7-0.1,0.8-0.2c0.1-0.1,0.1-0.5,0.1-1.2v-5.4c0-2-0.1-3.2-0.4-3.6c-0.2-0.3-0.6-0.5-1.2-0.5
			c-0.6,0-1,0.2-1.4,0.5c-0.4,0.3-0.5,0.8-0.5,1.3v8.3c0,0.2,0.1,0.4,0.2,0.4c0.1,0.1,0.4,0.1,0.9,0.1c0.1,0,0.2,0.1,0.2,0.2
			c0,0.1-0.1,0.2-0.2,0.2s-0.6,0-1.4,0c-0.8,0-1.4,0-2,0c-1,0-2,0.1-3.1,0.1c-0.2,0-0.3-0.1-0.3-0.2c0-0.1,0.3-0.2,0.8-0.2
			c0.6,0,0.9-0.1,1-0.3l0.1-0.4v-6.3c0-1.8,0-2.7-0.1-2.8c-0.1-0.3-0.3-0.4-0.7-0.4c-0.2,0-0.5,0-0.6,0h-0.3c-0.3,0-0.4-0.1-0.4-0.2
			c0-0.1,0.1-0.2,0.3-0.2c2.1-0.1,3.7-0.5,4.9-1.3c0.1-0.1,0.2-0.1,0.3-0.1c0.1,0,0.2,0.1,0.2,0.4c0,0.8,0,1.3,0,1.6
			c1-1.3,2.2-1.9,3.8-1.9c1.6,0,2.6,0.6,3.1,1.7c0.2,0.5,0.3,1,0.4,1.5c0,0.6,0.1,1.8,0.1,3.5v4c0,0.6,0,0.9,0.1,1
			c0.1,0.1,0.4,0.2,0.9,0.2C522.5,259.4,522.7,259.5,522.7,259.6z"/>
		<path class="st1" d="M547.4,259.5c0,0.1-0.1,0.2-0.2,0.3c-0.1,0-0.5,0-1.1,0c-0.1,0-0.6,0-1.2,0c-1.4,0-2.3-0.1-2.8-0.1
			c-0.6,0-1.1,0-1.6,0c-0.9,0-1.5,0.1-1.9,0.1c-0.5,0-0.7-0.1-0.7-0.3c0-0.2,0.5-0.3,1.6-0.3c0.3,0,0.5,0,0.6-0.1
			c0.3,0,0.4-0.1,0.4-0.3c0-0.1-0.1-0.5-0.3-1.2l-0.6-1.8c-0.1-0.4-0.3-1.1-0.7-2.2h-0.5h-2.2c-0.8,0-1.6,0-2.5,0
			c-0.2,0.4-0.5,1.2-0.9,2.5l-0.6,1.8c-0.1,0.3-0.1,0.5-0.1,0.7c0,0.3,0.2,0.5,0.6,0.6c0.1,0,0.5,0.1,1.4,0.1c0.3,0,0.4,0.1,0.4,0.2
			c0,0.2-0.2,0.2-0.5,0.2h-4.6c-0.1,0-0.2,0-0.4,0c-0.3,0-0.4-0.1-0.4-0.3c0-0.1,0.3-0.2,0.9-0.2c0.7,0,1.2-0.2,1.4-0.4
			c0.2-0.2,0.5-1,1-2.3c0.4-0.9,0.9-2.3,1.5-4.1l3.3-9.2c0.2-0.4,0.4-1,0.7-1.9c0.2-0.6,0.4-0.9,0.5-0.9c0.1,0,0.3,0.4,0.6,1.3
			c0.4,1.1,2,5.4,4.9,12.9c0.4,1,0.7,1.9,1.1,2.9c0.3,0.8,0.6,1.4,0.9,1.5c0.2,0.1,0.8,0.2,1.7,0.2
			C547.3,259.3,547.4,259.3,547.4,259.5z M538.6,253c0-0.1-0.1-0.2-0.2-0.5c-0.7-2.1-1.3-3.6-1.6-4.5c-0.1-0.2-0.2-0.6-0.4-1.1
			l-0.2-0.5c-0.3,0.8-0.7,1.9-1.2,3.3c-0.5,1.6-0.9,2.7-1.2,3.3c0.2,0,0.4,0,0.6,0c0.2,0,0.4,0,0.6,0h1.5
			C537.1,253,537.7,253,538.6,253z"/>
		<path class="st1" d="M563.1,249.3c0,1-0.5,1.5-1.4,1.5c-0.9,0-1.3-0.4-1.3-1.2c0-0.1,0-0.3,0.1-0.4c0.1-0.2,0.1-0.3,0.1-0.4
			c0-0.3-0.2-0.5-0.5-0.5c-0.2,0-0.4,0.1-0.6,0.3c-0.2,0.2-0.3,0.4-0.3,0.6c0,0.1,0.1,0.3,0.2,0.6c0.4,0.7,0.5,1.3,0.5,1.9
			c0,1.4-0.6,2.5-1.9,3.5c-1,0.7-2.2,1-3.6,1c-0.6,0-1.3-0.1-2-0.4c-0.2-0.1-0.4-0.1-0.5-0.1c-0.3,0-0.6,0.1-0.9,0.3
			c-0.2,0.2-0.4,0.5-0.4,0.8c0,0.7,0.5,1,1.6,1c0.8,0,2-0.1,3.5-0.3c0.4-0.1,0.8-0.1,1.1-0.1c1.2,0,2.2,0.3,2.9,0.9
			c0.7,0.6,1,1.5,1,2.6c0,1.8-0.7,3.2-2.1,4.3c-1.4,1.1-3.3,1.6-5.6,1.6c-1.7,0-3-0.3-3.9-0.9c-1-0.6-1.5-1.4-1.5-2.4
			c0-1.5,1.1-2.5,3.4-2.8c-1.3-0.5-2-1.3-2-2.4c0-1.5,0.9-2.5,2.6-3c-1.7-0.9-2.5-2.1-2.5-3.6c0-1.2,0.5-2.3,1.6-3.1
			c1.1-0.8,2.4-1.3,3.9-1.3c1.8,0,3.2,0.5,4.2,1.5c0.7-0.9,1.5-1.4,2.5-1.4C562.4,247.6,563.1,248.2,563.1,249.3z M559.2,262.7
			c0-1.4-0.8-2-2.4-2c-0.8,0-1.8,0.1-3,0.3c-0.9,0.1-1.6,0.2-2,0.2h-0.4c-0.5,0.6-0.8,1.4-0.8,2.3c0,2,1.3,2.9,3.8,2.9
			c1.4,0,2.5-0.4,3.4-1.1C558.8,264.6,559.2,263.7,559.2,262.7z M556.5,252c0-2.8-0.7-4.2-2-4.2s-2,1.3-2,3.8c0,1.5,0.2,2.6,0.5,3.3
			c0.3,0.7,0.9,1,1.7,1c0.7,0,1.2-0.3,1.5-0.8C556.4,254.5,556.5,253.5,556.5,252z"/>
		<path class="st1" d="M570.5,259.6c0,0.1-0.1,0.2-0.2,0.2h-3.7H564c-0.1,0-0.2,0-0.4,0c-0.1,0-0.2,0-0.2,0c-0.2,0-0.3-0.1-0.3-0.2
			c0-0.1,0.2-0.1,0.6-0.2c0.6,0,1-0.1,1.1-0.2c0.1-0.1,0.2-0.5,0.2-1.1v-8c0-0.7-0.1-1.1-0.2-1.3c-0.1-0.1-0.5-0.2-1.1-0.2
			c-0.4,0-0.6,0-0.7,0c-0.1,0-0.1-0.1-0.1-0.2c0-0.1,0.1-0.2,0.4-0.2c2,0,3.8-0.3,5.2-0.9c0,0.2,0.1,0.8,0.1,1.8v3.5v5.2
			c0,0.8,0.1,1.2,0.2,1.3c0.1,0.1,0.6,0.2,1.4,0.2C570.4,259.4,570.5,259.5,570.5,259.6z M568.6,242.1c0,0.5-0.2,1-0.5,1.3
			c-0.4,0.4-0.8,0.6-1.3,0.6c-0.5,0-1-0.2-1.3-0.5c-0.4-0.4-0.5-0.8-0.5-1.3c0-0.5,0.2-0.9,0.5-1.3c0.4-0.3,0.8-0.5,1.4-0.5
			c0.5,0,0.9,0.2,1.3,0.5C568.4,241.2,568.6,241.6,568.6,242.1z"/>
		<path class="st1" d="M586.4,259.6c0,0.1-0.2,0.2-0.7,0.2c0,0-0.3,0-0.7,0c-0.4,0-1.1,0-1.9,0h-0.9h-2.4c-0.3,0-0.4-0.1-0.4-0.2
			c0-0.1,0.1-0.2,0.3-0.2h0.2c0.5,0,0.7-0.1,0.8-0.2c0.1-0.1,0.1-0.5,0.1-1.2v-5.4c0-2-0.1-3.2-0.4-3.6c-0.2-0.3-0.6-0.5-1.2-0.5
			s-1,0.2-1.4,0.5c-0.4,0.3-0.5,0.8-0.5,1.3v8.3c0,0.2,0.1,0.4,0.2,0.4c0.1,0.1,0.4,0.1,0.9,0.1c0.1,0,0.2,0.1,0.2,0.2
			c0,0.1-0.1,0.2-0.2,0.2c-0.1,0-0.6,0-1.4,0c-0.8,0-1.4,0-2,0c-1,0-2,0.1-3.1,0.1c-0.2,0-0.3-0.1-0.3-0.2c0-0.1,0.3-0.2,0.8-0.2
			c0.6,0,0.9-0.1,1-0.3l0.1-0.4v-6.3c0-1.8,0-2.7-0.1-2.8c-0.1-0.3-0.3-0.4-0.7-0.4c-0.2,0-0.5,0-0.6,0h-0.3c-0.3,0-0.4-0.1-0.4-0.2
			c0-0.1,0.1-0.2,0.3-0.2c2.1-0.1,3.7-0.5,4.9-1.3c0.1-0.1,0.2-0.1,0.3-0.1c0.1,0,0.2,0.1,0.2,0.4c0,0.8,0,1.3,0,1.6
			c1-1.3,2.2-1.9,3.8-1.9c1.6,0,2.6,0.6,3.1,1.7c0.2,0.5,0.3,1,0.4,1.5c0,0.6,0.1,1.8,0.1,3.5v4c0,0.6,0,0.9,0.1,1
			c0.1,0.1,0.4,0.2,0.9,0.2C586.1,259.4,586.4,259.5,586.4,259.6z"/>
		<path class="st1" d="M602.2,249.3c0,1-0.5,1.5-1.4,1.5c-0.9,0-1.3-0.4-1.3-1.2c0-0.1,0-0.3,0.1-0.4c0.1-0.2,0.1-0.3,0.1-0.4
			c0-0.3-0.2-0.5-0.5-0.5c-0.2,0-0.4,0.1-0.6,0.3c-0.2,0.2-0.3,0.4-0.3,0.6c0,0.1,0.1,0.3,0.2,0.6c0.4,0.7,0.5,1.3,0.5,1.9
			c0,1.4-0.6,2.5-1.9,3.5c-1,0.7-2.2,1-3.6,1c-0.6,0-1.3-0.1-2-0.4c-0.2-0.1-0.4-0.1-0.5-0.1c-0.3,0-0.6,0.1-0.9,0.3
			c-0.2,0.2-0.4,0.5-0.4,0.8c0,0.7,0.5,1,1.6,1c0.8,0,2-0.1,3.5-0.3c0.4-0.1,0.8-0.1,1.1-0.1c1.2,0,2.2,0.3,2.9,0.9
			c0.7,0.6,1,1.5,1,2.6c0,1.8-0.7,3.2-2.1,4.3c-1.4,1.1-3.3,1.6-5.6,1.6c-1.7,0-3-0.3-3.9-0.9c-1-0.6-1.5-1.4-1.5-2.4
			c0-1.5,1.1-2.5,3.4-2.8c-1.3-0.5-2-1.3-2-2.4c0-1.5,0.9-2.5,2.6-3c-1.7-0.9-2.5-2.1-2.5-3.6c0-1.2,0.5-2.3,1.6-3.1
			c1.1-0.8,2.4-1.3,3.9-1.3c1.8,0,3.2,0.5,4.2,1.5c0.7-0.9,1.5-1.4,2.5-1.4C601.6,247.6,602.2,248.2,602.2,249.3z M598.4,262.7
			c0-1.4-0.8-2-2.4-2c-0.8,0-1.8,0.1-3,0.3c-0.9,0.1-1.6,0.2-2,0.2h-0.4c-0.5,0.6-0.8,1.4-0.8,2.3c0,2,1.3,2.9,3.8,2.9
			c1.4,0,2.5-0.4,3.4-1.1C597.9,264.6,598.4,263.7,598.4,262.7z M595.7,252c0-2.8-0.7-4.2-2-4.2s-2,1.3-2,3.8c0,1.5,0.2,2.6,0.5,3.3
			c0.3,0.7,0.9,1,1.7,1c0.7,0,1.2-0.3,1.5-0.8C595.6,254.5,595.7,253.5,595.7,252z"/>
	</g>
	<g>
		<path class="st1" d="M406,448.5c0-4,0.6-7.7,1.9-11c1.2-3.4,2.8-6.4,4.6-9.1s4.2-5.9,7.2-9.5c3-3.8,5.4-7,7.2-9.6s3.3-5.7,4.6-9.1
			c1.2-3.4,1.9-7.1,1.9-11.1c0-2.4-0.3-4.2-1-5.5c-0.7-1.3-1.9-2-3.6-2c-2.9,0-4.4,2.6-4.4,7.8V400H406l-0.2-5.4
			c0-6.6,0.7-12,2-16.3c1.3-4.3,3.7-7.5,7.1-9.7c3.4-2.2,8-3.3,14-3.3c7.3,0,12.9,2,16.9,6.1c4,4.1,6,9.9,6,17.4c0,4.8-0.7,9.1-2,13
			c-1.3,3.9-2.9,7.3-4.9,10.2c-1.9,2.9-4.5,6.3-7.6,10.2c-2.3,2.8-4.2,5.2-5.7,7.4c-1.5,2.2-2.9,4.4-4.1,6.7h23.7v16.4H406V448.5z"
			/>
		<path class="st1" d="M469.1,447.2c-4-4.2-6-10.1-6-17.8v-39.3c0-8.2,1.9-14.5,5.8-18.8c3.8-4.3,9.6-6.5,17.2-6.5
			c7.7,0,13.5,2.2,17.3,6.5c3.8,4.3,5.8,10.6,5.8,18.8v39.3c0,7.8-2,13.7-6,17.8c-4,4.1-9.7,6.2-17.1,6.2
			C478.7,453.4,473,451.4,469.1,447.2z M489.2,435.7c0.8-1.2,1.2-2.6,1.2-4.2v-42.9c0-2.5-0.3-4.4-0.9-5.7c-0.6-1.3-1.7-2-3.5-2
			c-1.8,0-2.9,0.7-3.4,2c-0.5,1.3-0.8,3.2-0.8,5.7v42.9c0,1.6,0.4,3,1.2,4.2c0.8,1.2,1.8,1.8,3.1,1.8
			C487.3,437.5,488.4,436.9,489.2,435.7z"/>
		<path class="st1" d="M531.1,385.6c-1.1,1.4-2.7,2.6-4.8,3.4c-2.1,0.9-4,1.3-5.9,1.3v-13.9c3-0.5,5.9-1.7,8.9-3.5
			c2.9-1.9,5-4.4,6.3-7.4h14v87.1h-18.4V385.6z"/>
		<path class="st1" d="M563.8,448.5c0-4,0.6-7.7,1.9-11c1.2-3.4,2.8-6.4,4.6-9.1c1.8-2.7,4.2-5.9,7.2-9.5c3-3.8,5.5-7,7.2-9.6
			s3.3-5.7,4.6-9.1c1.2-3.4,1.9-7.1,1.9-11.1c0-2.4-0.3-4.2-1-5.5c-0.7-1.3-1.9-2-3.6-2c-2.9,0-4.4,2.6-4.4,7.8V400h-18.3l-0.2-5.4
			c0-6.6,0.7-12,2-16.3c1.3-4.3,3.7-7.5,7.1-9.7c3.4-2.2,8-3.3,14-3.3c7.3,0,12.9,2,16.9,6.1c4,4.1,6,9.9,6,17.4c0,4.8-0.7,9.1-2,13
			c-1.3,3.9-2.9,7.3-4.9,10.2c-1.9,2.9-4.5,6.3-7.6,10.2c-2.3,2.8-4.2,5.2-5.7,7.4c-1.5,2.2-2.9,4.4-4.1,6.7H609v16.4h-45.1V448.5z"
			/>
	</g>
	<g>
		<path class="st1" d="M453.2,450.2c0.6,0,0.8,0.1,0.8,0.4c0,0.2-0.3,0.4-0.8,0.7c-0.5,0.2-1.1,0.7-1.9,1.3
			c-0.7,0.6-1.5,1.4-2.4,2.5c-0.9,1-1.9,2.3-3,3.9l-3.8,5.6c-8.2,12.8-17.3,19.2-27.4,19.2c-2.3,0-4.2-0.5-5.9-1.5
			c-1.7-1-2.5-2.2-2.5-3.5c0-1.5,0.7-2.4,2.1-2.7c0.4-0.1,0.8-0.2,1.1-0.2c0.4,0,0.8,0.1,1.1,0.4c0.4,0.2,0.6,0.6,0.6,1.2
			c0,0.5-0.2,1-0.6,1.3c-0.4,0.3-0.9,0.5-1.6,0.5c-0.6,0-1.1-0.1-1.5-0.3v0.2c0,1.7,1.4,2.9,4.3,3.5c0.9,0.2,2,0.3,3.3,0.3
			c1.3,0,2.6-0.3,4.1-0.8c1.4-0.5,2.9-1.4,4.5-2.5c3.2-2.4,6.9-6.4,11-12c1.6-2,2.8-3.5,3.7-4.5c2.3-2.6,3.7-4.3,4.5-5.1
			c-6.7,4.8-12.1,7.2-16.2,7.2c-1.7,0-2.9-0.2-3.5-0.7c-1.1-0.8-1.6-1.9-1.6-3.4c0-0.4,0.1-1,0.2-1.8c-0.9,0.1-1.9,0.1-3.1,0.1
			c-2.5,0-4.8-0.6-6.8-1.7c-0.6-0.3-0.9-0.6-0.9-0.8c0-0.2,0.1-0.3,0.2-0.3c0.2,0,0.4,0.1,0.9,0.3c0.4,0.2,0.9,0.5,1.5,0.7
			c0.6,0.2,1.2,0.4,1.8,0.6c1.1,0.3,2.3,0.5,3.6,0.5c1.2,0,2.2,0,3-0.1c0.9-3.6,3.2-7.5,7-11.5c3.6-3.8,7.7-7,12.5-9.6
			c4.8-2.7,9.1-4,12.7-4c1.5,0,2.6,0.2,3.3,0.7c0.6,0.5,1,1.3,1,2.5c0,1.2-0.5,2.6-1.6,4.1c-1.1,1.6-2.5,3.2-4.5,4.8
			c-4,3.4-9.2,6.7-15.7,9.6c-3.7,1.6-7.3,2.8-11,3.5c-0.7,1.4-1.1,2.5-1.1,3c0,0.6,0,1,0.1,1.2c0.1,0.2,0.2,0.4,0.5,0.6
			c0.5,0.4,1.2,0.6,2.2,0.6c1,0,2.2-0.2,3.4-0.6c1.3-0.4,2.7-1,4.4-1.9c3.4-1.8,7.6-4.6,12.6-8.5
			C450.5,451.3,452.3,450.2,453.2,450.2z M457.7,436.2c0-1.3-0.9-1.9-2.7-1.9c-4,0-9.3,2.8-15.8,8.5c-4.1,3.6-7.7,7.5-10.7,11.6
			c-0.9,1.3-1.7,2.4-2.3,3.6c3.2-0.8,6.6-2.1,10.1-3.9c3.5-1.8,6.6-3.6,9.1-5.4c2.5-1.8,4.7-3.4,6.5-5.1
			C455.8,440.2,457.7,437.7,457.7,436.2z"/>
		<path class="st1" d="M447.5,481.6c0,0.8,0.6,1.1,1.7,1.1s2.3-0.3,3.6-0.9c1.3-0.6,2.5-1.3,3.8-2.2c1.2-0.9,2.4-1.9,3.6-3
			c1.2-1.1,2.2-2.1,3.2-3.1l2.4-2.6c0.6-0.7,1.1-1.2,1.3-1.5l0.7,0.6c-0.3,0.3-0.7,0.8-1.4,1.5c-0.7,0.8-1.5,1.6-2.5,2.6
			c-1,1-2.1,2.1-3.3,3.2c-1.2,1.1-2.5,2.1-3.8,3.1c-3.1,2.1-5.8,3.2-8.1,3.2c-1,0-1.8-0.3-2.4-0.8c-0.6-0.5-1-1.1-1-1.7
			c0-0.6,0-1.1,0.1-1.5c0.1-0.4,0.2-0.8,0.4-1.3c0.2-0.5,0.5-1,0.8-1.7c0.3-0.6,0.8-1.4,1.4-2.3l5.3-7.9l26.9-38.5
			c1.7,0.2,3.3,0.2,4.8,0c-22.1,30.8-33.6,46.8-34.4,47.9c-0.8,1.2-1.4,2.1-1.7,2.6c-0.4,0.6-0.6,1.1-0.8,1.4
			C447.6,480.7,447.5,481.2,447.5,481.6z"/>
		<path class="st1" d="M480.2,480.6c-1.5,0.9-3.1,1.7-4.8,2.3c-1.7,0.6-3.3,0.9-4.9,0.9c-1.5,0-2.7-0.2-3.5-0.5
			c-0.8-0.3-1.5-0.8-2-1.3c-2.2-2.4-2.2-5.9,0-10.5c1-2,2.4-3.9,4.3-5.6c1.9-1.7,3.6-2.9,5.1-3.8c2.8-1.6,5.5-2.4,8-2.4
			c2.5,0,3.7,0.8,3.9,2.3c0.2,2.5-2.9,5.2-9.1,8.1c-2.3,1.1-5.1,2.2-8.6,3.3c-1.4,2.2-2.1,4-2.1,5.4c0,1.4,0.4,2.4,1.1,3
			c0.7,0.6,1.8,0.9,3.2,0.9c1.4,0,2.9-0.3,4.6-0.9c1.6-0.6,3.2-1.4,4.6-2.3c1.4-0.9,2.7-1.9,3.9-3c1.2-1.1,2.2-2.1,3.1-3.1
			c0.9-1,1.6-1.9,2.2-2.6c0.6-0.7,1-1.2,1.2-1.4l0.7,0.6c-0.3,0.3-0.8,0.8-1.4,1.6c-0.6,0.8-1.4,1.7-2.3,2.7c-0.9,1-2,2.1-3.2,3.2
			C483,478.7,481.7,479.7,480.2,480.6z M469.5,472.3c7-2.5,11.5-4.9,13.5-7.3c0.7-0.8,1-1.6,1-2.4c0-1.3-0.6-2-1.8-2
			c-2.1,0-4.8,1.9-8,5.6C472,468.8,470.4,470.9,469.5,472.3z"/>
		<path class="st1" d="M491.5,483c-0.6-0.1-1.3-0.2-2.1-0.2c-1.2,0-2.3,0.1-3.2,0.3l12.1-17.3c1.5-2.1,2.3-3.4,2.3-3.8
			c0.1-0.8-0.2-1.1-0.7-1.1c-0.9,0-3,2.1-6.4,6.4l-2.2,2.7c-0.2,0.1-0.4,0-0.6-0.2c-0.2-0.2-0.2-0.3-0.2-0.4
			c0.7-0.7,1.4-1.6,2.3-2.7c0.8-1.1,1.7-2.2,2.7-3.2c2.3-2.5,4.2-3.8,5.7-3.8c2.6,0,3.4,1.3,2.4,3.9c-0.2,0.6-0.6,1.3-1.2,2.2
			l-7.3,10.2l0.2,0.4c5.9-6.4,10-10.6,12.5-12.7c2.3-2,4.1-3.1,5.2-3.4c1.1-0.3,2.1-0.5,2.8-0.5c0.7,0,1.4,0.1,1.9,0.3
			c0.5,0.2,0.9,0.5,1.3,0.8c0.6,0.6,0.9,1.3,0.9,2.2c0,0.8-0.2,1.7-0.5,2.6c-0.3,0.9-0.8,1.9-1.6,3.1c-1.6,2.5-4.2,5.7-7.9,9.7
			c-1.5,1.6-2.3,2.5-2.4,2.8c-0.1,0.3-0.1,0.5-0.1,0.6c0,0.5,0.7,0.8,2.1,0.8c1.4,0,2.8-0.3,4-0.9c1.2-0.6,2.5-1.3,3.7-2.2
			c1.2-0.9,2.3-1.9,3.4-3c1.1-1.1,2-2.1,2.9-3.1c0.9-1,1.6-1.8,2.2-2.6c0.6-0.7,1-1.2,1.2-1.4l0.7,0.6c-0.2,0.3-0.7,0.8-1.3,1.5
			c-0.6,0.8-1.4,1.6-2.2,2.6c-0.9,1-1.9,2.1-3,3.2c-1.1,1.1-2.3,2.1-3.6,3.1c-2.9,2.1-5.6,3.2-7.9,3.2c-2.1,0-3.5-0.5-4.4-1.6
			c-0.3-0.3-0.4-0.7-0.4-1.2s0.1-0.9,0.2-1.5c0.1-0.6,0.4-1.3,0.9-2.2c1.1-1.9,2.6-3.9,4.6-6.2c2-2.3,3.3-3.8,4-4.6
			c0.6-0.8,1.1-1.5,1.5-2.1c0.7-1.1,1-2,1-2.6c0-0.8-0.6-1.3-1.7-1.3c-2.3,0-6.1,2.6-11.4,7.8c-2.7,2.6-5.7,6-9.2,10.3L491.5,483z"
			/>
		<path class="st1" d="M535.2,460c1.1,0.1,2.1,0.2,3.1,0.2c1,0,1.7,0,2.4-0.1c-2.1,1.9-3.6,3.4-4.6,4.5l-4.7,5.2
			c-0.4,0.4-0.9,0.9-1.5,1.5l-3.9,4.2c-2.5,2.7-3.7,4.5-3.7,5.5c0,0.9,0.2,1.5,0.5,1.6c0.3,0.2,1,0.2,1.9,0.2c0.9,0,2.1-0.3,3.6-0.8
			c1.5-0.5,2.9-1.3,4.5-2.1c2.7-1.6,5.2-3.4,7.4-5.3c2.2-1.9,3.6-3.4,4.4-4.3c0.8-1,1.3-1.9,1.7-2.8c0.7-1.5,1-3.3,1-5.5
			c0-0.9,0.3-1.6,0.8-2.1c0.5-0.5,1.2-0.8,2-0.8c1.3,0,2,0.6,2,1.9c0,2.6-2.3,6.2-6.9,10.7l-0.9,0.9c-1.4,2-1.8,3.3-1.1,4.1
			c0.3,0.3,0.7,0.4,1.4,0.4c0.7,0,1.6-0.3,2.6-0.9c1-0.6,2-1.3,2.9-2.1c1-0.8,1.9-1.6,2.7-2.5l1.9-2l0.7,0.6
			c-4.8,5.1-8.5,7.7-11.2,7.7c-1.1,0-1.9-0.3-2.1-1c-0.3-0.7-0.2-1.6,0.3-2.7c-5,4.2-9.7,7.1-14.1,8.7c-1.6,0.6-3.1,0.9-4.4,0.9
			c-1.3,0-2.3-0.3-3-0.8c-0.6-0.5-1-1.2-1-1.9s0.1-1.4,0.2-2.1c0.2-0.6,0.5-1.4,1-2.2c0.9-1.6,2.3-3.6,4.2-6
			c1.9-2.4,3.6-4.4,5.1-5.9L535.2,460z"/>
		<path class="st1" d="M550.5,481.6c0,0.7,0.7,1.1,2.1,1.1c1.4,0,2.7-0.3,3.9-0.9c1.2-0.6,2.4-1.4,3.7-2.4c1.2-0.9,2.4-2,3.6-3.1
			l3.1-3.1c0.9-1,1.7-1.8,2.3-2.5c0.6-0.7,1-1.1,1.1-1.2l0.7,0.6c-0.2,0.2-0.7,0.7-1.3,1.5c-0.6,0.8-1.4,1.6-2.4,2.6
			c-1,1-2,2.1-3.2,3.2c-1.2,1.1-2.4,2.1-3.7,3.1c-3,2.2-5.6,3.2-7.9,3.2c-1.4,0-2.6-0.3-3.4-0.8c-0.9-0.5-1.3-1.1-1.3-1.8
			c0-0.7,0.1-1.3,0.2-1.8s0.4-1.2,0.8-1.9c0.4-0.7,0.9-1.6,1.6-2.6c0.7-1,1.5-2.2,2.6-3.6c1.1-1.4,2.3-3,3.8-4.8l5.4-6.3
			c0.3,0.1,0.8,0.1,1.7,0.1h1.6c0.6,0,1.1,0,1.5-0.1c-7.7,9.2-12,14.4-13,15.7s-1.7,2.3-2.1,3C550.9,479.9,550.5,480.9,550.5,481.6z
			 M572.6,452.2c-0.3,0.3-0.7,0.5-1.1,0.7c-0.4,0.2-0.9,0.3-1.4,0.3c-0.5,0-1-0.2-1.4-0.6c-0.4-0.4-0.6-0.9-0.6-1.4
			c0-0.5,0.1-1,0.3-1.4c0.2-0.4,0.4-0.7,0.8-1c0.7-0.7,1.4-1,2.2-1c0.8,0,1.4,0.2,1.8,0.6c0.4,0.4,0.6,0.9,0.6,1.4
			c0,0.5-0.1,1-0.3,1.4S573,451.9,572.6,452.2z"/>
		<path class="st1" d="M583.4,480.6c-1.5,0.9-3.1,1.7-4.8,2.3c-1.7,0.6-3.3,0.9-4.9,0.9s-2.7-0.2-3.5-0.5c-0.8-0.3-1.5-0.8-2-1.3
			c-2.2-2.4-2.2-5.9,0-10.5c1-2,2.4-3.9,4.3-5.6c1.9-1.7,3.6-2.9,5.1-3.8c2.8-1.6,5.5-2.4,8-2.4c2.5,0,3.7,0.8,3.9,2.3
			c0.2,2.5-2.9,5.2-9.1,8.1c-2.3,1.1-5.1,2.2-8.6,3.3c-1.4,2.2-2.1,4-2.1,5.4c0,1.4,0.4,2.4,1.1,3c0.7,0.6,1.8,0.9,3.2,0.9
			c1.4,0,2.9-0.3,4.6-0.9c1.6-0.6,3.2-1.4,4.6-2.3c1.4-0.9,2.7-1.9,3.9-3c1.2-1.1,2.2-2.1,3.1-3.1c0.9-1,1.6-1.9,2.2-2.6
			c0.6-0.7,1-1.2,1.2-1.4l0.7,0.6c-0.3,0.3-0.8,0.8-1.4,1.6s-1.4,1.7-2.3,2.7c-0.9,1-2,2.1-3.2,3.2
			C586.3,478.7,584.9,479.7,583.4,480.6z M572.8,472.3c7-2.5,11.5-4.9,13.5-7.3c0.7-0.8,1-1.6,1-2.4c0-1.3-0.6-2-1.8-2
			c-2.1,0-4.8,1.9-8,5.6C575.3,468.8,573.7,470.9,572.8,472.3z"/>
		<path class="st1" d="M595.1,473.6c-4.2,4.5-6.3,7.4-6.3,8.4c0,0.5,0.3,0.7,0.8,0.7c0.5,0,1.1-0.1,1.8-0.3c0.7-0.2,1.4-0.5,2.3-0.9
			c1.8-0.9,3.8-2.1,5.9-3.7c3.7-2.7,6.8-5.5,9.1-8.2l0.9-1.1v0c2.2-2.6,5-5.5,8.2-8.6c1.1,0.1,2,0.2,2.6,0.2c1.3,0,2.2,0,2.7-0.1
			l-12.4,13.2l-3.7,4.1c-1.9,2.3-2.8,3.7-2.8,4.5c0,0.5,0.3,0.8,1,0.8c0.7,0,1.7-0.3,3-0.8c1.3-0.5,2.8-1.2,4.3-2.1
			c4.6-2.6,8.7-6.1,12.3-10.4c1.5-1.8,2.3-3.2,2.6-4.3c0.2-1.1,0.3-2.1,0.3-3.1c0-0.9,0.2-1.7,0.7-2.4c0.4-0.7,1-1,1.8-1
			c1.5,0,2.3,0.8,2.3,2.3c0,2.5-2.3,6.1-6.9,10.7c-0.4,0.4-0.8,0.8-1.3,1.3l-1.5,1.3c-0.7,1.9-0.3,2.8,1.4,2.8
			c2.3,0,5.7-2.5,9.9-7.4l0.8,0.6l-2.2,2.3c-3.5,3.6-6.5,5.4-8.8,5.4c-0.9,0-1.6-0.2-2-0.7c-0.4-0.5-0.5-1.1-0.3-1.9
			c-4.7,3.7-9.2,6.3-13.3,7.8c-1.4,0.5-2.5,0.8-3.5,0.8c-1.5,0-2.2-0.8-2.2-2.3c0-1.8,0.8-4,2.4-6.6l-2.2,1.9c-5.6,4.6-10,7-13.2,7
			c-1.5,0-2.3-0.7-2.3-2.2c0-3.4,2.9-8.4,8.8-15c1.9-2.1,4-4.3,6.4-6.5c0.9,0.1,1.6,0.2,2.2,0.2h1.2c0.9,0,1.6,0,1.9-0.1l-8.8,9.3
			L595.1,473.6z"/>
	</g>
	<polygon class="st2" points="303.3,341.4 366.2,215.7 506.5,149.7 641.1,201.1 709.7,358.3 644.5,516.3 506.5,570.7 358.5,507.1 	
		"/>
	<polygon class="st3" points="297.1,273.2 415.2,149.7 581.6,141.3 714.3,267.8 722.7,452.6 593.1,575.3 418.3,575.3 303.3,460.3 
		291,362.5 	"/>
	<line class="st4" x1="407.4" y1="273.2" x2="612" y2="273.2"/>
	<g>
		<path class="st1" d="M411.8,298.5v-12.8h-1.9v-3h6.9v3H415v12.8H411.8z"/>
		<path class="st1" d="M418.3,298.5v-15.8h3.1v5.7h1.5v-5.7h3.1v15.8h-3.1v-7.2h-1.5v7.2H418.3z"/>
		<path class="st1" d="M428,282.7h4.9c0.8,0,1.4,0.2,1.8,0.5c0.4,0.3,0.7,0.8,0.9,1.5c0.1,0.6,0.2,1.4,0.2,2.4
			c0,0.9-0.1,1.6-0.3,2.1c-0.2,0.5-0.6,0.9-1.2,1c0.5,0.1,0.8,0.3,1,0.7c0.2,0.4,0.3,0.9,0.3,1.5l0,6h-3.1v-6.2
			c0-0.4-0.1-0.7-0.3-0.8c-0.2-0.1-0.5-0.2-0.9-0.2v7.2H428V282.7z M432,288.5c0.4,0,0.7-0.5,0.7-1.4c0-0.4,0-0.7-0.1-0.9
			c0-0.2-0.1-0.4-0.2-0.4c-0.1-0.1-0.2-0.1-0.4-0.1h-0.7v2.9H432z"/>
		<path class="st1" d="M437.3,298.5v-15.8h6.3v3.1h-3.1v3.1h3v3h-3v3.6h3.3v3.1H437.3z"/>
		<path class="st1" d="M445.4,298.5v-15.8h6.3v3.1h-3.1v3.1h3v3h-3v3.6h3.3v3.1H445.4z"/>
		<path class="st1" d="M453.4,293.9v-2.1h4.6v2.1H453.4z"/>
		<path class="st1" d="M461.1,298.5v-12.8h-1.9v-3h6.9v3h-1.9v12.8H461.1z"/>
		<path class="st1" d="M467.5,298.5v-15.8h3.1v15.8H467.5z"/>
		<path class="st1" d="M472.3,298.5v-15.8h4.8l1.3,9.6l1.3-9.6h4.9v15.8h-2.9v-11.4l-1.8,11.4h-2.8l-1.9-11.4v11.4H472.3z"/>
		<path class="st1" d="M486.6,298.5v-15.8h6.3v3.1h-3.1v3.1h3v3h-3v3.6h3.3v3.1H486.6z"/>
		<path class="st1" d="M499.1,298.5l1.5-15.8h5.4l1.5,15.8h-3l-0.2-2.6h-1.9l-0.2,2.6H499.1z M502.6,293.4h1.4l-0.7-8h-0.1
			L502.6,293.4z"/>
		<path class="st1" d="M510,298.5l-1.7-15.8h3.1l0.9,10l0.9-10h2.9l0.8,10l0.8-10h3.1l-1.7,15.8h-3.8l-0.8-7.6l-0.8,7.6H510z"/>
		<path class="st1" d="M521.6,298.5l1.5-15.8h5.4l1.5,15.8h-3l-0.2-2.6h-1.9l-0.2,2.6H521.6z M525.1,293.4h1.4l-0.7-8h-0.1
			L525.1,293.4z"/>
		<path class="st1" d="M531.4,282.7h4.9c0.8,0,1.4,0.2,1.8,0.5c0.4,0.3,0.7,0.8,0.9,1.5c0.1,0.6,0.2,1.4,0.2,2.4
			c0,0.9-0.1,1.6-0.4,2.1c-0.2,0.5-0.6,0.9-1.2,1c0.5,0.1,0.8,0.3,1,0.7c0.2,0.4,0.3,0.9,0.3,1.5l0,6h-3.1v-6.2
			c0-0.4-0.1-0.7-0.3-0.8c-0.2-0.1-0.5-0.2-0.9-0.2v7.2h-3.2V282.7z M535.4,288.5c0.4,0,0.7-0.5,0.7-1.4c0-0.4,0-0.7-0.1-0.9
			c0-0.2-0.1-0.4-0.2-0.4c-0.1-0.1-0.2-0.1-0.4-0.1h-0.7v2.9H535.4z"/>
		<path class="st1" d="M540.8,282.7h4.4c1.1,0,2,0.3,2.5,0.9c0.6,0.6,0.9,1.6,0.9,2.8l0,7.4c0,1.6-0.3,2.7-0.8,3.5
			c-0.6,0.8-1.5,1.2-2.7,1.2h-4.3V282.7z M544.5,295.7c0.6,0,0.9-0.3,0.9-0.8v-8.2c0-0.4,0-0.6-0.1-0.8c-0.1-0.2-0.2-0.3-0.3-0.4
			c-0.1-0.1-0.4-0.1-0.7-0.1h-0.4v10.3H544.5z"/>
		<path class="st1" d="M556.4,298.5l-1.7-15.8h3.1l0.9,10l0.9-10h2.9l0.8,10l0.8-10h3.1l-1.7,15.8h-3.8l-0.8-7.6l-0.8,7.6H556.4z"/>
		<path class="st1" d="M568.7,298.5v-15.8h3.1v15.8H568.7z"/>
		<path class="st1" d="M573.6,298.5v-15.8h3.3l1.5,7.6v-7.6h3.1v15.8h-3.1l-1.6-7.9v7.9H573.6z"/>
		<path class="st1" d="M583.3,298.5v-15.8h3.3l1.5,7.6v-7.6h3.1v15.8h-3.1l-1.6-7.9v7.9H583.3z"/>
		<path class="st1" d="M593,298.5v-15.8h6.3v3.1h-3.1v3.1h3v3h-3v3.6h3.3v3.1H593z"/>
		<path class="st1" d="M601.1,282.7h4.9c0.8,0,1.4,0.2,1.8,0.5c0.4,0.3,0.7,0.8,0.9,1.5c0.1,0.6,0.2,1.4,0.2,2.4
			c0,0.9-0.1,1.6-0.3,2.1c-0.2,0.5-0.6,0.9-1.2,1c0.5,0.1,0.8,0.3,1,0.7c0.2,0.4,0.3,0.9,0.3,1.5l0,6h-3.1v-6.2
			c0-0.4-0.1-0.7-0.3-0.8c-0.2-0.1-0.5-0.2-0.9-0.2v7.2h-3.2V282.7z M605,288.5c0.4,0,0.7-0.5,0.7-1.4c0-0.4,0-0.7-0.1-0.9
			c0-0.2-0.1-0.4-0.2-0.4c-0.1-0.1-0.2-0.1-0.4-0.1h-0.7v2.9H605z"/>
		<path class="st1" d="M450.3,319.8c0-0.7,0.1-1.4,0.3-2c0.2-0.6,0.5-1.2,0.8-1.7c0.3-0.5,0.8-1.1,1.3-1.7c0.6-0.7,1-1.3,1.3-1.7
			c0.3-0.5,0.6-1,0.8-1.6c0.2-0.6,0.3-1.3,0.3-2c0-0.4-0.1-0.8-0.2-1c-0.1-0.2-0.3-0.4-0.7-0.4c-0.5,0-0.8,0.5-0.8,1.4v1.9h-3.3l0-1
			c0-1.2,0.1-2.2,0.4-3c0.2-0.8,0.7-1.4,1.3-1.8c0.6-0.4,1.5-0.6,2.5-0.6c1.3,0,2.3,0.4,3.1,1.1c0.7,0.7,1.1,1.8,1.1,3.2
			c0,0.9-0.1,1.7-0.4,2.4c-0.2,0.7-0.5,1.3-0.9,1.8c-0.3,0.5-0.8,1.1-1.4,1.9c-0.4,0.5-0.8,1-1,1.3c-0.3,0.4-0.5,0.8-0.7,1.2h4.3v3
			h-8.2V319.8z"/>
		<path class="st1" d="M460.8,319.6c-0.7-0.8-1.1-1.8-1.1-3.2v-7.1c0-1.5,0.3-2.6,1-3.4c0.7-0.8,1.7-1.2,3.1-1.2
			c1.4,0,2.4,0.4,3.1,1.2c0.7,0.8,1,1.9,1,3.4v7.1c0,1.4-0.4,2.5-1.1,3.2c-0.7,0.7-1.8,1.1-3.1,1.1
			C462.6,320.7,461.5,320.4,460.8,319.6z M464.5,317.5c0.1-0.2,0.2-0.5,0.2-0.8v-7.8c0-0.5-0.1-0.8-0.2-1c-0.1-0.2-0.3-0.4-0.6-0.4
			s-0.5,0.1-0.6,0.4c-0.1,0.2-0.1,0.6-0.1,1v7.8c0,0.3,0.1,0.5,0.2,0.8c0.1,0.2,0.3,0.3,0.6,0.3
			C464.1,317.8,464.3,317.7,464.5,317.5z"/>
		<path class="st1" d="M471.2,308.4c-0.2,0.3-0.5,0.5-0.9,0.6c-0.4,0.2-0.7,0.2-1.1,0.2v-2.5c0.5-0.1,1.1-0.3,1.6-0.6
			c0.5-0.3,0.9-0.8,1.2-1.3h2.5v15.8h-3.3V308.4z"/>
		<path class="st1" d="M477.1,319.6c-0.7-0.8-1.1-1.8-1.1-3.2v-7.1c0-1.5,0.3-2.6,1-3.4c0.7-0.8,1.7-1.2,3.1-1.2
			c1.4,0,2.4,0.4,3.1,1.2c0.7,0.8,1,1.9,1,3.4v7.1c0,1.4-0.4,2.5-1.1,3.2c-0.7,0.7-1.8,1.1-3.1,1.1
			C478.8,320.7,477.8,320.4,477.1,319.6z M480.7,317.5c0.1-0.2,0.2-0.5,0.2-0.8v-7.8c0-0.5-0.1-0.8-0.2-1c-0.1-0.2-0.3-0.4-0.6-0.4
			c-0.3,0-0.5,0.1-0.6,0.4c-0.1,0.2-0.1,0.6-0.1,1v7.8c0,0.3,0.1,0.5,0.2,0.8c0.1,0.2,0.3,0.3,0.6,0.3
			C480.4,317.8,480.6,317.7,480.7,317.5z"/>
		<path class="st1" d="M486.3,322.7l0.6-2.1h-1.1v-2.7h3.3v2.6l-0.9,2.2H486.3z"/>
		<path class="st1" d="M495.5,319.8c0-0.7,0.1-1.4,0.3-2c0.2-0.6,0.5-1.2,0.8-1.7c0.3-0.5,0.8-1.1,1.3-1.7c0.6-0.7,1-1.3,1.3-1.7
			c0.3-0.5,0.6-1,0.8-1.6c0.2-0.6,0.3-1.3,0.3-2c0-0.4-0.1-0.8-0.2-1c-0.1-0.2-0.3-0.4-0.7-0.4c-0.5,0-0.8,0.5-0.8,1.4v1.9h-3.3l0-1
			c0-1.2,0.1-2.2,0.4-3c0.2-0.8,0.7-1.4,1.3-1.8c0.6-0.4,1.5-0.6,2.5-0.6c1.3,0,2.4,0.4,3.1,1.1c0.7,0.7,1.1,1.8,1.1,3.2
			c0,0.9-0.1,1.7-0.4,2.4c-0.2,0.7-0.5,1.3-0.9,1.8c-0.3,0.5-0.8,1.1-1.4,1.9c-0.4,0.5-0.8,1-1,1.3c-0.3,0.4-0.5,0.8-0.7,1.2h4.3v3
			h-8.2V319.8z"/>
		<path class="st1" d="M506,319.6c-0.7-0.8-1.1-1.8-1.1-3.2v-7.1c0-1.5,0.3-2.6,1-3.4c0.7-0.8,1.7-1.2,3.1-1.2
			c1.4,0,2.4,0.4,3.1,1.2c0.7,0.8,1,1.9,1,3.4v7.1c0,1.4-0.4,2.5-1.1,3.2c-0.7,0.7-1.8,1.1-3.1,1.1
			C507.8,320.7,506.8,320.4,506,319.6z M509.7,317.5c0.1-0.2,0.2-0.5,0.2-0.8v-7.8c0-0.5-0.1-0.8-0.2-1c-0.1-0.2-0.3-0.4-0.6-0.4
			s-0.5,0.1-0.6,0.4c-0.1,0.2-0.1,0.6-0.1,1v7.8c0,0.3,0.1,0.5,0.2,0.8c0.1,0.2,0.3,0.3,0.6,0.3
			C509.4,317.8,509.6,317.7,509.7,317.5z"/>
		<path class="st1" d="M516.4,308.4c-0.2,0.3-0.5,0.5-0.9,0.6c-0.4,0.2-0.7,0.2-1.1,0.2v-2.5c0.5-0.1,1.1-0.3,1.6-0.6
			c0.5-0.3,0.9-0.8,1.2-1.3h2.5v15.8h-3.3V308.4z"/>
		<path class="st1" d="M523,308.4c-0.2,0.3-0.5,0.5-0.9,0.6c-0.4,0.2-0.7,0.2-1.1,0.2v-2.5c0.5-0.1,1.1-0.3,1.6-0.6
			c0.5-0.3,0.9-0.8,1.2-1.3h2.5v15.8H523V308.4z"/>
		<path class="st1" d="M528.5,322.7l0.6-2.1H528v-2.7h3.3v2.6l-0.9,2.2H528.5z"/>
		<path class="st1" d="M539.3,308.4c-0.2,0.3-0.5,0.5-0.9,0.6c-0.4,0.2-0.7,0.2-1.1,0.2v-2.5c0.5-0.1,1.1-0.3,1.6-0.6
			c0.5-0.3,0.9-0.8,1.2-1.3h2.5v15.8h-3.3V308.4z"/>
		<path class="st1" d="M545.3,319.6c-0.7-0.8-1.1-1.8-1.1-3.2v-7.1c0-1.5,0.4-2.6,1-3.4c0.7-0.8,1.7-1.2,3.1-1.2
			c1.4,0,2.4,0.4,3.1,1.2c0.7,0.8,1,1.9,1,3.4v7.1c0,1.4-0.4,2.5-1.1,3.2c-0.7,0.7-1.8,1.1-3.1,1.1C547,320.7,546,320.4,545.3,319.6
			z M548.9,317.5c0.1-0.2,0.2-0.5,0.2-0.8v-7.8c0-0.5-0.1-0.8-0.2-1c-0.1-0.2-0.3-0.4-0.6-0.4c-0.3,0-0.5,0.1-0.6,0.4
			c-0.1,0.2-0.1,0.6-0.1,1v7.8c0,0.3,0.1,0.5,0.2,0.8c0.1,0.2,0.3,0.3,0.6,0.3C548.6,317.8,548.8,317.7,548.9,317.5z"/>
		<path class="st1" d="M555.6,308.4c-0.2,0.3-0.5,0.5-0.9,0.6c-0.4,0.2-0.7,0.2-1.1,0.2v-2.5c0.5-0.1,1.1-0.3,1.6-0.6
			c0.5-0.3,0.9-0.8,1.2-1.3h2.5v15.8h-3.3V308.4z"/>
		<path class="st1" d="M560.6,319.8c0-0.7,0.1-1.4,0.3-2c0.2-0.6,0.5-1.2,0.8-1.7c0.3-0.5,0.8-1.1,1.3-1.7c0.6-0.7,1-1.3,1.3-1.7
			c0.3-0.5,0.6-1,0.8-1.6c0.2-0.6,0.3-1.3,0.3-2c0-0.4-0.1-0.8-0.2-1c-0.1-0.2-0.3-0.4-0.7-0.4c-0.5,0-0.8,0.5-0.8,1.4v1.9h-3.3l0-1
			c0-1.2,0.1-2.2,0.4-3c0.2-0.8,0.7-1.4,1.3-1.8c0.6-0.4,1.5-0.6,2.5-0.6c1.3,0,2.3,0.4,3.1,1.1c0.7,0.7,1.1,1.8,1.1,3.2
			c0,0.9-0.1,1.7-0.4,2.4c-0.2,0.7-0.5,1.3-0.9,1.8c-0.3,0.5-0.8,1.1-1.4,1.9c-0.4,0.5-0.8,1-1,1.3c-0.3,0.4-0.5,0.8-0.7,1.2h4.3v3
			h-8.2V319.8z"/>
	</g>
</g>
</svg>
