<?xml version="1.0" encoding="utf-8"?>
<!-- Generator: Adobe Illustrator 22.0.1, SVG Export Plug-In . SVG Version: 6.00 Build 0)  -->
<svg version="1.1" id="Layer_1" xmlns="http://www.w3.org/2000/svg" xmlns:xlink="http://www.w3.org/1999/xlink" x="0px" y="0px"
	 viewBox="0 0 750 1334" style="enable-background:new 0 0 750 1334;" xml:space="preserve">
<style type="text/css">
	.st0{fill:#FFFFFF;}
	.st1{fill:#FFFFFF;stroke:#FFFFFF;stroke-width:2;stroke-miterlimit:10;}
</style>
<g>
	<polygon class="st0" points="142,643 122.5,614 151,594.7 138.6,563.5 171.5,550 167.5,516 200,510.7 202.5,477 238,477 245,445.5 
		280.3,452 295.5,422.5 326.3,436 346.9,411 373.8,432 399.9,411 423.7,436 453,423 468.1,453.3 502,444.5 513,476 547,476.5 
		547,510.7 581,516 579.3,548.7 609,563 596,595 624.5,614 605.5,643 631,666.5 605.5,693.7 625.5,720.5 598,739.7 609,770.5 
		578.3,784.7 582.5,817 548.7,824 547,856 511.5,856 504,887.2 469.8,880 453,910.5 421.9,893.6 402,923 373.8,901.7 346.9,921 
		326.5,895 295.5,911.5 281.5,880 245,890 237.3,856.1 203.5,857.5 201,824.7 167.5,817.5 171.3,785.3 140.2,771.1 151.7,739.7 
		125,720.5 141.3,690.4 119,667.2 	"/>
	<circle class="st0" cx="374.2" cy="667.2" r="231.2"/>
	<circle class="st1" cx="375" cy="668" r="201"/>
	<g>
		<path class="st0" d="M273.4,799c0.3-0.5,1-1.4,1.8-2.5l0.3,0.2c0.1,0.1,0.4,0.3,0.8,0.6c0.4,0.3,0.9,0.7,1.5,1.1l12.3,8.5
			c0.3,0.2,0.4,0.4,0.3,0.6c-0.1,0.1-0.4,0-1-0.3c-0.8-0.5-1.3-0.7-1.5-0.7c-0.2,0-0.6,0.4-1,1l-11.3,16.8c-0.5,0.7-0.7,1.2-0.6,1.4
			c0.1,0.2,0.6,0.6,1.5,1.3c0.4,0.3,0.5,0.5,0.3,0.7c-0.1,0.2-0.3,0.2-0.5,0l-0.3-0.2c-0.6-0.5-1.9-1.4-3.8-2.7
			c-0.2-0.1-0.5-0.3-1.1-0.7c-0.5-0.3-1-0.6-1.3-0.8l-0.3-0.2c-0.4-0.2-0.5-0.5-0.3-0.7c0.1-0.1,0.2-0.2,0.3-0.1
			c0.1,0,0.5,0.3,1.1,0.6c0.6,0.4,1,0.5,1.2,0.4c0.2-0.1,0.6-0.6,1.2-1.5l11.9-17.6c-0.5-0.4-1.3-0.9-2.2-1.5c-2.3-1.6-4-2.6-5.2-3
			s-2.1-0.4-2.8,0c-0.8,0.4-1.6,1.2-2.4,2.3c-0.2,0.2-0.4,0.3-0.6,0.2c-0.2-0.2-0.3-0.4,0-0.7l0.5-0.7c0,0,0.1-0.1,0.2-0.3
			c0.1-0.1,0.2-0.3,0.3-0.4L273.4,799z"/>
		<path class="st0" d="M246.8,788c2.4-2.6,5.3-4.1,8.5-4.5c3.3-0.4,6,0.5,8.3,2.6c2.4,2.2,3.6,5.1,3.6,8.4c0,3.4-1.3,6.4-3.8,9.1
			c-2.5,2.8-5.4,4.3-8.6,4.6c-3.2,0.3-6.1-0.7-8.6-3c-2.3-2.2-3.5-4.9-3.4-8.2C243,793.8,244.3,790.8,246.8,788z M249.9,790.6
			c-3,3.2-4.6,6.4-5,9.4c-0.2,1.9,0.4,3.5,1.9,4.9c1.4,1.3,2.9,1.9,4.5,1.7c2.9-0.3,6-2.2,9.3-5.8c2.6-2.8,4.2-5.5,4.6-8
			c0.5-2.5-0.2-4.6-2-6.2c-1.7-1.5-3.6-2-5.8-1.3C254.9,786.1,252.4,787.9,249.9,790.6z"/>
		<path class="st0" d="M218.9,773.5c0.2-0.1,0.4,0,0.7,0.3c0.7,0.8,1.2,1.3,1.7,1.4c0.5,0.1,1.2,0,2.3-0.4l3.4-1.1
			c8.2-2.7,14.4-4.9,18.5-6.7c0.3-0.1,0.5-0.1,0.6,0c0.1,0.2-0.3,1-1.4,2.6c-1.9,2.9-3.3,5.1-4.3,6.6c-1,1.6-2.6,4.1-4.6,7.3
			l-2.7,4.4c-0.4,0.6-0.6,1.1-0.6,1.5s0.2,0.8,0.6,1.4c0.5,0.6,0.7,1,0.8,1.2c0.1,0.1,0.1,0.3-0.1,0.4c-0.2,0.1-0.4,0-0.7-0.4
			l-0.2-0.3c-0.3-0.3-0.7-0.9-1.4-1.8c-0.6-0.9-1.1-1.5-1.4-1.8c-0.1-0.1-0.4-0.4-0.9-1.1s-1.3-1.5-2.2-2.7l-0.3-0.4
			c-0.3-0.3-0.3-0.6-0.1-0.7c0.2-0.1,0.6,0.1,1.1,0.8l1.4,1.7c0.3,0.4,0.6,0.5,0.9,0.3c0,0,0.1-0.1,0.2-0.2l0.6-0.8
			c0.1-0.2,2-3.2,5.8-9.1c0.7-1,1.9-2.9,3.7-5.7c-11.2,3.9-17.1,6-17.6,6.3c-0.4,0.3-0.3,1,0.5,1.9l0.7,0.9c0.2,0.2,0.2,0.4,0,0.5
			c-0.2,0.2-0.5,0-1-0.6c-0.1-0.1-0.3-0.4-0.8-1c-0.4-0.6-0.6-1-0.8-1.2l-0.7-0.9l-1.6-1.8C218.8,773.8,218.8,773.6,218.9,773.5z"/>
		<path class="st0" d="M222.7,742.5c0.1,0,0.6-0.3,1.6-0.8c1-0.5,1.9-1,2.7-1.5l1-0.6c1.1,2.1,3.3,6.2,6.8,12.2
			c0.4,0.7,0.8,1.4,1.2,2.1c0.4,0.7,0.7,1.2,0.8,1.4l0.2,0.3c0.2,0.4,0.3,0.6,0.1,0.7c-0.1,0.1-0.2,0-0.3-0.1c0-0.1-0.3-0.4-0.8-1.1
			c-0.4-0.5-0.7-0.8-0.9-0.8c-0.3,0-0.8,0.2-1.6,0.7L216,765.3c-0.6,0.4-0.9,0.6-0.9,0.9c0,0.2,0.3,0.8,0.8,1.8
			c0.2,0.3,0.2,0.5,0,0.7c-0.2,0.1-0.4-0.1-0.7-0.5l-3.1-5.3c-0.1-0.2-0.8-1.4-2-3.5c-1.3-2.2-2.1-3.6-2.5-4.4
			c-0.4-0.6-0.7-1.2-1.1-1.6c0.9-0.6,2.1-1.4,3.5-2.4l1.3-0.9c0.1-0.1,0.2-0.2,0.4-0.3c0.2-0.1,0.4-0.1,0.5,0.1c0.1,0.2,0,0.5-0.5,1
			c-1.7,1.5-2.5,2.8-2.5,4c0,0.9,0.8,2.7,2.5,5.6l1.5,2.6l9.2-5.3l-0.4-0.7c-1.3-2.3-2.3-3.6-3-3.9c-0.6-0.3-1.9-0.1-3.7,0.7
			c-0.5,0.2-0.7,0.2-0.9,0c-0.1-0.2,0-0.5,0.4-0.7c0.4-0.2,0.9-0.5,1.7-0.9c0.8-0.4,1.3-0.7,1.7-0.9c2.2-1.3,3.7-2.2,4.5-2.8
			c0.2-0.1,0.4-0.2,0.5-0.3c0.3-0.2,0.5-0.1,0.6,0.1c0.1,0.1,0.1,0.3-0.1,0.4c-0.1,0.2-0.7,0.6-1.6,1.3c-1.1,0.9-1.6,1.8-1.4,2.8
			c0.1,0.4,0.6,1.5,1.5,3l0.8,1.4l10.4-6c-2.6-4.6-4.3-7.2-4.9-7.9c-1.1-1.2-2.9-1.2-5.3-0.1c-0.5,0.3-0.9,0.3-1,0
			C222.1,743,222.2,742.8,222.7,742.5z"/>
		<path class="st0" d="M210.3,717.2c0.2-0.1,0.3,0,0.4,0.2l0.3,0.8c0.4,1,0.8,1.6,1.2,1.5c0.3,0,1.3-0.4,3-1l1.1-0.4
			c1.4,0.8,2.6,1.6,3.4,2.5c0.8,0.9,1.5,2.1,2.1,3.6c1.4,3.5,1.5,6.7,0.2,9.7c-1.3,2.9-3.7,5.1-7.3,6.5c-3.7,1.5-7,1.6-10.1,0.5
			c-3.1-1.1-5.2-3.4-6.6-6.7c-0.6-1.5-0.8-3.2-0.7-5.2c0-0.6,0-1.1-0.1-1.4c-0.2-0.4-0.5-0.6-1.1-0.5c-0.4,0-0.6-0.1-0.6-0.2
			c-0.1-0.2,0-0.3,0.2-0.4c0.1,0,0.3-0.1,0.7-0.2c1.3-0.4,2.3-0.7,2.8-0.9l2.2-0.9c0.8-0.3,1.1-0.5,1-0.4c0.6-0.2,0.9-0.1,1,0.1
			c0.1,0.2,0,0.4-0.3,0.5c-2.1,1-3.6,2.3-4.4,3.9s-0.8,3.4-0.1,5.2c0.9,2.3,2.7,3.7,5.3,4.3c2.6,0.5,5.7,0.1,9.3-1.3
			c3.4-1.4,5.9-3.1,7.4-5.3s1.8-4.4,0.8-6.8c-0.7-1.8-1.7-2.8-3-3.1c-0.6-0.1-1.6,0.1-3,0.6c-1.1,0.4-1.7,0.8-1.8,1.1
			c-0.1,0.3,0.1,1.1,0.6,2.3c0.1,0.3,0.2,0.5,0.2,0.6s-0.1,0.2-0.2,0.2c-0.2,0.1-0.5-0.1-0.7-0.6l-0.2-0.6c-0.1-0.3-0.6-1.5-1.4-3.5
			l-1.1-2.8c-0.1-0.2-0.1-0.3-0.2-0.5c-0.1-0.2-0.1-0.3-0.1-0.4C210.1,717.5,210.1,717.3,210.3,717.2z"/>
		<path class="st0" d="M206.9,695c0.1,0,0.7-0.1,1.7-0.3c1.1-0.2,2.1-0.4,3-0.6l1.2-0.3c0.4,2.3,1.4,6.9,3,13.7
			c0.2,0.8,0.4,1.6,0.6,2.4s0.3,1.3,0.4,1.6l0.1,0.4c0.1,0.4,0.1,0.7-0.1,0.7c-0.1,0-0.2,0-0.3-0.2c0-0.1-0.2-0.5-0.4-1.3
			c-0.2-0.6-0.4-0.9-0.6-1c-0.2-0.1-0.8,0-1.7,0.2l-19.8,4.6c-0.7,0.2-1.1,0.4-1.1,0.6c-0.1,0.2,0,0.9,0.3,2c0.1,0.4,0,0.6-0.2,0.6
			c-0.2,0-0.4-0.2-0.5-0.7l-1.4-6c0-0.2-0.4-1.5-0.9-4c-0.6-2.4-0.9-4.1-1.1-4.9c-0.2-0.7-0.4-1.3-0.6-1.9c1-0.3,2.4-0.7,4.1-1.3
			l1.5-0.5c0.1-0.1,0.3-0.1,0.4-0.1c0.2-0.1,0.4,0,0.4,0.2c0.1,0.3-0.2,0.5-0.8,0.8c-2,0.9-3.2,2-3.5,3.1c-0.2,0.8,0,2.9,0.7,6
			l0.7,2.9l10.3-2.4l-0.2-0.8c-0.6-2.6-1.2-4.2-1.7-4.6c-0.5-0.5-1.8-0.6-3.7-0.4c-0.5,0.1-0.8,0-0.8-0.2c-0.1-0.3,0.1-0.4,0.5-0.5
			c0.4-0.1,1-0.2,1.9-0.4c0.8-0.1,1.5-0.3,1.9-0.4c2.5-0.6,4.2-1,5.1-1.3c0.2-0.1,0.4-0.1,0.6-0.2c0.3-0.1,0.5,0,0.5,0.3
			c0,0.2,0,0.3-0.2,0.4c-0.2,0.1-0.8,0.4-1.9,0.8c-1.3,0.5-2.1,1.3-2.2,2.3c0,0.5,0.1,1.6,0.6,3.3l0.4,1.6l11.7-2.7
			c-1.2-5.1-2-8.1-2.4-9c-0.7-1.5-2.4-2-5-1.6c-0.6,0.1-0.9,0-1-0.3C206.2,695.3,206.5,695.1,206.9,695z"/>
		<path class="st0" d="M185.4,669.8c0.2,0,0.3,0.2,0.4,0.7c0.1,1.1,0.3,1.7,0.6,2.1c0.3,0.3,1,0.6,2.1,0.9l3.4,0.9
			c8.3,2.3,14.7,3.8,19.1,4.6c0.3,0,0.4,0.2,0.5,0.3c0,0.2-0.8,0.7-2.6,1.4c-3.2,1.4-5.6,2.4-7.2,3.1c-1.8,0.8-4.4,2-7.9,3.5
			l-4.7,2.2c-0.6,0.3-1.1,0.6-1.3,0.9c-0.2,0.3-0.3,0.8-0.3,1.5c0,0.8,0.1,1.3,0,1.4c0,0.2-0.1,0.2-0.3,0.3c-0.2,0-0.3-0.2-0.4-0.7
			l0-0.3c0-0.4-0.1-1.2-0.1-2.2c-0.1-1.1-0.1-1.8-0.1-2.3c0-0.1-0.1-0.6-0.2-1.4s-0.2-1.9-0.3-3.4l0-0.5c0-0.4,0.1-0.7,0.3-0.7
			c0.2,0,0.4,0.4,0.5,1.3l0.3,2.2c0.1,0.5,0.3,0.7,0.6,0.7c0.1,0,0.1,0,0.3-0.1l0.9-0.4c0.2-0.1,3.5-1.5,9.8-4.4
			c1.1-0.5,3.2-1.4,6.3-2.7c-11.5-3-17.6-4.5-18.1-4.4c-0.6,0-0.8,0.7-0.6,1.8l0.1,1.1c0,0.3-0.1,0.4-0.3,0.5c-0.3,0-0.4-0.3-0.5-1
			c0-0.1,0-0.5-0.1-1.2c0-0.7,0-1.2,0-1.5l-0.1-1.1l-0.3-2.4C185.1,670,185.2,669.8,185.4,669.8z"/>
		<path class="st0" d="M210.4,656.1c0.2,0,0.3,0.2,0.3,0.4l0,0.4c-0.1,0.1-0.2,1.8-0.2,4.9c0,0.6,0,1.2,0,1.8c0,0.3,0,0.8,0,1.4
			c0,0.3-0.1,0.5-0.3,0.5c-0.2,0-0.3-0.3-0.3-0.9c0-1-0.1-1.5-0.3-1.7s-0.9-0.3-2.1-0.3l-19-0.5c-1.2,0-1.8,0-2,0.1
			c-0.2,0.1-0.4,0.8-0.5,2c0,0.5-0.1,0.7-0.3,0.7c-0.2,0-0.3-0.2-0.3-0.4l0.1-4.9c0-0.4,0-1.1,0.1-2.1l0-1.4c0-0.4,0.1-0.6,0.3-0.6
			c0.2,0,0.3,0.5,0.3,1.6c0,0.6,0.1,1,0.3,1.1c0.2,0.1,0.7,0.2,1.5,0.2l19.2,0.6c1.4,0,2.1,0,2.2-0.1c0.3-0.3,0.4-1,0.5-2.3
			C210.1,656.2,210.2,656.1,210.4,656.1z"/>
		<path class="st0" d="M195.1,630.2c0.3,0,0.4,0.2,0.4,0.5c0,0.3-0.4,0.4-1,0.5c-0.4,0-0.9,0-1.3,0c-0.9,0-1.6,0.2-2.3,0.5
			c-0.9,0.4-1.5,1.1-1.8,2.3c-0.2,0.7-0.4,1.3-0.4,1.8c-0.1,1.1-0.2,1.8-0.2,2l21.5,3c0.9,0.1,1.4,0,1.7-0.5c0.2-0.2,0.3-0.9,0.5-2
			c0.1-0.3,0.2-0.4,0.4-0.4c0.2,0,0.3,0.2,0.2,0.6c0,0.2-0.1,0.4-0.1,0.5c-0.2,1.4-0.4,2.4-0.5,3c-0.1,0.8-0.2,1.5-0.3,2.2
			c-0.1,0.7-0.2,1.6-0.3,2.6c-0.1,0.5-0.2,0.8-0.4,0.8c-0.2,0-0.3-0.6-0.1-1.6c0.1-0.7,0-1.2-0.3-1.5c-0.2-0.1-0.7-0.3-1.4-0.4
			l-21.4-3c-0.3,2.4-0.4,3.8-0.3,4.4c0.3,1.6,1.7,2.7,4,3.3c0.7,0.2,1,0.4,1,0.6c0,0.3-0.3,0.4-0.8,0.3c-0.3,0-0.5-0.1-0.8-0.1
			l-0.8-0.2c-1.1-0.2-2.5-0.5-4.3-0.9l0.2-1.6l1.1-7.3c0.1-0.9,0.3-2.2,0.6-4l0.7-5.9c1.3,0.1,3.3,0.3,6,0.4c0.1,0,0.2,0,0.3,0
			C195,630.2,195.1,630.1,195.1,630.2z"/>
		<path class="st0" d="M196.3,602.1c0.2,0.1,0.2,0.3,0.1,0.7c-0.3,1.3-0.3,2.1,0,2.5c0.2,0.4,1.9,1.9,5.1,4.7
			c1.4,1.2,2.7,2.4,3.7,3.4c0.7,0.7,1.2,1.1,1.5,1.3c0.3,0.2,1,0.4,2,0.7l6.6,1.9c0.8,0.2,1.2,0.3,1.4,0.1c0.2-0.2,0.5-0.8,0.9-2
			c0.2-0.6,0.4-0.9,0.6-0.8c0.2,0.1,0.2,0.2,0.1,0.6l-0.1,0.4l-1.5,4.8c-0.4,1.4-0.7,2.5-0.9,3.4c0,0.1-0.1,0.3-0.1,0.5
			c-0.1,0.3-0.2,0.5-0.5,0.4s-0.3-0.4-0.1-0.9c0.3-1.3,0.4-2.1,0.3-2.3c-0.1-0.3-0.6-0.6-1.6-0.8l-7.3-2.1c-0.6,0.1-2.1,0.4-4.6,0.8
			l-7.8,1.5c-0.8,0.2-1.6,0.4-2.6,0.6c-0.3,0.2-0.6,0.7-0.8,1.5c-0.2,0.8-0.5,1.2-0.7,1.2c-0.2-0.1-0.2-0.3-0.1-0.6
			c0.1-0.5,0.4-1.4,0.9-2.9c0.3-0.8,0.4-1.4,0.6-1.8l1.1-4c0-0.2,0-0.4,0.1-0.6c0.1-0.4,0.3-0.6,0.5-0.5c0.2,0.1,0.2,0.5,0,1.3
			c-0.4,1.4-0.4,2.2,0.1,2.4c0.4,0.1,2.2-0.2,5.4-0.8l6.9-1.4c-0.9-0.9-1.9-1.9-3.2-3.1l-3.5-3.2c-1.3-1.2-2.1-1.9-2.6-2
			c-0.3-0.1-0.5,0.1-0.7,0.4c-0.3,0.8-0.6,1.3-0.6,1.6c-0.1,0.5-0.3,0.7-0.6,0.7c-0.2-0.1-0.2-0.3-0.1-0.7l0.6-2l0.3-1.1
			C195.6,603.2,196,602,196.3,602.1z"/>
		<path class="st0" d="M203.4,592.3c1.6,0.7,2.5,1.8,2.7,3.4c0.1,1.1,0.1,1.9-0.1,2.5c-0.1,0.2-0.2,0.3-0.4,0.3
			c-0.2-0.1-0.2-0.2-0.2-0.5c0.1-1.1,0.1-2-0.2-2.6c-0.2-0.6-0.7-1-1.5-1.3c-0.6-0.2-1.2-0.3-1.7-0.2c0.8,0.3,0.9,0.9,0.5,1.9
			c-0.2,0.5-0.5,0.8-1,1c-0.5,0.2-0.9,0.2-1.4,0c-0.6-0.2-0.9-0.6-1.2-1.2c-0.2-0.6-0.2-1.2,0-1.8c0.3-0.8,0.9-1.4,1.7-1.7
			C201.7,591.9,202.5,591.9,203.4,592.3z"/>
		<path class="st0" d="M226.9,578.6c1.8,1,3,2.5,3.6,4.5c0.6,2.1,0.3,4.1-0.7,6c-0.6,1.1-1.7,2.3-3.2,3.6c-0.4,0.3-0.7,0.6-0.8,0.8
			c-0.1,0.3,0.1,0.6,0.6,0.9c0.3,0.2,0.4,0.4,0.2,0.7c-0.1,0.2-0.3,0.3-0.5,0.1c-0.2-0.1-0.3-0.2-0.4-0.2c-1.2-0.9-2.4-1.6-3.5-2.2
			c-0.2-0.1-0.8-0.4-1.8-0.9c-0.1,0-0.3-0.1-0.5-0.2c-0.3-0.2-0.4-0.4-0.3-0.6c0.1-0.2,0.4-0.2,1,0c4.1,1.5,7,0.7,8.6-2.4
			c0.7-1.3,0.8-2.5,0.5-3.6s-1.2-2-2.5-2.7c-1.2-0.6-2.4-0.8-3.6-0.6c-1.2,0.2-2.7,1-4.4,2.2c-2.1,1.5-3.8,2.4-5.1,2.7
			c-1.3,0.3-2.7,0.1-4.1-0.7c-1.8-0.9-2.9-2.3-3.5-4c-0.5-1.7-0.4-3.5,0.6-5.2c0.4-0.7,1.2-1.6,2.3-2.6c0.4-0.4,0.7-0.6,0.8-0.9
			c0.1-0.2,0.2-0.4,0.1-0.5c0-0.1-0.2-0.3-0.6-0.6c-0.2-0.2-0.2-0.3-0.1-0.5c0.1-0.2,0.3-0.3,0.6-0.1c0.2,0.1,0.3,0.2,0.4,0.2
			c0.5,0.3,1.1,0.7,1.8,1.1c1,0.5,1.9,0.9,2.5,1.1l0.5,0.2c0.2,0.1,0.3,0.3,0.2,0.5c-0.1,0.2-0.5,0.3-1,0.1c-1.4-0.4-2.7-0.4-4,0
			c-1.3,0.4-2.2,1.2-2.8,2.3c-0.6,1.1-0.7,2.1-0.3,3.1c0.3,1,1.1,1.8,2.3,2.4c1.4,0.7,2.7,0.8,4,0.4c0.7-0.3,2-1,3.7-2.3
			c2.1-1.5,3.8-2.4,5.3-2.7C224.2,577.8,225.6,577.9,226.9,578.6z"/>
		<path class="st0" d="M242.1,529.8c0.2,0.1,0,0.5-0.5,1.2c-0.6,0.7-0.7,1.4-0.5,2c0.2,0.6,0.9,1.7,1.9,3.4c1.8,3,3.3,5.5,4.5,7.6
			c2.1,3.6,4.1,7.1,6.2,10.4c0.2,0.3,0.2,0.5,0.1,0.6c-0.1,0.1-0.2,0.1-0.5,0c-0.3-0.1-1.1-0.4-2.5-0.9c-1.9-0.7-3.8-1.4-5.7-2
			c-1.5-0.5-3.1-1-4.7-1.6c2,3.9,4.2,7.9,6.5,12c0.2,0.3,0.2,0.4,0.1,0.6c-0.1,0.1-0.3,0.1-0.7-0.1c-1.8-0.6-9.2-3.2-22.2-8
			c-0.9-0.3-1.5-0.5-1.8-0.5c-0.3,0-0.7,0.2-1.1,0.7c-0.8,0.8-1.3,1.2-1.5,1c-0.2-0.1-0.1-0.4,0.1-0.6c0.1-0.1,0.2-0.2,0.3-0.3
			c0.9-0.9,1.8-1.9,2.7-3.1c0.2-0.2,0.5-0.6,0.9-1.2c0.4-0.6,1-1.3,1.7-2.1l0.3-0.3c0.3-0.3,0.5-0.4,0.6-0.3
			c0.2,0.2,0.1,0.6-0.4,1.1c-0.9,1.2-1.2,1.8-1,2.1c0.5,0.4,6.7,2.8,18.6,7.1c-2.1-3.8-3.6-6.7-4.5-8.5l-9.3-3.3
			c-0.5-0.2-0.9-0.2-1.2-0.1c-0.3,0.1-0.6,0.4-1.1,0.9s-0.8,0.7-0.9,0.6c-0.2-0.2-0.1-0.4,0.2-0.8c0.2-0.3,0.6-0.6,1-1
			c0.4-0.4,1-1.1,1.9-2.1l1.8-2.1l2.6-3c0.6-0.7,1.2-1.5,2-2.5c0.1-0.1,0.2-0.3,0.3-0.4c0.4-0.4,0.7-0.6,0.8-0.4
			c0.2,0.1,0.1,0.4-0.1,0.7l-0.4,0.5c-0.7,0.8-1.1,1.5-1.3,2.1c-0.1,0.3,0.3,1.2,1.1,2.7c0.3,0.7,0.9,1.8,1.7,3.3
			c0.2,0.3,0.5,0.9,0.8,1.5c0.5,0.2,1.8,0.6,4.1,1.4c2.9,0.9,5.3,1.8,7.3,2.5c-2.1-3.5-4.6-7.7-7.4-12.6c-1.5-2.6-2.4-4-2.6-4.2
			c-0.3-0.3-0.8-0.1-1.3,0.5c-0.8,0.9-1.2,1.3-1.4,1.1c-0.2-0.2-0.1-0.4,0.2-0.8c0.3-0.3,0.5-0.5,0.7-0.7c0.4-0.4,0.7-0.7,1-1
			l1.9-2.2c0.5-0.5,0.7-0.8,0.8-0.9C242,529.7,242.1,529.7,242.1,529.8z M232.6,541.6l-0.3,0.3l-0.4,0.5c-0.5,0.7-0.7,1.1-0.5,1.3
			c0,0,2.1,0.8,6.1,2.4c-0.6-1.2-1.4-2.7-2.4-4.6c-0.1-0.2-0.3-0.6-0.5-1l-0.2-0.2C234.2,540.1,233.5,540.5,232.6,541.6z"/>
		<path class="st0" d="M273.7,528.3c0.1,0.1,0.4,0.5,1.1,1.4c0.7,0.9,1.3,1.7,1.9,2.4l0.8,0.9c-1.9,1.4-5.5,4.3-10.9,8.8
			c-0.6,0.5-1.3,1.1-1.9,1.6c-0.6,0.5-1.1,0.9-1.3,1.1l-0.3,0.2c-0.4,0.3-0.6,0.4-0.7,0.2c-0.1-0.1-0.1-0.2,0-0.3
			c0.1,0,0.4-0.4,1-0.9c0.4-0.4,0.7-0.8,0.6-1c0-0.3-0.3-0.7-0.9-1.4l-13-15.6c-0.4-0.5-0.8-0.8-1-0.8c-0.2,0-0.8,0.4-1.6,1.1
			c-0.3,0.2-0.5,0.3-0.6,0.1c-0.1-0.2,0-0.4,0.4-0.7l4.7-3.9c0.2-0.1,1.2-1,3.1-2.6c1.9-1.6,3.2-2.7,3.9-3.2c0.6-0.5,1-0.9,1.4-1.4
			c0.7,0.8,1.7,1.8,3,3.1l1.1,1.1c0.1,0.1,0.2,0.2,0.3,0.3c0.2,0.2,0.1,0.3,0,0.5c-0.2,0.2-0.5,0.1-1-0.3c-1.7-1.4-3.2-2-4.4-1.7
			c-0.9,0.2-2.6,1.3-5.1,3.4l-2.3,1.9l6.8,8.1l0.7-0.6c2.1-1.7,3.2-2.9,3.4-3.6c0.2-0.7-0.3-1.9-1.4-3.5c-0.3-0.4-0.3-0.7-0.2-0.8
			c0.2-0.2,0.4-0.1,0.7,0.2s0.7,0.8,1.2,1.5c0.5,0.7,0.9,1.2,1.2,1.5c1.6,2,2.8,3.3,3.5,4c0.2,0.2,0.3,0.3,0.4,0.5
			c0.2,0.2,0.2,0.4,0,0.6c-0.1,0.1-0.3,0.1-0.5,0c-0.2-0.1-0.7-0.6-1.5-1.3c-1.1-1-2.1-1.3-3-0.9c-0.4,0.2-1.3,0.8-2.7,2l-1.2,1
			l7.7,9.3c4.1-3.4,6.4-5.4,6.9-6.2c1-1.3,0.7-3-0.8-5.2c-0.3-0.5-0.4-0.8-0.2-1C273.1,527.8,273.4,527.9,273.7,528.3z"/>
		<path class="st0" d="M293.7,507.9c2.2,3.6,2.6,7.2,1.3,10.8c-1,2.6-3,4.8-6.1,6.7c-0.1,0-0.4,0.3-1.1,0.7c-0.6,0.4-1.6,1-2.8,1.7
			l-1.5,0.9l-2.4,1.5c-0.1,0.1-0.3,0.2-0.5,0.3c-0.4,0.2-0.6,0.2-0.8,0c-0.1-0.2,0.2-0.5,0.8-0.9c0.8-0.5,1.3-1,1.3-1.4
			c0-0.2-0.2-0.6-0.6-1.2l-10-16.6c-0.6-1-1-1.5-1.3-1.6c-0.3-0.1-0.8,0.2-1.7,0.7c-0.5,0.3-0.8,0.3-0.9,0.1c-0.1-0.2,0-0.4,0.4-0.6
			c0,0,0.2-0.1,0.7-0.4c0.5-0.3,0.9-0.6,1.4-0.8l3.3-2c3.7-2.2,6.5-3.5,8.3-4c2.2-0.5,4.5-0.2,6.7,0.9
			C290.4,503.8,292.3,505.5,293.7,507.9z M290.2,509.8c-2.1-3.4-4.2-5.5-6.5-6.3c-2.3-0.8-4.9-0.3-7.7,1.4c-1.4,0.8-2.1,1.5-2.2,1.9
			c0,0.2,0.2,0.8,0.7,1.6l9.9,16.5c0.3,0.6,0.6,0.9,0.7,1s0.3,0.2,0.4,0.2c0.6,0,1.8-0.6,3.3-1.5c2.2-1.3,3.5-3.2,4-5.6
			C293.1,516.5,292.3,513.4,290.2,509.8z"/>
		<path class="st0" d="M321,496.5c1.5,3.9,1.4,7.6-0.5,10.8c-1.4,2.4-3.8,4.3-7.1,5.6c-0.1,0-0.5,0.2-1.2,0.5
			c-0.7,0.3-1.7,0.7-3.1,1.2l-1.7,0.7l-2.6,1c-0.2,0.1-0.3,0.1-0.5,0.2c-0.4,0.2-0.7,0.1-0.8-0.1c-0.1-0.2,0.2-0.4,1-0.7
			c0.9-0.4,1.4-0.8,1.5-1.2c0-0.2-0.1-0.6-0.4-1.3l-7.1-18.1c-0.4-1.1-0.8-1.7-1-1.8c-0.2-0.1-0.8,0-1.8,0.4
			c-0.5,0.2-0.8,0.2-0.9-0.1c-0.1-0.2,0.1-0.3,0.5-0.5c0,0,0.2-0.1,0.7-0.3c0.5-0.2,1-0.4,1.5-0.6l3.6-1.4c4-1.6,7-2.4,8.9-2.5
			c2.3-0.1,4.5,0.6,6.5,2C318.5,491.9,320,494,321,496.5z M317.2,497.9c-1.5-3.7-3.3-6.2-5.4-7.3c-2.1-1.2-4.7-1.1-7.8,0.1
			c-1.5,0.6-2.3,1.1-2.5,1.5c-0.1,0.2,0.1,0.8,0.4,1.7l7,17.9c0.2,0.6,0.4,1,0.5,1.1c0.1,0.1,0.2,0.2,0.4,0.2
			c0.6,0.1,1.8-0.3,3.5-0.9c2.4-0.9,4-2.6,4.8-4.8C319,504.9,318.7,501.8,317.2,497.9z"/>
		<path class="st0" d="M338.9,504.6c0.1,0.2-0.1,0.3-0.3,0.4l-0.3,0.1c-0.2,0-1.7,0.3-4.8,1.1c-0.6,0.1-1.2,0.3-1.7,0.5
			c-0.3,0.1-0.8,0.2-1.4,0.4c-0.3,0.1-0.5,0-0.5-0.2c0-0.2,0.2-0.4,0.8-0.5c0.9-0.3,1.4-0.5,1.6-0.7s0-0.9-0.3-2.1l-4.7-18.4
			c-0.3-1.1-0.5-1.8-0.7-1.9c-0.2-0.2-0.9-0.2-2.1,0.1c-0.5,0.1-0.7,0.1-0.7-0.1c0-0.2,0.1-0.3,0.4-0.4l4.7-1.2c0.4-0.1,1-0.3,2-0.5
			l1.3-0.4c0.4-0.1,0.6,0,0.6,0.2c0,0.2-0.4,0.4-1.5,0.7c-0.6,0.2-0.9,0.4-1,0.6c-0.1,0.2,0,0.7,0.2,1.5l4.7,18.6
			c0.3,1.3,0.6,2,0.7,2.1c0.3,0.2,1.1,0.1,2.4-0.1C338.7,504.4,338.8,504.4,338.9,504.6z"/>
		<path class="st0" d="M361.5,476.5c0,0.2-0.3,0.4-0.9,0.4l-0.8,0.1l-0.6,0.1c-0.4,0-0.6,0.1-0.7,0.3c-0.1,0.1,0,0.5,0,1.2l2.7,20.5
			c0.2,1.3,0.2,2,0.3,2.2c0,0.2-0.1,0.3-0.2,0.3c-0.1,0-0.3-0.1-0.5-0.3l-5.4-6.1c-3.2-3.5-7-8-11.6-13.3l2.6,20
			c0.1,0.3,0.3,0.5,0.6,0.5c0.3,0,1.2,0,2.4-0.2c0.3,0,0.5,0,0.5,0.2c0,0.2-0.3,0.4-0.9,0.5c-0.2,0-0.9,0.1-2,0.2
			c-0.4,0-0.8,0.1-1.1,0.1c0,0-0.2,0-0.6,0.2c-0.4,0.1-1.1,0.2-2,0.3l-0.4,0c-0.5,0.1-0.8,0-0.9-0.2s0.2-0.4,0.7-0.4
			c1.4-0.2,2.2-0.4,2.4-0.6c0.2-0.2,0.3-0.7,0.1-1.6l-2.3-17.6c-0.3-2-0.8-3.2-1.7-3.6c-0.4-0.2-1.1-0.2-2.1-0.1
			c-0.6,0.1-0.9,0-1-0.3c0-0.2,0.1-0.4,0.5-0.4c0.5-0.1,1.1-0.1,1.8-0.2c0.7,0,1.1-0.1,1.2-0.1c0.1,0,0.4-0.1,1-0.2
			c0.8-0.1,1.5-0.2,2.3-0.4l14.7,16.8l-2.1-15.9c-0.1-0.7-0.2-1.2-0.2-1.3c0-0.2-0.2-0.3-0.3-0.3c-0.2-0.1-0.8,0-1.7,0.1
			c-0.9,0.1-1.3,0.1-1.3-0.2c0-0.2,0.2-0.4,0.8-0.5l1.2-0.2c0.3,0,0.6-0.1,1-0.1c0.4-0.1,0.6-0.1,0.7-0.1c0,0,0.2,0,0.6-0.1
			c0.4-0.1,0.7-0.1,1.1-0.1l1.1-0.1C361.2,476.2,361.4,476.2,361.5,476.5z"/>
		<path class="st0" d="M391.8,493.8c0,0.2-0.1,0.3-0.3,0.3l-0.8,0c-1.1-0.1-1.7,0.1-1.9,0.5c-0.1,0.3-0.2,1.3-0.2,3.1l0,1.1
			c-1.2,1-2.4,1.7-3.6,2.1c-1.2,0.4-2.5,0.6-4.1,0.6c-3.8-0.1-6.8-1.3-9-3.6c-2.2-2.3-3.2-5.4-3.1-9.3c0.1-3.9,1.3-7.1,3.5-9.5
			c2.2-2.4,5.1-3.5,8.7-3.4c1.6,0,3.3,0.5,5.1,1.4c0.5,0.3,1,0.4,1.4,0.4c0.5,0,0.8-0.3,0.9-0.8c0.1-0.3,0.3-0.5,0.4-0.5
			c0.2,0,0.3,0.1,0.3,0.3c0,0.1,0,0.3-0.1,0.8c-0.2,1.4-0.2,2.3-0.3,2.9l-0.1,2.3c0,0.8,0,1.2,0,1.1c-0.1,0.6-0.2,0.9-0.5,0.9
			c-0.2,0-0.3-0.2-0.3-0.5c-0.1-2.3-0.7-4.2-1.9-5.6c-1.2-1.4-2.8-2.1-4.8-2.1c-2.5-0.1-4.5,1-6,3.2c-1.5,2.2-2.3,5.2-2.4,9.1
			c-0.1,3.7,0.6,6.7,2,8.9c1.4,2.2,3.4,3.3,5.9,3.4c1.9,0,3.3-0.5,4-1.6c0.4-0.5,0.6-1.5,0.6-3c0-1.2-0.1-1.9-0.3-2.1
			c-0.2-0.2-1-0.3-2.4-0.3c-0.3,0-0.6,0-0.6-0.1s-0.1-0.1-0.1-0.2c0-0.3,0.3-0.4,0.8-0.4l0.6,0c0.4,0,1.6,0.1,3.8,0.1l3,0.1
			c0.2,0,0.3,0,0.5,0c0.2,0,0.3,0,0.4,0C391.6,493.4,391.8,493.6,391.8,493.8z"/>
		<path class="st0" d="M423.3,488.2c-0.5,2.3-1.9,3.8-4.1,4.7c-1.4,0.5-3,0.6-4.9,0.2c-0.8-0.2-1.7-0.5-2.7-0.8l-2.2,10
			c-0.1,0.5-0.2,0.9-0.2,1c0,0.4,0.3,0.6,0.6,0.8c0.7,0.2,1.3,0.4,1.9,0.6c0.3,0.1,0.4,0.2,0.3,0.3c-0.1,0.2-0.2,0.3-0.6,0.2
			c-0.1,0-0.3-0.1-0.4-0.1c-1.3-0.3-3.7-0.8-7.3-1.6l-0.5-0.1c-0.7-0.2-1-0.3-1-0.6c0-0.2,0.3-0.2,0.8-0.1c1.1,0.2,1.8,0.3,2,0.1
			c0.2-0.1,0.4-0.3,0.5-0.6l4.6-20.8c0.2-0.7,0.1-1.2-0.3-1.5c-0.2-0.1-0.6-0.3-1.2-0.4l-0.4-0.1c-0.1,0-0.2,0-0.2-0.1
			c-0.4-0.1-0.5-0.2-0.5-0.4c0-0.2,0.4-0.2,1.1-0.1l7.7,1.7c2.7,0.6,4.5,1.5,5.6,2.7C423.4,484.6,423.7,486.2,423.3,488.2z
			 M419.6,487.4c0.8-3.5-0.3-5.6-3.3-6.3c-1-0.2-1.7-0.2-2,0.1c-0.2,0.1-0.3,0.5-0.5,1.1l-2.1,9.4c0.2,0.1,0.4,0.1,0.6,0.2
			c1.5,0.3,2.9,0.3,4.2-0.2C418.1,491.1,419.1,489.7,419.6,487.4z"/>
		<path class="st0" d="M441,511.3c-0.2,0.6-0.6,1.5-1.2,2.9l-0.4-0.1c-0.1,0-0.5-0.2-1-0.4c-0.5-0.2-1.1-0.5-1.7-0.7l-14-5.2
			c-0.4-0.1-0.5-0.3-0.5-0.5c0.1-0.2,0.4-0.1,1,0c0.9,0.3,1.4,0.4,1.6,0.3c0.2-0.1,0.5-0.5,0.7-1.2l6.9-19c0.3-0.8,0.4-1.4,0.3-1.5
			c-0.1-0.2-0.7-0.5-1.7-0.9c-0.4-0.2-0.6-0.4-0.5-0.6c0.1-0.2,0.2-0.3,0.5-0.2l0.3,0.1c0.7,0.3,2.2,0.9,4.4,1.7
			c0.2,0.1,0.6,0.2,1.2,0.4c0.6,0.2,1.1,0.3,1.5,0.5l0.4,0.1c0.4,0.1,0.6,0.3,0.5,0.6c0,0.1-0.1,0.2-0.3,0.2c-0.1,0-0.5-0.1-1.2-0.3
			c-0.7-0.2-1.1-0.2-1.3-0.1c-0.2,0.1-0.5,0.7-0.8,1.7l-7.2,20c0.6,0.2,1.4,0.6,2.5,0.9c2.6,1,4.6,1.5,5.7,1.6
			c1.2,0.1,2.1-0.1,2.8-0.7c0.7-0.6,1.2-1.5,1.8-2.8c0.1-0.3,0.3-0.4,0.5-0.3c0.3,0.1,0.4,0.3,0.2,0.6l-0.3,0.8c0,0-0.1,0.1-0.1,0.3
			c-0.1,0.2-0.1,0.3-0.2,0.5L441,511.3z"/>
		<path class="st0" d="M462.9,525.5c-0.1,0.2-0.3,0.2-0.6,0c-0.2-0.1-0.4-0.2-0.6-0.3l-4-2.3l-4.1-2c-0.2-0.1-0.3-0.1-0.5-0.2
			c-0.4-0.2-0.6-0.4-0.5-0.7c0.1-0.2,0.5-0.2,1.1,0.1c1.9,1,2.9,1.3,3.1,0.9c0,0,0-0.1,0.1-0.3l0.2-1l0.1-0.5
			c0.2-0.8,0.5-2.5,0.9-5.1l-6.8-3.6c-3.1,2.7-4.7,4.3-5,4.9c-0.2,0.3-0.1,0.5,0.1,0.7c0.1,0.1,0.6,0.4,1.5,1
			c0.6,0.3,0.9,0.6,0.8,0.8c-0.1,0.2-0.4,0.2-1-0.1c-1-0.5-2.1-1.2-3.3-1.9c-0.3-0.2-0.6-0.4-1-0.6c-0.3-0.2-0.7-0.3-1-0.4
			c-0.2-0.1-0.3-0.1-0.4-0.2c-0.3-0.2-0.4-0.3-0.3-0.5c0.1-0.2,0.5-0.1,1.2,0.2c0.7,0.3,1.2,0.5,1.6,0.5c0.4,0,0.8-0.2,1.2-0.7
			c6.9-6.4,12.4-11.5,16.6-15.4c0.2-0.2,0.4-0.5,0.7-0.7l0.4-0.5c0.2-0.2,0.3-0.3,0.4-0.2c0.1,0,0.1,0.1,0.1,0.3
			c-0.2,1-0.4,3-0.9,6.2c-0.3,2.5-1.1,8.6-2.5,18.5c-0.1,0.6,0,1,0.2,1.3s0.7,0.6,1.5,1.1C462.7,525,463,525.3,462.9,525.5z
			 M458.2,513.3c0.2-1.1,0.4-3,0.8-5.7l0.8-5.2c-2.1,1.9-4.8,4.4-8.1,7.5L458.2,513.3z"/>
		<path class="st0" d="M496.1,519.6c-0.1,0.2-0.4,0.1-0.9-0.3l-0.6-0.5l-0.5-0.4c-0.3-0.2-0.5-0.3-0.7-0.2s-0.4,0.4-0.8,0.9
			l-12.2,16.7c-0.8,1-1.2,1.6-1.3,1.8c-0.1,0.2-0.3,0.2-0.4,0.1c-0.1-0.1-0.2-0.3-0.2-0.6l0.3-8.2c0.2-4.7,0.5-10.6,0.9-17.6
			l-11.9,16.3c-0.2,0.3-0.1,0.5,0.1,0.8c0.2,0.3,0.8,0.8,1.9,1.6c0.3,0.2,0.3,0.4,0.2,0.5c-0.1,0.2-0.5,0.1-1-0.3
			c-0.2-0.1-0.7-0.6-1.6-1.3c-0.3-0.2-0.6-0.5-0.9-0.7c0,0-0.2-0.1-0.5-0.3c-0.4-0.2-0.9-0.6-1.7-1.1l-0.3-0.2
			c-0.4-0.3-0.6-0.6-0.5-0.8s0.4-0.1,0.8,0.2c1.2,0.8,1.9,1.2,2.1,1.2c0.3,0,0.7-0.3,1.2-1l10.5-14.3c1.2-1.6,1.6-2.9,1.2-3.7
			c-0.2-0.4-0.6-0.9-1.4-1.5c-0.5-0.4-0.7-0.7-0.5-0.9c0.1-0.2,0.3-0.2,0.6,0c0.4,0.3,0.9,0.7,1.4,1.1c0.6,0.5,0.9,0.7,0.9,0.8
			c0.1,0,0.3,0.2,0.8,0.6c0.6,0.5,1.3,0.9,1.9,1.3l-1,22.3l9.5-12.9c0.4-0.6,0.7-1,0.8-1.1s0.1-0.3,0-0.5c-0.1-0.2-0.5-0.5-1.3-1.1
			c-0.7-0.5-1-0.9-0.9-1c0.1-0.2,0.4-0.1,0.9,0.2l1,0.7c0.3,0.2,0.5,0.4,0.8,0.6c0.3,0.2,0.5,0.4,0.6,0.4c0,0,0.2,0.1,0.5,0.4
			c0.3,0.2,0.6,0.4,0.9,0.6l0.9,0.7C496.1,519.2,496.3,519.4,496.1,519.6z"/>
		<path class="st0" d="M517.1,539.9c-0.2,0.2-0.5,0-0.9-0.4l-0.6-0.6l-0.5-0.5c-0.3-0.3-0.5-0.4-0.6-0.3c-0.1,0-0.5,0.3-0.9,0.8
			L499,553.6c-0.9,0.9-1.4,1.4-1.6,1.5c-0.2,0.1-0.3,0.2-0.4,0.1c-0.1-0.1-0.1-0.3-0.1-0.6l1.5-8c0.9-4.7,2.1-10.4,3.5-17.3
			l-14.3,14.2c-0.2,0.2-0.2,0.5,0,0.8c0.2,0.3,0.7,0.9,1.6,1.8c0.2,0.2,0.3,0.4,0.1,0.5c-0.2,0.2-0.5,0-0.9-0.4
			c-0.2-0.2-0.6-0.7-1.4-1.5c-0.3-0.3-0.5-0.6-0.8-0.8c0,0-0.1-0.1-0.5-0.4s-0.8-0.7-1.5-1.4l-0.3-0.3c-0.4-0.4-0.5-0.7-0.4-0.8
			c0.2-0.2,0.4-0.1,0.7,0.3c1,1,1.7,1.5,1.9,1.6c0.3,0.1,0.7-0.2,1.3-0.8l12.6-12.6c1.4-1.4,2-2.6,1.8-3.5c-0.1-0.4-0.5-1-1.2-1.7
			c-0.4-0.4-0.6-0.8-0.4-0.9c0.2-0.2,0.4-0.1,0.6,0.1c0.3,0.3,0.8,0.8,1.2,1.4c0.5,0.6,0.8,0.9,0.8,0.9c0.1,0.1,0.3,0.3,0.7,0.7
			c0.6,0.6,1.1,1.1,1.7,1.6l-4.3,21.9l11.3-11.3c0.5-0.5,0.8-0.9,0.9-1c0.1-0.1,0.1-0.3,0.1-0.5c-0.1-0.2-0.4-0.6-1.1-1.3
			c-0.6-0.6-0.8-1-0.7-1.1c0.2-0.2,0.5-0.1,0.9,0.4l0.9,0.9c0.2,0.2,0.5,0.5,0.7,0.7c0.3,0.3,0.4,0.4,0.5,0.5c0,0,0.2,0.2,0.5,0.5
			c0.3,0.3,0.5,0.5,0.8,0.8l0.8,0.8C517.2,539.5,517.3,539.8,517.1,539.9z"/>
		<path class="st0" d="M507.7,567.4c-0.2,0.1-0.3,0.1-0.5-0.2l-0.2-0.3c0-0.2-1-1.5-2.9-3.9c-0.4-0.5-0.8-0.9-1.2-1.4
			c-0.2-0.2-0.5-0.6-0.9-1.1c-0.2-0.2-0.2-0.4,0-0.6c0.2-0.1,0.4,0.1,0.8,0.5c0.6,0.7,1.1,1.1,1.3,1.1c0.3,0,0.9-0.4,1.8-1.1
			l14.9-11.8c0.9-0.7,1.4-1.2,1.4-1.4c0.1-0.3-0.2-0.9-0.9-1.8c-0.3-0.4-0.3-0.6-0.2-0.7c0.1-0.1,0.3-0.1,0.5,0.2l3,3.8
			c0.2,0.3,0.6,0.8,1.3,1.7l0.9,1.1c0.2,0.3,0.3,0.5,0.1,0.6c-0.1,0.1-0.6-0.2-1.3-1c-0.4-0.5-0.7-0.7-0.9-0.7
			c-0.2,0-0.7,0.3-1.3,0.8l-15.1,11.9c-1.1,0.8-1.6,1.4-1.6,1.5c0,0.4,0.3,1.1,1.1,2.1C507.8,567.1,507.8,567.2,507.7,567.4z"/>
		<path class="st0" d="M542.6,576.6c-0.2,0.1-0.5-0.1-0.7-0.6l-0.4-0.7l-0.3-0.6c-0.2-0.3-0.4-0.5-0.5-0.5c-0.1,0-0.5,0.2-1.1,0.5
			l-17.7,10.8c-1.1,0.7-1.7,1-1.9,1.1c-0.2,0.1-0.3,0.1-0.4,0c-0.1-0.1,0-0.3,0.1-0.6l3.3-7.4c2-4.3,4.4-9.7,7.5-16l-17.2,10.5
			c-0.3,0.2-0.3,0.4-0.2,0.8s0.5,1.1,1.1,2.2c0.2,0.3,0.2,0.5,0,0.6c-0.2,0.1-0.5-0.1-0.8-0.6c-0.1-0.2-0.4-0.8-1-1.8
			c-0.2-0.3-0.4-0.7-0.6-1c0,0-0.1-0.1-0.4-0.5c-0.3-0.4-0.6-0.9-1.1-1.7l-0.2-0.3c-0.3-0.5-0.3-0.8-0.2-0.9c0.2-0.1,0.4,0,0.7,0.4
			c0.8,1.2,1.3,1.8,1.5,2c0.3,0.1,0.7-0.1,1.5-0.5l15.2-9.3c1.7-1,2.6-2,2.6-3c0-0.5-0.3-1.1-0.8-1.9c-0.3-0.5-0.4-0.9-0.2-1
			c0.2-0.1,0.4,0,0.6,0.3c0.3,0.4,0.5,0.9,0.9,1.6c0.3,0.7,0.5,1,0.6,1.1c0,0.1,0.2,0.3,0.6,0.8c0.4,0.7,0.8,1.3,1.3,1.9l-9.3,20.3
			l13.7-8.4c0.6-0.4,1-0.6,1.1-0.7c0.1-0.1,0.2-0.2,0.2-0.4c0-0.2-0.3-0.7-0.8-1.5c-0.5-0.7-0.6-1.2-0.4-1.3
			c0.2-0.1,0.5,0.1,0.8,0.5l0.7,1.1c0.2,0.3,0.3,0.6,0.5,0.9c0.2,0.3,0.3,0.5,0.4,0.6c0,0,0.1,0.2,0.3,0.6c0.2,0.3,0.4,0.6,0.6,0.9
			l0.6,1C542.7,576.2,542.8,576.5,542.6,576.6z"/>
		<path class="st0" d="M539.1,611.4c-0.2,0.1-0.3,0-0.4-0.2l-0.3-0.8c-0.4-1-0.8-1.5-1.2-1.5c-0.3,0-1.3,0.4-2.9,1.1l-1.1,0.4
			c-1.4-0.7-2.6-1.5-3.4-2.4c-0.8-0.9-1.6-2.1-2.2-3.5c-1.5-3.5-1.6-6.7-0.3-9.6c1.2-2.9,3.7-5.1,7.2-6.6c3.6-1.5,7-1.7,10.1-0.6
			c3.1,1.1,5.3,3.3,6.7,6.6c0.6,1.4,0.9,3.2,0.8,5.2c0,0.6,0,1.1,0.2,1.4c0.2,0.4,0.6,0.6,1.1,0.5c0.4,0,0.6,0.1,0.6,0.2
			c0.1,0.2,0,0.3-0.2,0.4c-0.1,0-0.3,0.1-0.7,0.2c-1.3,0.4-2.2,0.7-2.8,1l-2.2,0.9c-0.8,0.3-1.1,0.5-1,0.5c-0.6,0.2-0.9,0.1-1-0.1
			c-0.1-0.2,0-0.4,0.3-0.5c2.1-1,3.6-2.3,4.3-4c0.8-1.6,0.8-3.4,0-5.2c-1-2.3-2.7-3.7-5.4-4.2c-2.6-0.5-5.7,0-9.3,1.5
			c-3.4,1.4-5.9,3.2-7.3,5.4c-1.4,2.2-1.7,4.5-0.7,6.8c0.7,1.8,1.8,2.8,3,3c0.6,0.1,1.6-0.1,3-0.6c1.1-0.5,1.7-0.8,1.8-1.1
			c0.1-0.3-0.1-1.1-0.6-2.3c-0.1-0.3-0.2-0.5-0.2-0.6c0-0.1,0-0.2,0.2-0.2c0.2-0.1,0.5,0.1,0.7,0.6l0.2,0.6c0.1,0.3,0.6,1.5,1.5,3.5
			l1.2,2.8c0.1,0.2,0.1,0.3,0.2,0.5c0.1,0.2,0.1,0.3,0.2,0.4C539.3,611,539.3,611.3,539.1,611.4z"/>
		<path class="st0" d="M537.2,634.3c-0.2,0-0.3-0.1-0.4-0.4l-0.1-0.4c0-0.2-0.3-1.8-1-4.8c-0.1-0.6-0.3-1.2-0.5-1.7
			c-0.1-0.3-0.2-0.8-0.3-1.4c-0.1-0.3,0-0.5,0.2-0.5c0.2,0,0.4,0.2,0.5,0.8c0.2,0.9,0.5,1.5,0.7,1.6c0.2,0.1,0.9,0.1,2.1-0.2
			l18.5-4.1c1.2-0.3,1.8-0.5,1.9-0.6c0.2-0.2,0.2-0.9,0-2.1c-0.1-0.5,0-0.7,0.1-0.7c0.2,0,0.3,0.1,0.4,0.4l1.1,4.8
			c0.1,0.4,0.2,1,0.4,2.1l0.3,1.3c0.1,0.4,0,0.6-0.2,0.6c-0.2,0-0.4-0.5-0.7-1.5c-0.2-0.6-0.3-0.9-0.6-1c-0.2-0.1-0.7,0-1.5,0.1
			l-18.8,4.2c-1.3,0.3-2,0.5-2.1,0.7c-0.2,0.3-0.2,1.1,0.1,2.4C537.4,634.1,537.4,634.2,537.2,634.3z"/>
		<path class="st0" d="M564.6,657.7c-0.2,0-0.4-0.3-0.4-0.9l-0.1-0.8l-0.1-0.6c0-0.4-0.1-0.6-0.3-0.7c-0.1-0.1-0.5-0.1-1.2,0
			l-20.6,2.1c-1.3,0.1-2,0.2-2.2,0.2c-0.2,0-0.3-0.1-0.3-0.2c0-0.1,0.1-0.3,0.3-0.5l6.2-5.3c3.6-3,8.2-6.8,13.7-11.2l-20.1,2
			c-0.3,0.1-0.5,0.3-0.5,0.6c0,0.3,0,1.2,0.1,2.4c0,0.3,0,0.5-0.2,0.5c-0.2,0-0.4-0.3-0.5-0.9c0-0.2-0.1-0.9-0.1-2.1
			c0-0.4,0-0.8-0.1-1.1c0,0,0-0.2-0.1-0.6c-0.1-0.4-0.2-1.1-0.3-2l0-0.4c-0.1-0.5,0-0.8,0.2-0.9s0.3,0.2,0.4,0.7
			c0.2,1.4,0.3,2.2,0.5,2.4c0.2,0.2,0.7,0.3,1.6,0.2l17.7-1.8c2-0.2,3.2-0.7,3.6-1.6c0.2-0.4,0.3-1.1,0.2-2.1c-0.1-0.6,0-0.9,0.3-1
			c0.2,0,0.4,0.1,0.4,0.5c0,0.5,0.1,1.1,0.1,1.8c0,0.7,0,1.1,0,1.2c0,0.1,0.1,0.4,0.1,1c0.1,0.8,0.2,1.5,0.3,2.3l-17.2,14.2
			l15.9-1.6c0.7-0.1,1.2-0.1,1.3-0.2c0.2,0,0.3-0.1,0.3-0.3c0.1-0.2,0.1-0.8,0-1.7c-0.1-0.9,0-1.3,0.2-1.3c0.2,0,0.4,0.2,0.4,0.8
			l0.1,1.3c0,0.3,0.1,0.6,0.1,1c0,0.4,0.1,0.6,0.1,0.7c0,0,0,0.2,0.1,0.6c0,0.4,0.1,0.7,0.1,1.1l0.1,1.1
			C564.9,657.4,564.8,657.7,564.6,657.7z"/>
		<path class="st0" d="M546.4,679.7c-2.1-0.1-3.8-0.9-5.2-2.5c-1.4-1.6-2.1-3.5-2-5.7c0-1.3,0.5-2.8,1.4-4.6
			c0.2-0.5,0.4-0.8,0.4-1.1c0-0.3-0.3-0.5-1-0.6c-0.3,0-0.5-0.2-0.5-0.5c0-0.2,0.2-0.4,0.4-0.3c0.2,0,0.3,0,0.4,0.1
			c1.5,0.2,2.8,0.4,4.1,0.4c0.2,0,0.9,0,2,0c0.1,0,0.3,0,0.6,0c0.4,0,0.5,0.2,0.5,0.5c0,0.2-0.3,0.4-0.9,0.5
			c-4.3,0.5-6.6,2.4-6.7,5.9c-0.1,1.5,0.3,2.6,1.1,3.4c0.8,0.8,2,1.3,3.5,1.3c1.3,0,2.5-0.3,3.5-1c1-0.7,2-2,3-3.9
			c1.2-2.2,2.4-3.8,3.4-4.6c1.1-0.9,2.4-1.2,4-1.2c2,0.1,3.6,0.8,4.9,2.1c1.2,1.3,1.8,3,1.8,4.9c0,0.8-0.3,1.9-0.9,3.4
			c-0.2,0.5-0.3,0.9-0.3,1.1c0,0.3,0,0.4,0.1,0.5c0.1,0.1,0.3,0.2,0.7,0.3c0.2,0.1,0.4,0.2,0.3,0.4c0,0.2-0.2,0.4-0.4,0.3
			c-0.2,0-0.3,0-0.4-0.1c-0.6-0.1-1.3-0.2-2.1-0.2c-1.2,0-2.1,0-2.7,0.1l-0.6,0c-0.3,0-0.4-0.1-0.4-0.3c0-0.3,0.3-0.4,0.8-0.5
			c1.4-0.2,2.6-0.8,3.6-1.7c1-1,1.5-2,1.5-3.3c0-1.2-0.3-2.2-1.1-2.9c-0.7-0.7-1.8-1.1-3.1-1.2c-1.5-0.1-2.8,0.4-3.8,1.4
			c-0.5,0.6-1.3,1.8-2.4,3.7c-1.2,2.2-2.4,3.8-3.6,4.7C549.2,679.3,547.9,679.7,546.4,679.7z"/>
		<path class="st0" d="M554.2,705.7c-0.3-0.1-0.4-0.2-0.4-0.5c0-0.3,0.4-0.4,1-0.5c0.4,0,0.9,0,1.3,0.1c0.9,0,1.6-0.2,2.3-0.5
			c0.9-0.4,1.5-1.1,1.9-2.2c0.3-0.7,0.4-1.3,0.5-1.7c0.2-1.1,0.2-1.8,0.3-2l-21.4-3.6c-0.9-0.1-1.4,0-1.7,0.4
			c-0.2,0.2-0.3,0.9-0.5,2c-0.1,0.3-0.2,0.4-0.4,0.4c-0.2,0-0.3-0.2-0.2-0.6c0-0.2,0.1-0.4,0.1-0.5c0.3-1.4,0.5-2.4,0.6-3
			c0.1-0.8,0.2-1.5,0.3-2.2c0.1-0.7,0.2-1.6,0.4-2.6c0.1-0.5,0.2-0.8,0.4-0.8c0.2,0,0.2,0.6,0.1,1.6c-0.1,0.7,0,1.2,0.2,1.5
			c0.2,0.2,0.6,0.3,1.4,0.4l21.3,3.5c0.4-2.3,0.5-3.8,0.4-4.4c-0.3-1.6-1.6-2.7-3.9-3.4c-0.7-0.2-1-0.4-1-0.7c0-0.3,0.3-0.4,0.8-0.3
			c0.3,0,0.5,0.1,0.8,0.2l0.8,0.2c1.1,0.3,2.5,0.6,4.2,1l-0.3,1.6l-1.3,7.2c-0.2,0.8-0.4,2.2-0.7,4l-0.9,5.9c-1.3-0.2-3.3-0.3-6-0.5
			c-0.1,0-0.2,0-0.3,0S554.2,705.7,554.2,705.7z"/>
		<path class="st0" d="M532.5,715.2c-0.2-0.1-0.3-0.2-0.2-0.5l0.1-0.3c0.1-0.1,0.6-1.7,1.4-4.7c0.2-0.6,0.3-1.2,0.4-1.8
			c0.1-0.3,0.2-0.8,0.4-1.4c0.1-0.3,0.2-0.4,0.4-0.4c0.2,0.1,0.2,0.4,0.1,1c-0.2,0.9-0.3,1.5-0.1,1.7s0.8,0.5,1.9,0.8l18.3,5.2
			c1.1,0.3,1.8,0.4,2,0.4c0.3-0.1,0.6-0.7,1-1.8c0.1-0.4,0.3-0.6,0.4-0.6c0.2,0.1,0.2,0.2,0.2,0.5l-1.3,4.7c-0.1,0.3-0.3,1-0.6,2
			l-0.3,1.3c-0.1,0.4-0.3,0.5-0.5,0.5c-0.2,0-0.1-0.6,0.1-1.6c0.1-0.6,0.1-1,0-1.2c-0.1-0.2-0.6-0.4-1.4-0.6l-18.5-5.2
			c-1.3-0.4-2-0.5-2.2-0.4c-0.3,0.2-0.7,0.9-1.1,2.1C532.9,715.1,532.7,715.2,532.5,715.2z"/>
		<path class="st0" d="M541,744c-0.3-0.1-0.4-0.3-0.3-0.6s0.5-0.3,1.1-0.2c0.4,0.1,0.8,0.2,1.3,0.4c0.9,0.2,1.6,0.2,2.3,0.1
			c0.9-0.2,1.7-0.7,2.3-1.7c0.4-0.6,0.7-1.2,0.8-1.6c0.4-1.1,0.6-1.7,0.7-1.9l-20.1-8.2c-0.8-0.3-1.4-0.3-1.8,0
			c-0.2,0.2-0.5,0.8-1,1.8c-0.1,0.3-0.3,0.4-0.4,0.3c-0.2-0.1-0.2-0.3-0.1-0.6c0.1-0.2,0.1-0.3,0.2-0.5c0.6-1.3,1-2.3,1.2-2.8
			c0.3-0.7,0.6-1.4,0.8-2.1s0.5-1.5,1-2.5c0.2-0.5,0.4-0.7,0.6-0.7c0.2,0.1,0.1,0.6-0.3,1.6c-0.3,0.7-0.3,1.2-0.1,1.5
			c0.1,0.2,0.6,0.4,1.3,0.7l20,8.2c0.9-2.2,1.3-3.6,1.3-4.2c0.1-1.6-1-3-3.1-4.1c-0.6-0.3-0.9-0.6-0.8-0.9c0.1-0.3,0.4-0.3,0.9-0.1
			c0.2,0.1,0.5,0.2,0.7,0.3l0.7,0.4c1,0.5,2.3,1.1,3.9,1.9l-0.6,1.5l-2.9,6.8c-0.3,0.8-0.9,2-1.5,3.7l-2.2,5.6
			c-1.3-0.5-3.2-1.1-5.7-1.8c-0.1,0-0.2,0-0.3-0.1C541.1,744.1,541.1,744.1,541,744z"/>
		<path class="st0" d="M532,772.1c-0.2-0.1-0.1-0.3,0.1-0.7c0-0.1,0.2-0.3,0.4-0.6c0.1-0.1,0.1-0.2,0.3-0.4c0.3-0.5,0.4-0.9,0.1-1.2
			c-0.1-0.1-0.3-0.3-0.7-0.5l-11.6-6.9c-3-1.8-4.9-3.6-5.6-5.6c-0.7-1.9-0.3-4.2,1.2-6.7c1.8-3,3.9-4.6,6.3-4.8
			c1.6-0.1,3.7,0.6,6.3,2.1l12.4,7.4c0.4,0.2,0.8,0,1.1-0.3c0.1-0.1,0.3-0.5,0.7-1.1c0.3-0.3,0.5-0.4,0.6-0.3c0.2,0.1,0.2,0.3,0,0.6
			l-0.3,0.6c-0.1,0.1-0.2,0.3-0.4,0.7c-0.2,0.3-0.4,0.6-0.5,0.9l-2.6,4.4c-0.1,0.1-0.1,0.2-0.2,0.4c-0.2,0.4-0.4,0.5-0.7,0.3
			c-0.1-0.1-0.2-0.2-0.1-0.3c0.1-0.1,0.3-0.6,0.7-1.3c0.2-0.3,0.3-0.5,0.3-0.6c0-0.3,0-0.5-0.2-0.6c-0.1-0.1-0.7-0.4-1.7-1.1
			l-11.1-6.6c-2.7-1.6-4.8-2.3-6.3-2c-1.5,0.3-2.8,1.3-3.8,3c-1.9,3.1-1.1,6,2.2,8.5c0.5,0.4,2.7,1.8,6.7,4.1l1.8,1l2.5,1.5l2.1,1.3
			c0.2,0.1,0.4,0.3,0.7,0.4c0.3,0.2,0.4,0.2,0.3,0.2c0.5,0.3,0.9,0.2,1.2-0.1c0.1-0.1,0.4-0.5,0.8-1.2c0.2-0.4,0.5-0.5,0.7-0.4
			c0.2,0.1,0.2,0.3,0,0.6c-0.1,0.2-0.2,0.3-0.2,0.4c-0.1,0.2-0.7,1.1-1.6,2.7c-0.1,0.2-0.3,0.5-0.5,0.8c-0.2,0.3-0.3,0.5-0.3,0.6
			l-0.3,0.5C532.5,772.1,532.2,772.3,532,772.1z"/>
		<path class="st0" d="M511,788.9c-0.2-0.2-0.3-0.4-0.1-0.6s0.6-0.2,1.1,0.1c0.4,0.2,0.7,0.5,1.1,0.7c0.8,0.4,1.5,0.7,2.2,0.7
			c0.9,0.1,1.8-0.2,2.7-1c0.6-0.5,1-0.9,1.3-1.3c0.7-0.9,1.1-1.4,1.2-1.6l-16.9-13.7c-0.7-0.5-1.2-0.7-1.7-0.5
			c-0.2,0.1-0.7,0.6-1.4,1.4c-0.2,0.2-0.4,0.3-0.5,0.1c-0.2-0.1-0.1-0.3,0.1-0.6c0.1-0.1,0.2-0.3,0.3-0.4c0.9-1.1,1.6-1.9,2-2.3
			c0.5-0.6,1-1.2,1.4-1.8s1-1.3,1.6-2.1c0.3-0.4,0.6-0.6,0.7-0.5c0.2,0.1-0.1,0.6-0.7,1.4c-0.5,0.6-0.7,1-0.5,1.4
			c0.1,0.2,0.4,0.6,1,1.1l16.8,13.6c1.5-1.9,2.3-3.1,2.5-3.7c0.5-1.5-0.1-3.1-1.8-4.9c-0.5-0.5-0.7-0.9-0.5-1.1
			c0.2-0.2,0.5-0.2,0.9,0.1c0.2,0.2,0.4,0.3,0.6,0.5l0.6,0.6c0.8,0.8,1.9,1.8,3.2,3l-1,1.3l-4.7,5.6c-0.6,0.7-1.4,1.7-2.5,3.1
			l-3.7,4.7c-1.1-0.8-2.7-1.9-4.9-3.4c-0.1,0-0.1-0.1-0.2-0.1S511,789,511,788.9z"/>
		<path class="st0" d="M484.1,797c-0.1-0.1-0.4-0.5-1.1-1.3c-0.7-0.8-1.4-1.6-2.1-2.3l-0.8-0.9c1.8-1.5,5.3-4.6,10.4-9.4
			c0.6-0.6,1.2-1.1,1.8-1.7c0.6-0.6,1-0.9,1.2-1.1l0.3-0.2c0.3-0.3,0.6-0.4,0.7-0.3c0.1,0.1,0.1,0.2,0,0.3c-0.1,0-0.4,0.4-0.9,1
			c-0.4,0.5-0.6,0.8-0.6,1.1c0.1,0.2,0.4,0.7,1,1.4l13.8,14.9c0.5,0.5,0.8,0.7,1.1,0.7c0.2,0,0.8-0.4,1.6-1.2
			c0.3-0.3,0.5-0.3,0.6-0.2c0.1,0.1,0,0.4-0.4,0.8l-4.5,4.2c-0.2,0.1-1.2,1.1-3,2.8c-1.8,1.7-3.1,2.8-3.7,3.4c-0.5,0.5-1,1-1.4,1.5
			c-0.7-0.7-1.8-1.7-3.2-2.9l-1.2-1c-0.1-0.1-0.2-0.2-0.3-0.3c-0.2-0.2-0.2-0.3,0-0.5c0.2-0.2,0.5-0.1,1,0.3
			c1.8,1.3,3.3,1.8,4.4,1.5c0.9-0.2,2.5-1.4,4.9-3.6l2.2-2l-7.2-7.7l-0.6,0.6c-2,1.8-3,3.1-3.2,3.8c-0.2,0.7,0.4,1.8,1.5,3.4
			c0.3,0.4,0.4,0.7,0.2,0.8c-0.2,0.2-0.4,0.1-0.7-0.2c-0.3-0.3-0.7-0.8-1.2-1.4c-0.5-0.6-1-1.1-1.2-1.4c-1.8-1.9-3-3.1-3.7-3.8
			c-0.2-0.2-0.3-0.3-0.4-0.4c-0.2-0.2-0.2-0.4,0-0.6c0.1-0.1,0.3-0.1,0.5,0c0.2,0.1,0.7,0.5,1.6,1.3c1.1,0.9,2.1,1.1,3.1,0.7
			c0.4-0.2,1.3-0.9,2.6-2.1l1.2-1.1l-8.2-8.8c-3.9,3.6-6.1,5.8-6.6,6.6c-0.9,1.3-0.5,3.1,1.1,5.2c0.4,0.5,0.5,0.8,0.3,1
			C484.7,797.5,484.4,797.4,484.1,797z"/>
	</g>
	<g>
		<path class="st0" d="M303.2,655.9c0,1.8-0.1,4.8-0.3,9h-1.2c-0.4,0-1.4-0.1-3-0.2c-1.6-0.1-3.4-0.2-5.4-0.2l-43.6-0.3
			c-1.2,0-1.8-0.3-1.8-0.9c0-0.5,0.9-0.8,2.8-0.9c2.7-0.1,4.3-0.4,4.8-0.9c0.5-0.5,0.8-1.8,0.8-3.9v-59c0-2.6-0.3-4.1-0.8-4.5
			c-0.5-0.4-2.4-0.6-5.6-0.6c-1.3,0-2-0.4-2-1.2c0-0.6,0.4-0.9,1.3-0.9h0.9c2.3,0.2,6.9,0.3,13.8,0.3c0.6,0,1.9-0.1,3.7-0.2
			c1.8-0.1,3.3-0.2,4.5-0.2h1.2c1.3,0,1.9,0.4,1.9,1c0,0.4-0.2,0.7-0.6,0.8c-0.4,0.1-1.6,0.2-3.6,0.3c-2,0.1-3.2,0.4-3.6,1
			c-0.4,0.6-0.6,2.4-0.6,5.5v62c1.9,0.1,4.5,0.1,7.9,0.1c8.2,0,14-0.4,17.3-1.3s5.6-2.4,6.8-4.7c1.2-2.3,1.9-5.4,2.1-9.3
			c0.1-0.9,0.5-1.4,1.2-1.4c0.9,0,1.3,0.5,1.2,1.6v2.6c0,0.1,0,0.5,0,0.9c0,0.5,0,1,0,1.5V655.9z"/>
		<path class="st0" d="M407.4,592.2c0,0.6-1.2,0.9-3.6,1c-2.7,0.1-4.4,0.9-5.3,2.6c-0.9,1.7-2.2,5.2-4,10.7
			c-3.2,9.6-6,17.7-8.4,24.5c-4.2,11.5-8,22.6-11.4,33.3c-0.3,0.9-0.6,1.4-1.1,1.4c-0.4,0-0.7-0.3-1-1c-0.3-0.7-1.3-3.1-2.9-7.3
			c-1.9-5.5-4.1-11-6.4-16.5c-1.8-4.3-3.6-8.8-5.3-13.5c-4.9,11.8-9.7,24.2-14.5,37.1c-0.3,0.8-0.6,1.3-1.1,1.3
			c-0.4,0-0.8-0.6-1.3-1.8c-2.2-5.2-10.2-26.6-24.2-64.4c-1-2.7-1.7-4.3-2.2-5c-0.5-0.7-1.7-1-3.7-1.1c-3.4-0.1-5-0.6-5-1.5
			c0-0.6,0.6-0.9,1.7-0.9c0.5,0,0.9,0,1.3,0.1c3.7,0.2,7.7,0.3,12,0.3c0.8,0,2.3-0.1,4.4-0.2c2.1-0.1,4.7-0.2,8-0.2h1.2
			c1.2,0,1.8,0.3,1.8,1c0,0.8-1.1,1.2-3.2,1.3c-4.3,0.1-6.5,0.7-6.5,1.7c0,2,6.4,20.2,19.3,54.7c4.7-11.8,8.2-20.5,10.5-26.1
			l-10.4-26.9c-0.6-1.5-1.2-2.4-2-2.8c-0.7-0.4-2.1-0.7-4.1-0.7c-2-0.1-3-0.4-3-0.9c0-0.8,0.7-1.2,2.2-1.2c1.1,0,2.5,0.1,4.1,0.2
			c1.6,0.1,4.4,0.2,8.4,0.2h8h11.6c2.6,0,5.7-0.1,9.3-0.3c0.4-0.1,0.9-0.1,1.5-0.1c1.7,0,2.5,0.4,2.5,1.1c0,0.7-0.6,1-1.8,1h-1.8
			c-3.2,0-5.5,0.4-7.1,1.3c-0.7,0.4-2,2.9-3.9,7.6c-0.8,2-2.3,5.3-4.2,10c-0.4,1.1-1,2.6-1.9,4.7c0.5,1.4,2,5.3,4.6,11.7
			c3.3,8.1,6.1,15.1,8.2,20.8c3.9-11.3,8.6-24.7,13.9-40.2c2.8-8.2,4.2-12.8,4.2-13.7c0-1.3-1.2-2-3.7-2c-3.4,0-5.1-0.4-5.1-1.2
			c0-0.7,0.7-1.1,2.1-1.1c1.2,0,2.1,0,2.8,0.1c1.5,0.2,2.9,0.3,4.2,0.3h8.4c2.1,0,3.3,0.1,3.5,0.2
			C407.3,591.8,407.4,592,407.4,592.2z M363,593.4h-1.3H360c-2.5,0.1-3.8,0.6-3.8,1.4c0,0.1,2.1,6.2,6.2,18.3
			c1.6-3.5,3.5-8.1,5.6-13.9c0.3-0.8,0.7-1.8,1.3-3l0.2-0.8C369.5,594,367.4,593.4,363,593.4z"/>
		<path class="st0" d="M461.1,608.8c0,6.8-2.9,12.1-8.7,15.9c-3.6,2.4-8.3,3.6-13.9,3.6c-2.4,0-5.1-0.2-8.1-0.7v29.8
			c0,1.6,0.1,2.6,0.2,3c0.3,1,1.1,1.6,2.3,1.8c2,0.3,4,0.4,5.9,0.4c0.8,0,1.2,0.2,1.2,0.7c0,0.7-0.5,1.1-1.5,1.1c-0.4,0-0.8,0-1,0
			c-3.9,0-11.1,0-21.7,0h-1.4c-2.1,0-3.2-0.3-3.2-1.1c0-0.5,0.7-0.7,2.2-0.7c3.3,0,5.2-0.3,5.7-0.9c0.6-0.3,0.9-1,0.9-2.1v-62
			c0-2.2-0.6-3.5-1.8-4c-0.7-0.3-1.9-0.4-3.7-0.4h-1.1c-0.2,0-0.5,0-0.7,0c-1,0-1.6-0.3-1.6-0.8c0-0.6,1-0.9,2.9-0.9h23.1
			c8,0,13.8,1.4,17.5,4.2C459,598.6,461.1,603.1,461.1,608.8z M450.1,608.9c0-10.6-4.4-15.9-13.2-15.9c-2.9,0-4.9,0.5-5.8,1.5
			c-0.4,0.4-0.6,1.5-0.6,3.3v28.1c0.6,0.1,1.2,0.1,1.9,0.1c4.6,0,8.5-1,11.8-3.1C448.1,620.4,450.1,615.7,450.1,608.9z"/>
		<path class="st0" d="M496.4,663.3c0,0.6-0.4,0.9-1.3,0.9h-1.1c-0.4-0.2-5.2-0.3-14.3-0.3c-1.8,0-3.5,0.1-5.2,0.2
			c-0.9,0.1-2.3,0.1-4.2,0.1c-0.9,0-1.4-0.3-1.4-0.9c0-0.6,0.9-0.9,2.7-0.9c2.8-0.1,4.4-0.4,4.9-1c0.5-0.6,0.7-2.6,0.7-6.1v-55.4
			c0-3.4-0.2-5.4-0.5-5.8c-0.4-0.7-2.4-1.1-5.8-1.3c-1.3-0.1-2-0.3-2-0.7c0-0.6,0.4-0.8,1.3-0.8h14.3c1.1,0,3.1,0,6.1,0.1l4-0.1
			c1.1,0,1.7,0.3,1.7,0.9c0,0.5-1.6,0.9-4.7,1c-1.8,0.1-2.9,0.4-3.2,0.9c-0.4,0.6-0.6,2-0.6,4.4v56.1c0,4,0.2,6.2,0.5,6.5
			c0.8,0.8,3,1.2,6.8,1.4C496,662.4,496.4,662.7,496.4,663.3z"/>
	</g>
	<g>
		<path class="st0" d="M275,761.3c0,1.3-0.5,2.4-1.5,3.4s-2.2,1.4-3.6,1.4c-0.8,0-1.8-0.3-3-0.8c-0.3-0.1-0.5-0.2-0.7-0.2
			c-0.2,0-0.3,0.2-0.3,0.6c0,0.2-0.1,0.3-0.3,0.3c-0.2,0-0.2-0.1-0.2-0.3c0-0.1,0-0.2,0-0.3c0.1-0.9,0.2-1.8,0.2-2.6
			c0-0.2,0-0.6,0-1.3c0-0.1,0-0.2,0-0.4c0-0.2,0.1-0.3,0.3-0.3c0.2,0,0.3,0.2,0.3,0.6c0.4,2.8,1.7,4.1,3.9,4.1
			c0.9,0,1.7-0.3,2.2-0.8s0.8-1.3,0.8-2.2c0-0.9-0.2-1.6-0.7-2.2c-0.5-0.6-1.4-1.2-2.6-1.8c-1.5-0.7-2.5-1.4-3-2.1
			c-0.6-0.7-0.9-1.5-0.9-2.5c0-1.3,0.4-2.3,1.2-3.2c0.8-0.8,1.9-1.2,3.1-1.2c0.5,0,1.2,0.2,2.2,0.5c0.3,0.1,0.6,0.2,0.7,0.2
			c0.2,0,0.3,0,0.3-0.1s0.1-0.2,0.1-0.5c0-0.2,0.1-0.2,0.3-0.2c0.2,0,0.2,0.1,0.2,0.3c0,0.1,0,0.2,0,0.3c0,0.4-0.1,0.8-0.1,1.3
			c0,0.7,0,1.3,0.1,1.7l0,0.4c0,0.2-0.1,0.3-0.2,0.3c-0.2,0-0.3-0.2-0.3-0.5c-0.2-0.9-0.6-1.7-1.2-2.3c-0.6-0.6-1.3-0.9-2.1-0.9
			c-0.8,0-1.4,0.2-1.8,0.7c-0.5,0.5-0.7,1.2-0.7,2c0,1,0.3,1.8,1,2.4c0.4,0.3,1.2,0.8,2.4,1.4c1.4,0.7,2.5,1.5,3.1,2.2
			C274.7,759.5,275,760.3,275,761.3z"/>
		<path class="st0" d="M288.8,762.5c0,0.1,0,0.4,0,1c0,0.6,0,1.2,0,1.7v0.7c-1.3-0.1-3.9-0.1-7.8-0.1c-0.5,0-0.9,0-1.4,0
			c-0.5,0-0.8,0-0.9,0h-0.2c-0.3,0-0.4-0.1-0.4-0.2c0-0.1,0-0.1,0.1-0.1c0,0,0.3,0,0.8-0.1c0.3,0,0.6-0.1,0.6-0.2
			c0.1-0.1,0.1-0.4,0.1-0.9V753c0-0.4-0.1-0.6-0.2-0.7c-0.1-0.1-0.5-0.1-1.1-0.1c-0.2,0-0.3-0.1-0.3-0.2c0-0.1,0.1-0.2,0.4-0.2h3.4
			c0.1,0,0.9,0,2.3,0c1.4,0,2.3,0,2.8,0c0.4,0,0.8,0,1.1-0.1c0,0.6,0.1,1.4,0.2,2.4l0.1,0.9c0,0.1,0,0.2,0,0.3
			c0,0.1-0.1,0.2-0.2,0.2c-0.1,0-0.3-0.2-0.3-0.5c-0.3-1.2-0.7-2-1.2-2.3c-0.4-0.2-1.5-0.4-3.4-0.4h-1.6v5.9h0.5
			c1.5,0,2.4-0.1,2.7-0.3c0.3-0.2,0.5-0.9,0.7-2c0-0.3,0.1-0.4,0.2-0.4c0.1,0,0.2,0.1,0.2,0.4c0,0.2,0,0.6,0,1.1s0,0.8,0,1.1
			c0,1.4,0,2.4,0.1,2.9c0,0.1,0,0.2,0,0.3c0,0.2-0.1,0.3-0.2,0.3c-0.1,0-0.2-0.1-0.2-0.2s-0.1-0.5-0.2-1.1c-0.1-0.8-0.4-1.3-1-1.5
			c-0.2-0.1-0.9-0.1-1.9-0.1h-0.9v6.7c2.9,0,4.7-0.1,5.2-0.2c0.9-0.2,1.4-1,1.5-2.5c0-0.3,0.1-0.5,0.3-0.5
			C288.7,762.1,288.8,762.3,288.8,762.5z"/>
		<path class="st0" d="M302.2,755.4c0,0.2-0.1,0.3-0.2,0.3c-0.2,0-0.3-0.2-0.3-0.5c0-0.2-0.1-0.5-0.1-0.7c-0.1-0.5-0.2-0.9-0.5-1.2
			c-0.3-0.4-0.7-0.7-1.4-0.8c-0.4-0.1-0.7-0.1-1-0.1c-0.6,0-1,0-1.1,0v12.1c0,0.5,0.1,0.8,0.4,0.9c0.1,0.1,0.5,0.1,1.1,0.1
			c0.2,0,0.2,0.1,0.2,0.2c0,0.1-0.1,0.2-0.3,0.2c-0.1,0-0.2,0-0.3,0c-0.8,0-1.4,0-1.7,0c-0.4,0-0.9,0-1.2,0c-0.4,0-0.9,0-1.5,0
			c-0.3,0-0.5-0.1-0.5-0.2c0-0.1,0.3-0.2,0.9-0.2c0.4,0,0.7-0.1,0.8-0.3c0.1-0.1,0.1-0.4,0.1-0.8v-12c-1.3,0-2.1,0.1-2.5,0.2
			c-0.8,0.3-1.3,1.1-1.5,2.5c0,0.4-0.1,0.6-0.3,0.6c-0.2,0-0.2-0.1-0.2-0.4c0-0.1,0-0.3,0-0.4l0-0.5c0-0.6,0.1-1.4,0.2-2.4h0.9
			l4.1,0.1c0.5,0,1.2,0,2.2,0l3.3-0.1c0,0.7,0.1,1.9,0.3,3.3c0,0,0,0.1,0,0.2C302.2,755.4,302.2,755.4,302.2,755.4z"/>
		<path class="st0" d="M315.6,755.4c0,0.2-0.1,0.3-0.2,0.3c-0.2,0-0.3-0.2-0.3-0.5c0-0.2-0.1-0.5-0.1-0.7c-0.1-0.5-0.2-0.9-0.5-1.2
			c-0.3-0.4-0.7-0.7-1.4-0.8c-0.4-0.1-0.7-0.1-1-0.1c-0.6,0-1,0-1.1,0v12.1c0,0.5,0.1,0.8,0.4,0.9c0.1,0.1,0.5,0.1,1.1,0.1
			c0.2,0,0.2,0.1,0.2,0.2c0,0.1-0.1,0.2-0.3,0.2c-0.1,0-0.2,0-0.3,0c-0.8,0-1.4,0-1.7,0c-0.4,0-0.9,0-1.2,0c-0.4,0-0.9,0-1.5,0
			c-0.3,0-0.5-0.1-0.5-0.2c0-0.1,0.3-0.2,0.9-0.2c0.4,0,0.7-0.1,0.8-0.3c0.1-0.1,0.1-0.4,0.1-0.8v-12c-1.3,0-2.1,0.1-2.5,0.2
			c-0.8,0.3-1.3,1.1-1.5,2.5c0,0.4-0.1,0.6-0.3,0.6c-0.2,0-0.2-0.1-0.2-0.4c0-0.1,0-0.3,0-0.4l0-0.5c0-0.6,0.1-1.4,0.2-2.4h0.9
			l4.1,0.1c0.5,0,1.2,0,2.2,0l3.3-0.1c0,0.7,0.1,1.9,0.3,3.3c0,0,0,0.1,0,0.2C315.6,755.4,315.6,755.4,315.6,755.4z"/>
		<path class="st0" d="M323.3,765.6c0,0.1-0.1,0.2-0.2,0.2h-0.2c-0.1,0-1-0.1-2.7-0.1c-0.3,0-0.7,0-1,0c-0.2,0-0.4,0-0.8,0
			c-0.2,0-0.3-0.1-0.3-0.2c0-0.1,0.2-0.2,0.5-0.2c0.5,0,0.8-0.1,0.9-0.2c0.1-0.1,0.1-0.5,0.1-1.2v-10.6c0-0.7,0-1-0.1-1.1
			c-0.1-0.1-0.5-0.2-1.1-0.2c-0.3,0-0.4-0.1-0.4-0.1c0-0.1,0.1-0.2,0.2-0.2h2.7c0.2,0,0.6,0,1.2,0l0.8,0c0.2,0,0.3,0.1,0.3,0.2
			c0,0.1-0.3,0.2-0.9,0.2c-0.3,0-0.5,0.1-0.6,0.2c-0.1,0.1-0.1,0.4-0.1,0.8v10.7c0,0.8,0,1.2,0.1,1.2c0.1,0.1,0.6,0.2,1.3,0.3
			C323.2,765.4,323.3,765.5,323.3,765.6z"/>
		<path class="st0" d="M338.3,752.1c0,0.1-0.2,0.2-0.5,0.2h-0.4H337c-0.2,0-0.3,0-0.4,0.1s-0.1,0.3-0.1,0.7v11.5c0,0.7,0,1.1,0,1.2
			c0,0.1-0.1,0.2-0.1,0.2c-0.1,0-0.2-0.1-0.3-0.2l-2.6-3.7c-1.5-2.2-3.3-4.9-5.4-8.2V765c0,0.2,0.1,0.3,0.3,0.3
			c0.2,0,0.6,0.1,1.4,0.1c0.2,0,0.3,0.1,0.3,0.2c0,0.1-0.2,0.2-0.5,0.2c-0.1,0-0.5,0-1.1-0.1c-0.2,0-0.4,0-0.6,0c0,0-0.1,0-0.4,0
			c-0.2,0-0.6,0-1.1,0h-0.2c-0.3,0-0.5-0.1-0.5-0.2s0.1-0.2,0.4-0.2c0.8,0,1.2-0.1,1.4-0.1c0.1-0.1,0.2-0.4,0.2-0.9v-9.9
			c0-1.1-0.2-1.8-0.7-2.1c-0.2-0.1-0.6-0.2-1.1-0.2c-0.3,0-0.5-0.1-0.5-0.2c0-0.1,0.1-0.2,0.3-0.2c0.3,0,0.6,0,1,0
			c0.4,0,0.6,0,0.7,0c0,0,0.2,0,0.6,0c0.4,0,0.9,0,1.3-0.1l6.9,10.3v-8.9c0-0.4,0-0.7,0-0.8c0-0.1-0.1-0.2-0.2-0.2
			c-0.1,0-0.4-0.1-1-0.1c-0.5,0-0.7-0.1-0.7-0.2c0-0.1,0.2-0.2,0.5-0.2h0.7c0.2,0,0.4,0,0.6,0c0.2,0,0.3,0,0.4,0c0,0,0.1,0,0.4,0
			c0.2,0,0.4,0,0.6,0h0.6C338.1,751.9,338.3,751.9,338.3,752.1z"/>
		<path class="st0" d="M353.9,761.6c0,0.1-0.1,0.2-0.2,0.2h-0.5c-0.6,0-1,0.1-1,0.3c-0.1,0.2-0.1,0.7-0.1,1.7v0.6
			c-0.7,0.6-1.3,1-2,1.2s-1.4,0.4-2.3,0.4c-2.1,0-3.8-0.6-5-1.9c-1.2-1.3-1.9-3-1.9-5.1c0-2.2,0.6-4,1.8-5.3c1.2-1.3,2.8-2,4.8-2
			c0.9,0,1.8,0.2,2.8,0.7c0.3,0.1,0.6,0.2,0.8,0.2c0.3,0,0.4-0.2,0.5-0.5c0.1-0.2,0.1-0.3,0.2-0.3c0.1,0,0.2,0.1,0.2,0.2
			c0,0,0,0.2,0,0.4c-0.1,0.8-0.1,1.3-0.1,1.6v1.3c0,0.5,0,0.7,0,0.6c0,0.3-0.1,0.5-0.3,0.5c-0.1,0-0.2-0.1-0.2-0.3
			c-0.1-1.3-0.4-2.3-1.1-3.1c-0.7-0.7-1.6-1.1-2.7-1.1c-1.4,0-2.5,0.6-3.3,1.9c-0.8,1.2-1.2,2.9-1.2,5.1c0,2.1,0.4,3.7,1.2,4.9
			c0.8,1.2,1.9,1.8,3.3,1.8c1.1,0,1.8-0.3,2.2-0.9c0.2-0.3,0.3-0.9,0.3-1.7c0-0.7-0.1-1.1-0.2-1.2c-0.1-0.1-0.6-0.2-1.3-0.2
			c-0.2,0-0.3,0-0.4,0c-0.1,0-0.1-0.1-0.1-0.1c0-0.1,0.1-0.2,0.4-0.2h0.4c0.2,0,0.9,0,2.1,0h1.7c0.1,0,0.2,0,0.3,0
			c0.1,0,0.2,0,0.2,0C353.8,761.4,353.9,761.4,353.9,761.6z"/>
		<path class="st0" d="M371.2,761.3c0,1.3-0.5,2.4-1.5,3.4s-2.2,1.4-3.6,1.4c-0.8,0-1.8-0.3-3-0.8c-0.3-0.1-0.5-0.2-0.7-0.2
			c-0.2,0-0.3,0.2-0.3,0.6c0,0.2-0.1,0.3-0.3,0.3c-0.2,0-0.2-0.1-0.2-0.3c0-0.1,0-0.2,0-0.3c0.1-0.9,0.2-1.8,0.2-2.6
			c0-0.2,0-0.6,0-1.3c0-0.1,0-0.2,0-0.4c0-0.2,0.1-0.3,0.3-0.3c0.2,0,0.3,0.2,0.3,0.6c0.4,2.8,1.7,4.1,3.9,4.1
			c0.9,0,1.7-0.3,2.2-0.8s0.8-1.3,0.8-2.2c0-0.9-0.2-1.6-0.7-2.2c-0.5-0.6-1.4-1.2-2.6-1.8c-1.5-0.7-2.5-1.4-3-2.1
			c-0.6-0.7-0.9-1.5-0.9-2.5c0-1.3,0.4-2.3,1.2-3.2c0.8-0.8,1.9-1.2,3.1-1.2c0.5,0,1.2,0.2,2.2,0.5c0.3,0.1,0.6,0.2,0.7,0.2
			c0.2,0,0.3,0,0.3-0.1s0.1-0.2,0.1-0.5c0-0.2,0.1-0.2,0.3-0.2c0.2,0,0.2,0.1,0.2,0.3c0,0.1,0,0.2,0,0.3c0,0.4-0.1,0.8-0.1,1.3
			c0,0.7,0,1.3,0.1,1.7l0,0.4c0,0.2-0.1,0.3-0.2,0.3c-0.2,0-0.3-0.2-0.3-0.5c-0.2-0.9-0.6-1.7-1.2-2.3c-0.6-0.6-1.3-0.9-2.1-0.9
			c-0.8,0-1.4,0.2-1.8,0.7c-0.5,0.5-0.7,1.2-0.7,2c0,1,0.3,1.8,1,2.4c0.4,0.3,1.2,0.8,2.4,1.4c1.4,0.7,2.5,1.5,3.1,2.2
			C370.9,759.5,371.2,760.3,371.2,761.3z"/>
		<path class="st0" d="M385.1,755.4c0,0.2-0.1,0.3-0.2,0.3s-0.3-0.2-0.3-0.5c0-0.2-0.1-0.5-0.1-0.7c-0.1-0.5-0.2-0.9-0.5-1.2
			c-0.3-0.4-0.7-0.7-1.4-0.8c-0.4-0.1-0.7-0.1-1-0.1c-0.6,0-1,0-1.1,0v12.1c0,0.5,0.1,0.8,0.4,0.9c0.1,0.1,0.5,0.1,1.1,0.1
			c0.2,0,0.2,0.1,0.2,0.2c0,0.1-0.1,0.2-0.3,0.2c-0.1,0-0.2,0-0.3,0c-0.8,0-1.4,0-1.7,0c-0.4,0-0.9,0-1.2,0c-0.4,0-0.9,0-1.5,0
			c-0.3,0-0.5-0.1-0.5-0.2c0-0.1,0.3-0.2,0.9-0.2c0.4,0,0.7-0.1,0.8-0.3c0.1-0.1,0.1-0.4,0.1-0.8v-12c-1.3,0-2.1,0.1-2.5,0.2
			c-0.8,0.3-1.3,1.1-1.5,2.5c0,0.4-0.1,0.6-0.3,0.6c-0.2,0-0.2-0.1-0.2-0.4c0-0.1,0-0.3,0-0.4l0-0.5c0-0.6,0.1-1.4,0.2-2.4h0.9
			l4.1,0.1c0.5,0,1.2,0,2.2,0l3.3-0.1c0,0.7,0.1,1.9,0.3,3.3c0,0,0,0.1,0,0.2C385.1,755.4,385.1,755.4,385.1,755.4z"/>
		<path class="st0" d="M400,765.6c0,0.1-0.1,0.2-0.3,0.2c-0.1,0-0.3,0-0.4,0l-2.5-0.1l-2.5,0.1c-0.1,0-0.2,0-0.3,0
			c-0.3,0-0.4-0.1-0.4-0.2c0-0.2,0.2-0.2,0.5-0.2c1.2,0,1.8-0.1,1.8-0.4c0,0,0-0.1,0-0.2l-0.2-0.5l-0.1-0.3
			c-0.1-0.4-0.4-1.3-0.9-2.7h-4.3c-0.8,2.1-1.2,3.4-1.2,3.7c0,0.2,0.1,0.3,0.2,0.3c0,0,0.4,0,1,0.1c0.4,0,0.6,0.1,0.6,0.2
			c0,0.1-0.2,0.2-0.5,0.2c-0.6,0-1.3,0-2.1-0.1c-0.2,0-0.4,0-0.6,0c-0.2,0-0.4,0-0.6,0.1c-0.1,0-0.2,0-0.3,0c-0.2,0-0.3-0.1-0.3-0.2
			c0-0.1,0.2-0.2,0.6-0.2c0.4,0,0.7-0.1,0.9-0.2c0.2-0.1,0.3-0.3,0.4-0.7c1.7-4.9,3.1-8.9,4.2-11.9c0-0.2,0.1-0.3,0.2-0.5l0.1-0.4
			c0-0.1,0.1-0.2,0.2-0.2c0,0,0.1,0,0.1,0.1c0.2,0.5,0.6,1.6,1.2,3.3c0.5,1.3,1.7,4.5,3.6,9.7c0.1,0.3,0.2,0.5,0.4,0.6
			s0.5,0.1,1,0.1C399.8,765.5,400,765.5,400,765.6z M394.6,760.8c-0.2-0.6-0.6-1.6-1.1-3l-1-2.8c-0.6,1.5-1.2,3.4-2,5.8H394.6z"/>
		<path class="st0" d="M413.6,752.1c0,0.1-0.2,0.2-0.5,0.2h-0.4h-0.4c-0.2,0-0.3,0-0.4,0.1s-0.1,0.3-0.1,0.7v11.5c0,0.7,0,1.1,0,1.2
			c0,0.1-0.1,0.2-0.1,0.2c-0.1,0-0.2-0.1-0.3-0.2l-2.6-3.7c-1.5-2.2-3.3-4.9-5.4-8.2V765c0,0.2,0.1,0.3,0.3,0.3s0.6,0.1,1.4,0.1
			c0.2,0,0.3,0.1,0.3,0.2c0,0.1-0.2,0.2-0.5,0.2c-0.1,0-0.5,0-1.1-0.1c-0.2,0-0.4,0-0.6,0c0,0-0.1,0-0.3,0c-0.2,0-0.6,0-1.1,0h-0.2
			c-0.3,0-0.5-0.1-0.5-0.2s0.1-0.2,0.4-0.2c0.8,0,1.2-0.1,1.4-0.1s0.2-0.4,0.2-0.9v-9.9c0-1.1-0.2-1.8-0.7-2.1
			c-0.2-0.1-0.6-0.2-1.1-0.2c-0.3,0-0.5-0.1-0.5-0.2c0-0.1,0.1-0.2,0.3-0.2c0.3,0,0.6,0,1,0c0.4,0,0.6,0,0.7,0c0,0,0.2,0,0.6,0
			c0.4,0,0.9,0,1.3-0.1l6.9,10.3v-8.9c0-0.4,0-0.7,0-0.8c0-0.1-0.1-0.2-0.2-0.2c-0.1,0-0.4-0.1-1-0.1c-0.5,0-0.7-0.1-0.7-0.2
			c0-0.1,0.2-0.2,0.5-0.2h0.7c0.2,0,0.4,0,0.6,0c0.2,0,0.3,0,0.4,0c0,0,0.1,0,0.4,0c0.2,0,0.4,0,0.6,0h0.6
			C413.4,751.9,413.6,751.9,413.6,752.1z"/>
		<path class="st0" d="M429,758.8c0,2.4-0.8,4.2-2.5,5.5c-1.2,1-2.8,1.4-4.8,1.4c-0.1,0-0.3,0-0.7,0s-1,0-1.8,0h-1h-1.6
			c-0.1,0-0.2,0-0.3,0c-0.3,0-0.4-0.1-0.4-0.2c0-0.1,0.2-0.2,0.6-0.2c0.5,0,0.9-0.1,1-0.3c0.1-0.1,0.1-0.3,0.1-0.8v-10.8
			c0-0.7,0-1-0.2-1.1c-0.1-0.1-0.4-0.2-1-0.2c-0.3,0-0.5-0.1-0.5-0.2c0-0.1,0.1-0.2,0.3-0.2c0,0,0.1,0,0.4,0s0.6,0,0.9,0h2.1
			c2.4,0,4.1,0.2,5.1,0.5c1.2,0.4,2.2,1.2,2.9,2.4S429,757.3,429,758.8z M426.7,758.7c0-2.2-0.4-3.8-1.3-4.9c-0.9-1-2.2-1.6-4.1-1.6
			c-0.9,0-1.4,0.1-1.6,0.3c-0.1,0.1-0.1,0.4-0.1,1v10.7c0,0.4,0,0.6,0,0.7c0,0.1,0.1,0.1,0.2,0.2c0.3,0.2,1,0.2,2,0.2
			c1.4,0,2.6-0.5,3.5-1.5C426.3,762.7,426.7,761.1,426.7,758.7z"/>
		<path class="st0" d="M444.3,765.6c0,0.1-0.1,0.2-0.3,0.2c-0.1,0-0.3,0-0.4,0l-2.5-0.1l-2.5,0.1c-0.1,0-0.2,0-0.3,0
			c-0.3,0-0.4-0.1-0.4-0.2c0-0.2,0.2-0.2,0.5-0.2c1.2,0,1.8-0.1,1.8-0.4c0,0,0-0.1,0-0.2l-0.2-0.5l-0.1-0.3
			c-0.1-0.4-0.4-1.3-0.9-2.7h-4.3c-0.8,2.1-1.2,3.4-1.2,3.7c0,0.2,0.1,0.3,0.2,0.3c0,0,0.4,0,1,0.1c0.4,0,0.6,0.1,0.6,0.2
			c0,0.1-0.2,0.2-0.5,0.2c-0.6,0-1.3,0-2.1-0.1c-0.2,0-0.4,0-0.6,0c-0.2,0-0.4,0-0.6,0.1c-0.1,0-0.2,0-0.3,0c-0.2,0-0.3-0.1-0.3-0.2
			c0-0.1,0.2-0.2,0.6-0.2c0.4,0,0.7-0.1,0.9-0.2c0.2-0.1,0.3-0.3,0.4-0.7c1.7-4.9,3.1-8.9,4.2-11.9c0-0.2,0.1-0.3,0.2-0.5l0.1-0.4
			c0-0.1,0.1-0.2,0.2-0.2c0,0,0.1,0,0.1,0.1c0.2,0.5,0.6,1.6,1.2,3.3c0.5,1.3,1.7,4.5,3.6,9.7c0.1,0.3,0.2,0.5,0.4,0.6
			s0.5,0.1,1,0.1C444.2,765.5,444.3,765.5,444.3,765.6z M438.9,760.8c-0.2-0.6-0.6-1.6-1.1-3l-1-2.8c-0.6,1.5-1.2,3.4-2,5.8H438.9z"
			/>
		<path class="st0" d="M456.9,765.2c0,0.6-0.5,0.8-1.4,0.8c-1,0-1.9-0.4-2.4-1.3c-0.3-0.4-0.4-0.7-0.5-1.1s-0.2-1.2-0.3-2.6
			c-0.1-0.9-0.4-1.5-0.8-1.8c-0.5-0.4-1.2-0.5-2.3-0.6v6.3c0,0.3,0.2,0.4,0.6,0.5c0.1,0,0.4,0,0.9,0c0.2,0,0.3,0.1,0.3,0.2
			c0,0.1-0.1,0.2-0.3,0.2h-0.2c-0.1,0-0.7,0-1.7,0c-0.2,0-0.5,0-1,0c-0.5,0-0.8,0-0.9,0H446c-0.3,0-0.4-0.1-0.4-0.2
			c0-0.1,0.2-0.1,0.6-0.2c0.6,0,1-0.1,1-0.2c0.1-0.1,0.1-0.3,0.1-0.8v-11c0-0.5-0.1-0.9-0.2-1s-0.5-0.2-1-0.2
			c-0.3,0-0.5-0.1-0.5-0.2c0-0.1,0.1-0.2,0.3-0.2c0,0,0.1,0,0.2,0l2.7,0.1c0.3,0,0.6,0,1.1,0c0.5,0,0.9-0.1,1.1-0.1
			c1.2,0,2.2,0.3,3,0.8c0.7,0.6,1.1,1.3,1.1,2.2c0,0.9-0.4,1.7-1.1,2.3s-1.8,1-3,1.1c-0.1,0-0.2,0-0.2,0.1c0,0.1,0.1,0.1,0.2,0.1
			c1.4,0.2,2.4,0.7,2.9,1.5c0.5,0.7,0.9,2.1,1,4c0.1,1.1,0.5,1.6,1.1,1.6c0.2,0,0.3,0,0.3-0.1c0,0,0,0,0,0c-0.1-0.1-0.1-0.3-0.1-0.4
			c0-0.3,0.1-0.4,0.4-0.4C456.8,764.7,456.9,764.8,456.9,765.2z M452.8,755.1c0-1.9-0.8-2.9-2.5-2.9c-0.4,0-0.7,0.1-0.9,0.2
			c-0.2,0.1-0.2,0.3-0.2,0.6v5.1c1.3,0,2.2-0.2,2.8-0.7C452.5,757,452.8,756.2,452.8,755.1z"/>
		<path class="st0" d="M471.9,758.8c0,2.4-0.8,4.2-2.5,5.5c-1.2,1-2.8,1.4-4.8,1.4c-0.1,0-0.3,0-0.7,0s-1,0-1.8,0h-1h-1.6
			c-0.1,0-0.2,0-0.3,0c-0.3,0-0.4-0.1-0.4-0.2c0-0.1,0.2-0.2,0.6-0.2c0.5,0,0.9-0.1,1-0.3c0.1-0.1,0.1-0.3,0.1-0.8v-10.8
			c0-0.7,0-1-0.2-1.1c-0.1-0.1-0.4-0.2-1-0.2c-0.3,0-0.5-0.1-0.5-0.2c0-0.1,0.1-0.2,0.3-0.2c0,0,0.1,0,0.4,0s0.6,0,0.9,0h2.1
			c2.4,0,4.1,0.2,5.1,0.5c1.2,0.4,2.2,1.2,2.9,2.4S471.9,757.3,471.9,758.8z M469.7,758.7c0-2.2-0.4-3.8-1.3-4.9
			c-0.9-1-2.2-1.6-4.1-1.6c-0.9,0-1.4,0.1-1.6,0.3c-0.1,0.1-0.1,0.4-0.1,1v10.7c0,0.4,0,0.6,0,0.7c0,0.1,0.1,0.1,0.2,0.2
			c0.3,0.2,1,0.2,2,0.2c1.4,0,2.6-0.5,3.5-1.5C469.2,762.7,469.7,761.1,469.7,758.7z"/>
		<path class="st0" d="M483.8,761.9c0,1.1-0.4,2.1-1.3,2.9c-0.9,0.8-1.9,1.2-3.2,1.2c-0.7,0-1.6-0.2-2.6-0.7
			c-0.3-0.1-0.5-0.2-0.6-0.2c-0.2,0-0.3,0.2-0.3,0.6c0,0.2-0.1,0.3-0.3,0.3c-0.1,0-0.2-0.1-0.2-0.2c0-0.1,0-0.2,0-0.2
			c0.1-0.8,0.2-1.6,0.2-2.3c0-0.1,0-0.5,0-1.1c0-0.1,0-0.2,0-0.3c0-0.2,0.1-0.3,0.2-0.3c0.1,0,0.2,0.2,0.3,0.5
			c0.3,2.4,1.5,3.6,3.4,3.6c0.8,0,1.4-0.2,1.9-0.7c0.4-0.5,0.7-1.1,0.7-2c0-0.7-0.2-1.4-0.6-1.9c-0.4-0.5-1.2-1-2.2-1.6
			c-1.3-0.6-2.1-1.2-2.6-1.8s-0.7-1.3-0.7-2.2c0-1.1,0.4-2,1.1-2.7c0.7-0.7,1.6-1.1,2.7-1.1c0.5,0,1.1,0.2,1.9,0.5
			c0.3,0.1,0.5,0.2,0.6,0.2c0.1,0,0.2,0,0.3-0.1c0-0.1,0.1-0.2,0.1-0.4c0-0.1,0.1-0.2,0.2-0.2c0.1,0,0.2,0.1,0.2,0.2
			c0,0.1,0,0.2,0,0.2c0,0.3-0.1,0.7-0.1,1.2c0,0.6,0,1.1,0.1,1.5l0,0.3c0,0.1,0,0.2-0.2,0.2c-0.1,0-0.2-0.2-0.3-0.5
			c-0.1-0.8-0.5-1.4-1-2c-0.5-0.5-1.2-0.8-1.8-0.8c-0.7,0-1.2,0.2-1.6,0.6s-0.6,1-0.6,1.7c0,0.9,0.3,1.5,0.9,2.1
			c0.3,0.3,1,0.7,2.1,1.2c1.3,0.6,2.2,1.3,2.7,1.9C483.5,760.3,483.8,761,483.8,761.9z"/>
	</g>
	<path class="st0" d="M398,740v-38.3c1.8,1.3,4.1,1.9,6.6,1.7c4.5-0.5,8.1-4.1,8.6-8.6c0.6-5.8-3.9-10.8-9.6-10.8
		c-0.2,0-0.5,0-0.7,0v-2.1h3.7V678h-3.7h-60h-3.4v3.9h3.4v2.1c-1.1-0.1-2.2,0-3.4,0.2c-3.7,0.9-6.6,4.1-7.2,7.8
		c-1,6.1,3.7,11.3,9.6,11.3c2,0,3.9-0.6,5.5-1.7V740H239v2.8h269V740H398z M404.1,689c2.6,0,4.7,2.1,4.7,4.7s-2.1,4.7-4.7,4.7
		s-4.7-2.1-4.7-4.7S401.5,689,404.1,689z M342,698.4c-2.6,0-4.7-2.1-4.7-4.7s2.1-4.7,4.7-4.7s4.7,2.1,4.7,4.7S344.6,698.4,342,698.4
		z M348,684.5c-0.6,0-1.1-0.5-1.1-1.1s0.5-1.1,1.1-1.1h50.8c0.6,0,1.1,0.5,1.1,1.1s-0.5,1.1-1.1,1.1H348z M352.4,739.7v-38.3h3.8
		v38.3H352.4z M360.4,739.7v-38.3h4.4v38.3H360.4z M371.6,739.7v-38.3h4.4v38.3H371.6z M382.8,739.7v-38.3h3.1v38.3H382.8z
		 M390.1,739.7v-38.3h4.3v38.3H390.1z"/>
	<circle class="st1" cx="373.4" cy="665.7" r="155"/>
	<rect x="295.5" y="778" class="st1" width="157.5" height="104.5"/>
	<g>
		<path class="st0" d="M321.5,791.9c0,0,0,0.1-0.1,0.1c-0.1,0.1-0.2,0.4-0.3,0.7c-0.3,1-0.5,1.9-0.7,2.6c-0.2,0.7-0.3,1.1-0.5,1.1
			c-0.1,0-0.2-0.1-0.2-0.2l0-0.2c0.2-0.6,0.3-1.2,0.3-2c0-0.8-0.3-1.4-0.8-1.6c-0.5-0.2-1.5-0.3-2.8-0.4h-1.7
			c-0.3,0-0.5,0.2-0.6,0.5l-0.9,2.3l-1.9,5c0.6,0.1,1,0.1,1.2,0.1c0.9,0,1.7-0.2,2.3-0.7c0.7-0.5,1.1-1.1,1.4-1.8
			c0.1-0.3,0.2-0.4,0.3-0.4c0.2,0,0.2,0.1,0.2,0.2c0,0,0,0.1-0.1,0.3c-1,2.1-1.8,4.3-2.6,6.5c-0.1,0.2-0.1,0.4-0.3,0.4
			c-0.1,0-0.2-0.1-0.2-0.2c0-0.1,0-0.2,0.1-0.3c0.3-0.9,0.4-1.6,0.4-2c0-0.6-0.2-0.9-0.6-1.2c-0.4-0.2-1.1-0.3-2-0.3
			c-0.3,0-0.5,0.2-0.6,0.5l-2.8,6.9c-0.2,0.5-0.3,0.8-0.3,0.9c0,0.2,0.2,0.2,0.5,0.3l1.4,0.1c0.5,0,0.9,0,1.4,0
			c2.5,0,4.2-0.5,5.2-1.6c0.5-0.6,0.9-1.5,1.4-2.7c0.1-0.3,0.3-0.5,0.4-0.5c0.1,0,0.2,0.1,0.2,0.2c0,0.1-0.1,0.3-0.3,0.8
			c-0.7,1.7-1.1,3.1-1.5,4c-0.1,0.2-0.1,0.3-0.2,0.4c-0.1,0.1-0.3,0.1-0.6,0.1h-8.8c-2.1,0-3.4,0-3.8,0c-0.4,0-0.5-0.1-0.5-0.2
			c0-0.1,0.1-0.2,0.2-0.2c0.2,0,0.7,0,1.5,0c0.3,0,0.6-0.1,0.7-0.2s0.3-0.5,0.5-1.1l5.3-12.7c0.2-0.3,0.4-0.9,0.7-1.6
			c0.3-0.7,0.5-1.2,0.5-1.4c0-0.1-0.1-0.2-0.2-0.2c-0.2,0-0.7,0-1.7-0.1c-0.2,0-0.3-0.1-0.3-0.2c0-0.2,0.2-0.3,0.5-0.3
			c0,0,0.3,0,0.8,0c0.5,0,1,0,1.7,0l7.7,0.1c0.3,0,0.5,0,0.6-0.1h0.2C321.4,791.7,321.5,791.8,321.5,791.9z"/>
		<path class="st0" d="M334,799.9c0,0.6-0.3,0.9-0.9,0.9c-0.5,0-0.8-0.2-0.8-0.6c0-0.1,0.1-0.3,0.4-0.5c0.1-0.1,0.1-0.1,0.1-0.3
			c0-0.3-0.2-0.5-0.6-0.5c-0.6,0-1.3,0.5-2.1,1.5c-0.5,0.6-0.9,1.1-1.1,1.5c-0.2,0.5-0.5,1.2-0.8,2.2l-0.2,0.7
			c-0.4,1.3-0.6,2.5-0.6,3.4c0,1,0.4,1.4,1.1,1.4c0.5,0,1-0.2,1.6-0.7c0.5-0.4,1-1,1.3-1.6c0.2-0.4,0.4-0.6,0.5-0.6
			c0.1,0,0.1,0.1,0.1,0.2c0,0.3-0.3,0.8-0.8,1.5c-0.9,1.1-2,1.7-3.2,1.7c-1.7,0-2.5-0.7-2.5-2.2c0-0.3,0-0.7,0.1-1
			c-0.6,1.2-1.2,2-1.8,2.5c-0.6,0.5-1.3,0.8-2,0.8c-1.2,0-1.8-0.5-1.8-1.6c0-0.3,0.1-0.6,0.3-0.9c0.2-0.2,0.5-0.4,0.8-0.4
			c0.6,0,0.8,0.2,0.8,0.7c0,0.2-0.2,0.5-0.6,0.8c-0.1,0-0.1,0.1-0.1,0.3c0,0.4,0.3,0.6,0.9,0.6c0.8,0,1.6-0.5,2.4-1.6
			c0.8-1.1,1.4-2.4,1.8-3.9l0.3-1.1c0.3-1.1,0.4-1.8,0.4-2.3c0-1-0.4-1.5-1.1-1.5c-1.1,0-2,0.7-2.9,2c-0.2,0.3-0.4,0.5-0.5,0.5
			c-0.1,0-0.2-0.1-0.2-0.2c0-0.3,0.3-0.7,0.9-1.4c1-1.1,2.1-1.6,3.1-1.6c0.9,0,1.6,0.2,2,0.6c0.4,0.4,0.6,1.1,0.7,2.1
			c1.1-1.8,2.3-2.7,3.6-2.7c0.5,0,0.8,0.1,1.1,0.4C333.9,799.2,334,799.5,334,799.9z"/>
		<path class="st0" d="M344.9,800.5c0,0.8-0.4,1.3-1.1,1.3c-0.2,0-0.5-0.1-0.6-0.3c-0.2-0.2-0.3-0.4-0.3-0.6c0-0.4,0.2-0.6,0.7-0.6
			l0.2,0c0.1,0.1,0.2,0.1,0.3,0.1c0.1,0,0.2-0.1,0.2-0.3c0-0.3-0.2-0.5-0.5-0.7c-0.3-0.2-0.7-0.3-1.1-0.3c-1.3,0-2.5,1-3.7,2.9
			c-1.2,2-1.8,3.8-1.8,5.5c0,1.5,0.7,2.2,2,2.2c1,0,2-0.6,3-1.8c0.2-0.2,0.3-0.3,0.4-0.3c0.1,0,0.1,0.1,0.1,0.2c0,0.2-0.2,0.5-0.7,1
			c-1,1-2.1,1.5-3.3,1.5c-1.1,0-2-0.3-2.7-1s-1-1.5-1-2.6c0-1.8,1-3.7,2.9-5.6c1.6-1.6,3.2-2.4,4.9-2.4c0.6,0,1.2,0.2,1.6,0.5
			C344.7,799.4,344.9,799.9,344.9,800.5z"/>
		<path class="st0" d="M356.3,800.3c0,0.9-0.5,1.7-1.5,2.3c-1,0.6-2.3,0.9-3.8,0.9c-0.6,0-1.2,0-1.8-0.1c-0.6,1.3-1,2.6-1,3.7
			c0,1.5,0.7,2.3,2.1,2.3c1.1,0,2.1-0.5,3.1-1.6c0.2-0.2,0.4-0.4,0.4-0.4c0.1,0,0.1,0,0.1,0.1c0,0.4-0.4,0.9-1.2,1.5
			c-0.9,0.7-1.9,1-2.9,1c-1.1,0-2.1-0.3-2.8-1s-1.1-1.5-1.1-2.5c0-1.9,1.1-3.8,3.2-5.6c1.9-1.6,3.5-2.4,5-2.4
			C355.5,798.6,356.3,799.1,356.3,800.3z M354.4,799.9c0-0.5-0.3-0.8-0.8-0.8c-0.6,0-1.1,0.2-1.6,0.6c-1,0.8-1.9,1.9-2.7,3.4
			c0.2,0,0.4,0,0.7,0c1,0,1.9-0.3,2.8-0.9C353.9,801.6,354.4,800.8,354.4,799.9z"/>
		<path class="st0" d="M366.5,791.5c0,0,0,0.2-0.1,0.4c-0.1,0.1-0.1,0.3-0.3,0.6l-5.8,14.2c-0.4,1.1-0.6,1.7-0.6,2.1
			c0,0.5,0.3,0.7,0.9,0.7s1.2-0.4,1.9-1.1c0.3-0.3,0.4-0.5,0.5-0.5c0.1,0,0.2,0.1,0.2,0.2c0,0.2-0.3,0.6-0.9,1.1
			c-0.7,0.6-1.5,0.9-2.5,0.9c-1.4,0-2.1-0.5-2.1-1.6c0-0.3,0.2-1.1,0.7-2.1l5.8-14.3c0.1-0.1,0.1-0.2,0.1-0.2c0-0.2-0.2-0.2-0.5-0.2
			c-0.8,0-1.1-0.1-1.1-0.2c0-0.1,0.1-0.1,0.2-0.1c0.2,0,0.4,0,0.7,0c0.3,0,0.6,0,0.7,0c0.7,0,1.3,0,1.7-0.1c0.2,0,0.3,0,0.4,0
			C366.4,791.3,366.5,791.4,366.5,791.5z"/>
		<path class="st0" d="M375.9,800.3c0,0.9-0.5,1.7-1.5,2.3c-1,0.6-2.3,0.9-3.8,0.9c-0.6,0-1.2,0-1.8-0.1c-0.6,1.3-1,2.6-1,3.7
			c0,1.5,0.7,2.3,2.1,2.3c1.1,0,2.1-0.5,3.1-1.6c0.2-0.2,0.4-0.4,0.4-0.4c0.1,0,0.1,0,0.1,0.1c0,0.4-0.4,0.9-1.2,1.5
			c-0.9,0.7-1.9,1-2.9,1c-1.1,0-2.1-0.3-2.8-1s-1.1-1.5-1.1-2.5c0-1.9,1.1-3.8,3.2-5.6c1.9-1.6,3.5-2.4,5-2.4
			C375.1,798.6,375.9,799.1,375.9,800.3z M374,799.9c0-0.5-0.3-0.8-0.8-0.8c-0.6,0-1.1,0.2-1.6,0.6c-1,0.8-1.9,1.9-2.7,3.4
			c0.2,0,0.4,0,0.7,0c1,0,1.9-0.3,2.8-0.9C373.5,801.6,374,800.8,374,799.9z"/>
		<path class="st0" d="M388.8,800.6c0,0.4-0.2,1.1-0.7,2.2l-2.1,4.8c-0.2,0.6-0.4,0.9-0.4,1.1c0,0.4,0.2,0.5,0.6,0.5
			c0.5,0,1.2-0.4,2.2-1.2c0.1-0.1,0.2-0.1,0.2-0.1c0.1,0,0.2,0,0.2,0.1c0,0.2-0.3,0.5-0.9,0.9c-0.8,0.5-1.6,0.8-2.5,0.8
			c-0.5,0-1-0.1-1.3-0.4c-0.4-0.2-0.5-0.5-0.5-0.9c0-0.3,0.2-0.8,0.5-1.6l2.1-4.7c0.5-1.1,0.8-1.9,0.8-2.3c0-0.6-0.3-0.9-0.9-0.9
			c-0.8,0-1.7,0.6-2.8,1.7c-0.8,0.9-1.6,2.1-2.2,3.6l-2.1,4.9c-0.1,0.3-0.2,0.4-0.3,0.4c0,0-0.2,0-0.6,0c-0.1,0-0.2,0-0.3,0
			c-0.1,0-0.4,0-0.7,0c-0.1,0-0.1,0-0.2,0c-0.1,0-0.2,0-0.2-0.1c0,0,0-0.1,0.1-0.2l0.2-0.4l4-9.5c0.1-0.1,0.1-0.2,0.1-0.2
			c0-0.1-0.2-0.2-0.7-0.2c-0.5,0-0.8-0.1-0.8-0.3c0-0.1,0.1-0.2,0.3-0.2c0.1,0,0.3,0,0.6,0.1c0.3,0,0.5,0.1,0.6,0.1
			c0.9,0,1.6-0.1,1.8-0.2c0.1-0.1,0.2-0.1,0.2-0.1c0.1,0,0.2,0.1,0.2,0.2c0,0.1,0,0.1,0,0.1l-1,2.4c0.1-0.2,0.3-0.4,0.6-0.7
			c1.3-1.4,2.5-2.1,3.7-2.1c0.7,0,1.3,0.2,1.7,0.6S388.8,800,388.8,800.6z"/>
		<path class="st0" d="M401.6,800.5c0,0.8-0.4,1.3-1.1,1.3c-0.2,0-0.5-0.1-0.7-0.3s-0.3-0.4-0.3-0.6c0-0.4,0.2-0.6,0.7-0.6l0.2,0
			c0.1,0.1,0.2,0.1,0.3,0.1c0.1,0,0.2-0.1,0.2-0.3c0-0.3-0.2-0.5-0.5-0.7s-0.7-0.3-1.1-0.3c-1.3,0-2.5,1-3.7,2.9
			c-1.2,2-1.8,3.8-1.8,5.5c0,1.5,0.7,2.2,2,2.2c1,0,2-0.6,3-1.8c0.2-0.2,0.3-0.3,0.4-0.3c0.1,0,0.1,0.1,0.1,0.2c0,0.2-0.2,0.5-0.7,1
			c-1,1-2.1,1.5-3.3,1.5c-1.1,0-2-0.3-2.7-1c-0.7-0.6-1-1.5-1-2.6c0-1.8,1-3.7,2.9-5.6c1.6-1.6,3.2-2.4,4.9-2.4
			c0.6,0,1.2,0.2,1.6,0.5C401.4,799.4,401.6,799.9,401.6,800.5z"/>
		<path class="st0" d="M413,800.3c0,0.9-0.5,1.7-1.5,2.3c-1,0.6-2.3,0.9-3.8,0.9c-0.6,0-1.2,0-1.8-0.1c-0.6,1.3-1,2.6-1,3.7
			c0,1.5,0.7,2.3,2.1,2.3c1.1,0,2.1-0.5,3.1-1.6c0.2-0.2,0.4-0.4,0.4-0.4c0.1,0,0.1,0,0.1,0.1c0,0.4-0.4,0.9-1.2,1.5
			c-0.9,0.7-1.9,1-2.9,1c-1.1,0-2.1-0.3-2.8-1c-0.7-0.7-1.1-1.5-1.1-2.5c0-1.9,1.1-3.8,3.2-5.6c1.9-1.6,3.5-2.4,5-2.4
			C412.2,798.6,413,799.1,413,800.3z M411.1,799.9c0-0.5-0.3-0.8-0.8-0.8c-0.6,0-1.1,0.2-1.6,0.6c-1,0.8-1.9,1.9-2.7,3.4
			c0.2,0,0.4,0,0.7,0c1,0,1.9-0.3,2.8-0.9C410.6,801.6,411.1,800.8,411.1,799.9z"/>
		<path class="st0" d="M323.4,826.5c0,2.5-0.7,4.7-2.2,6.8s-3.4,3.5-5.9,4.4c-1.1,0.4-2,0.7-2.7,0.8c-0.7,0.1-2,0.2-3.8,0.2
			c-0.6,0-1.9,0-4,0h-1.5c-0.2,0-0.3,0.1-0.5,0.1c-0.2,0-0.4-0.1-0.4-0.2c0-0.1,0.1-0.2,0.3-0.3c0.2,0,0.4,0,0.8,0
			c0.8,0,1.3-0.1,1.5-0.2c0.2-0.2,0.3-0.5,0.4-0.7c0.1-0.2,0.3-0.6,0.5-1.1l5.3-13c0.4-0.9,0.5-1.4,0.5-1.6c0-0.2-0.3-0.3-0.8-0.4
			l-1.4-0.1c-0.3,0-0.4-0.1-0.4-0.2s0.2-0.2,0.5-0.2c0.3,0,0.8,0,1.6,0.1c0.4,0,0.9,0,1.6,0h1.8c0.4,0,0.8,0,1.3-0.1
			c0.5,0,0.8,0,0.9,0c1.6,0,2.8,0.3,3.8,0.8C322.5,822.4,323.4,824.1,323.4,826.5z M320.8,825.7c0-1.7-0.5-2.9-1.4-3.6
			c-0.7-0.6-1.8-0.9-3.1-0.9c-0.7,0-1.2,0-1.6,0.1c-0.2,0-0.4,0.3-0.6,0.8c-0.3,0.7-0.6,1.2-0.7,1.6l-4.9,12.4
			c-0.4,1.1-0.6,1.7-0.6,1.7c0,0.3,0.5,0.4,1.4,0.4c3.2,0,5.8-1.1,7.9-3.4c1.1-1.2,2-2.6,2.6-4.3
			C320.5,828.9,320.8,827.3,320.8,825.7z"/>
		<path class="st0" d="M331,827.7c0,0.1,0,0.2-0.1,0.3c-0.1,0.2-0.3,0.6-0.6,1.3l-3,6.8c-0.4,0.9-0.6,1.5-0.6,1.7
			c0,0.5,0.2,0.7,0.7,0.7c0.3,0,0.7-0.1,1.1-0.3c0.4-0.2,0.7-0.5,1-0.8c0.2-0.2,0.3-0.3,0.4-0.3c0.1,0,0.2,0.1,0.2,0.2
			c0,0.2-0.2,0.5-0.7,0.9c-0.7,0.6-1.6,0.9-2.5,0.9c-0.6,0-1.1-0.2-1.5-0.5c-0.4-0.3-0.6-0.7-0.6-1.2c0-0.4,0.2-1.1,0.6-2.1l2.7-6
			c0.1-0.3,0.2-0.5,0.3-0.7c0.1-0.1,0.1-0.1,0.1-0.2c0-0.2-0.4-0.3-1.1-0.3c-0.1,0-0.2-0.1-0.2-0.2c0-0.1,0.1-0.2,0.2-0.2
			c0,0,0.1,0,0.4,0.1c0.2,0,0.6,0.1,1.2,0.1c0.7,0,1.2-0.1,1.5-0.2c0.2-0.1,0.3-0.1,0.4-0.1C330.9,827.5,331,827.6,331,827.7z
			 M332.8,822.9c0,0.7-0.3,1.1-1,1.1c-0.3,0-0.6-0.1-0.9-0.3c-0.2-0.2-0.3-0.5-0.3-0.8c0-0.7,0.4-1.1,1.2-1.1
			C332.4,821.7,332.8,822.1,332.8,822.9z"/>
		<path class="st0" d="M342.1,829.5c0,0.3-0.1,0.5-0.3,0.8c-0.2,0.2-0.4,0.3-0.7,0.3c-0.5,0-0.8-0.3-0.8-0.8c0-0.4,0.2-0.6,0.5-0.6
			c0.1,0,0.1,0,0.2,0.1c0.1,0.1,0.2,0.1,0.3,0.1c0.1,0,0.2-0.1,0.2-0.2c0-0.3-0.2-0.6-0.6-0.9c-0.4-0.3-0.8-0.4-1.2-0.4
			c-0.6,0-1,0.2-1.4,0.5c-0.4,0.4-0.6,0.8-0.6,1.3c0,0.4,0.4,1.6,1.2,3.6c0.2,0.5,0.3,1,0.3,1.6c0,1.2-0.4,2.2-1.2,3
			c-0.8,0.8-1.8,1.2-3,1.2c-1,0-1.9-0.3-2.6-0.9c-0.7-0.6-1.1-1.3-1.1-2.1c0-0.5,0.1-0.9,0.4-1.2c0.3-0.3,0.6-0.5,1.1-0.5
			c0.3,0,0.6,0.1,0.8,0.3c0.2,0.2,0.4,0.5,0.4,0.8c0,0.5-0.3,0.8-0.8,0.8c-0.5,0-0.8-0.2-0.8-0.5c0-0.1,0-0.2,0.1-0.4
			s0.1-0.2,0.1-0.2c0-0.2-0.1-0.3-0.2-0.3c-0.2,0-0.3,0.1-0.4,0.4s-0.2,0.5-0.2,0.8c0,0.7,0.3,1.3,0.8,1.8s1.2,0.8,2,0.8
			c0.7,0,1.3-0.2,1.8-0.7c0.5-0.4,0.7-1,0.7-1.6c0-0.5-0.2-1.2-0.6-2.3c-0.4-1-0.5-1.8-0.5-2.5c0-1.1,0.3-2.1,1-2.8s1.5-1.2,2.5-1.2
			c0.7,0,1.2,0.2,1.7,0.6C341.9,828.5,342.1,829,342.1,829.5z"/>
		<path class="st0" d="M351.8,827.8c0,0.2-0.4,0.4-1.1,0.4h-1h-0.5l-3.5,7.9c-0.4,0.9-0.6,1.4-0.6,1.6c0,0.4,0.3,0.5,0.8,0.5
			c0.8,0,1.5-0.4,2.1-1.2c0.1-0.2,0.2-0.3,0.3-0.3c0.1,0,0.2,0.1,0.2,0.2c0,0.2-0.3,0.6-0.9,1.1c-0.7,0.6-1.4,0.9-2.4,0.9
			c-0.6,0-1.1-0.2-1.5-0.5c-0.4-0.3-0.6-0.7-0.6-1.2c0-0.3,0.2-0.9,0.6-1.7l3.4-7.3h-1.1c-0.3,0-0.4-0.1-0.4-0.2
			c0-0.2,0.1-0.3,0.4-0.3h0.2c0.1,0,0.2,0,0.4,0c0.2,0,0.5,0,0.7,0l0.4-1.1c0.2-0.4,0.3-0.6,0.4-0.6c0.1,0,0.2,0,0.4,0
			c0.2,0,0.3,0,0.4,0c0.2,0,0.5-0.1,0.8-0.2c0.1,0,0.1,0,0.2,0c0.1,0,0.1,0,0.1,0.1l-0.3,0.6l-0.6,1.2h0.6h1c0.1,0,0.2,0,0.3-0.1
			c0.1,0,0.2-0.1,0.2-0.1C351.7,827.6,351.8,827.7,351.8,827.8z"/>
		<path class="st0" d="M358,827.7c0,0.1,0,0.2-0.1,0.3c-0.1,0.2-0.3,0.6-0.6,1.3l-3,6.8c-0.4,0.9-0.6,1.5-0.6,1.7
			c0,0.5,0.2,0.7,0.7,0.7c0.3,0,0.7-0.1,1.1-0.3c0.4-0.2,0.7-0.5,1-0.8c0.2-0.2,0.3-0.3,0.4-0.3c0.1,0,0.2,0.1,0.2,0.2
			c0,0.2-0.2,0.5-0.7,0.9c-0.7,0.6-1.6,0.9-2.5,0.9c-0.6,0-1.1-0.2-1.5-0.5c-0.4-0.3-0.6-0.7-0.6-1.2c0-0.4,0.2-1.1,0.6-2.1l2.7-6
			c0.1-0.3,0.2-0.5,0.3-0.7c0.1-0.1,0.1-0.1,0.1-0.2c0-0.2-0.4-0.3-1.1-0.3c-0.1,0-0.2-0.1-0.2-0.2c0-0.1,0.1-0.2,0.2-0.2
			c0,0,0.1,0,0.4,0.1c0.2,0,0.6,0.1,1.2,0.1c0.7,0,1.2-0.1,1.5-0.2c0.2-0.1,0.3-0.1,0.4-0.1C357.9,827.5,358,827.6,358,827.7z
			 M359.8,822.9c0,0.7-0.3,1.1-1,1.1c-0.3,0-0.6-0.1-0.9-0.3c-0.2-0.2-0.3-0.5-0.3-0.8c0-0.7,0.4-1.1,1.2-1.1
			C359.4,821.7,359.8,822.1,359.8,822.9z"/>
		<path class="st0" d="M371.4,829.6c0,0.4-0.2,1.1-0.7,2.2l-2.1,4.8c-0.2,0.6-0.4,0.9-0.4,1.1c0,0.4,0.2,0.5,0.6,0.5
			c0.5,0,1.2-0.4,2.2-1.2c0.1-0.1,0.2-0.1,0.2-0.1c0.1,0,0.2,0,0.2,0.1c0,0.2-0.3,0.5-0.9,0.9c-0.8,0.5-1.6,0.8-2.5,0.8
			c-0.5,0-1-0.1-1.3-0.4c-0.4-0.2-0.5-0.5-0.5-0.9c0-0.3,0.2-0.8,0.5-1.6l2.1-4.7c0.5-1.1,0.8-1.9,0.8-2.3c0-0.6-0.3-0.9-0.9-0.9
			c-0.8,0-1.7,0.6-2.8,1.7c-0.8,0.9-1.6,2.1-2.2,3.6l-2.1,4.9c-0.1,0.3-0.2,0.4-0.3,0.4c0,0-0.2,0-0.6,0c-0.1,0-0.2,0-0.3,0
			c-0.1,0-0.4,0-0.7,0c-0.1,0-0.1,0-0.2,0c-0.1,0-0.2,0-0.2-0.1c0,0,0-0.1,0.1-0.2l0.2-0.4l4-9.5c0.1-0.1,0.1-0.2,0.1-0.2
			c0-0.1-0.2-0.2-0.7-0.2c-0.5,0-0.8-0.1-0.8-0.3c0-0.1,0.1-0.2,0.3-0.2c0.1,0,0.3,0,0.6,0.1c0.3,0,0.5,0.1,0.6,0.1
			c0.9,0,1.6-0.1,1.8-0.2c0.1-0.1,0.2-0.1,0.2-0.1c0.1,0,0.2,0.1,0.2,0.2c0,0.1,0,0.1,0,0.1l-1,2.4c0.1-0.2,0.3-0.4,0.6-0.7
			c1.3-1.4,2.5-2.1,3.7-2.1c0.7,0,1.3,0.2,1.7,0.6C371.1,828.5,371.4,829,371.4,829.6z"/>
		<path class="st0" d="M384.2,829.5c0,0.8-0.4,1.3-1.1,1.3c-0.2,0-0.5-0.1-0.7-0.3c-0.2-0.2-0.3-0.4-0.3-0.6c0-0.4,0.2-0.6,0.7-0.6
			l0.2,0c0.1,0.1,0.2,0.1,0.3,0.1c0.1,0,0.2-0.1,0.2-0.3c0-0.3-0.2-0.5-0.5-0.7s-0.7-0.3-1.1-0.3c-1.3,0-2.5,1-3.7,2.9
			c-1.2,2-1.8,3.8-1.8,5.5c0,1.5,0.7,2.2,2,2.2c1,0,2-0.6,3-1.8c0.2-0.2,0.3-0.3,0.4-0.3c0.1,0,0.1,0.1,0.1,0.2c0,0.2-0.2,0.5-0.7,1
			c-1,1-2.1,1.5-3.3,1.5c-1.1,0-2-0.3-2.7-1c-0.7-0.6-1-1.5-1-2.6c0-1.8,1-3.7,2.9-5.6c1.6-1.6,3.2-2.4,4.9-2.4
			c0.6,0,1.2,0.2,1.6,0.5C384,828.4,384.2,828.9,384.2,829.5z"/>
		<path class="st0" d="M393.5,827.8c0,0.2-0.4,0.4-1.1,0.4h-1H391l-3.5,7.9c-0.4,0.9-0.6,1.4-0.6,1.6c0,0.4,0.3,0.5,0.8,0.5
			c0.8,0,1.5-0.4,2.1-1.2c0.1-0.2,0.2-0.3,0.3-0.3c0.1,0,0.2,0.1,0.2,0.2c0,0.2-0.3,0.6-0.9,1.1c-0.7,0.6-1.4,0.9-2.4,0.9
			c-0.6,0-1.1-0.2-1.5-0.5c-0.4-0.3-0.6-0.7-0.6-1.2c0-0.3,0.2-0.9,0.6-1.7l3.4-7.3h-1.1c-0.3,0-0.4-0.1-0.4-0.2
			c0-0.2,0.1-0.3,0.4-0.3h0.2c0.1,0,0.2,0,0.4,0c0.2,0,0.5,0,0.7,0l0.4-1.1c0.2-0.4,0.3-0.6,0.4-0.6c0.1,0,0.2,0,0.4,0
			c0.2,0,0.3,0,0.4,0c0.2,0,0.5-0.1,0.8-0.2c0.1,0,0.1,0,0.2,0c0.1,0,0.1,0,0.1,0.1l-0.3,0.6l-0.6,1.2h0.6h1c0.1,0,0.2,0,0.3-0.1
			s0.2-0.1,0.2-0.1C393.4,827.6,393.5,827.7,393.5,827.8z"/>
		<path class="st0" d="M399.8,827.7c0,0.1,0,0.2-0.1,0.3c-0.1,0.2-0.3,0.6-0.6,1.3l-3,6.8c-0.4,0.9-0.6,1.5-0.6,1.7
			c0,0.5,0.2,0.7,0.7,0.7c0.3,0,0.7-0.1,1.1-0.3c0.4-0.2,0.7-0.5,1-0.8c0.2-0.2,0.3-0.3,0.4-0.3c0.1,0,0.2,0.1,0.2,0.2
			c0,0.2-0.2,0.5-0.7,0.9c-0.7,0.6-1.6,0.9-2.5,0.9c-0.6,0-1.1-0.2-1.5-0.5c-0.4-0.3-0.6-0.7-0.6-1.2c0-0.4,0.2-1.1,0.7-2.1l2.7-6
			c0.1-0.3,0.2-0.5,0.3-0.7c0.1-0.1,0.1-0.1,0.1-0.2c0-0.2-0.4-0.3-1.1-0.3c-0.1,0-0.2-0.1-0.2-0.2c0-0.1,0.1-0.2,0.2-0.2
			c0,0,0.1,0,0.4,0.1c0.2,0,0.6,0.1,1.2,0.1c0.7,0,1.2-0.1,1.5-0.2c0.2-0.1,0.3-0.1,0.4-0.1C399.7,827.5,399.8,827.6,399.8,827.7z
			 M401.5,822.9c0,0.7-0.3,1.1-1,1.1c-0.3,0-0.6-0.1-0.9-0.3c-0.2-0.2-0.3-0.5-0.3-0.8c0-0.7,0.4-1.1,1.2-1.1
			C401.2,821.7,401.5,822.1,401.5,822.9z"/>
		<path class="st0" d="M412.6,831.7c0,2-0.9,3.9-2.8,5.5c-1.5,1.3-3,1.9-4.6,1.9c-1.1,0-2-0.4-2.7-1.1s-1-1.7-1-2.9
			c0-1,0.3-2,0.9-3.1c0.6-1.1,1.3-2,2.3-2.7c1.5-1.2,2.9-1.7,4.3-1.7c1.1,0,1.9,0.4,2.6,1.1C412.2,829.5,412.6,830.5,412.6,831.7z
			 M410.6,830.1c0-1.3-0.6-2-1.8-2c-1.4,0-2.7,1-3.7,3.1c-1,2-1.5,3.8-1.5,5.6c0,1.3,0.6,2,1.7,2c1.5,0,2.7-0.9,3.6-2.8
			C410,833.8,410.6,831.8,410.6,830.1z"/>
		<path class="st0" d="M426.9,829.6c0,0.4-0.2,1.1-0.7,2.2l-2.1,4.8c-0.2,0.6-0.4,0.9-0.4,1.1c0,0.4,0.2,0.5,0.6,0.5
			c0.5,0,1.2-0.4,2.2-1.2c0.1-0.1,0.2-0.1,0.2-0.1c0.1,0,0.2,0,0.2,0.1c0,0.2-0.3,0.5-0.9,0.9c-0.8,0.5-1.6,0.8-2.5,0.8
			c-0.5,0-1-0.1-1.3-0.4c-0.4-0.2-0.5-0.5-0.5-0.9c0-0.3,0.2-0.8,0.5-1.6l2.1-4.7c0.5-1.1,0.8-1.9,0.8-2.3c0-0.6-0.3-0.9-0.9-0.9
			c-0.8,0-1.7,0.6-2.8,1.7c-0.8,0.9-1.6,2.1-2.2,3.6l-2.1,4.9c-0.1,0.3-0.2,0.4-0.3,0.4c0,0-0.2,0-0.6,0c-0.1,0-0.2,0-0.3,0
			c-0.1,0-0.4,0-0.7,0c-0.1,0-0.1,0-0.2,0c-0.1,0-0.2,0-0.2-0.1c0,0,0-0.1,0.1-0.2l0.2-0.4l4-9.5c0.1-0.1,0.1-0.2,0.1-0.2
			c0-0.1-0.2-0.2-0.7-0.2c-0.5,0-0.8-0.1-0.8-0.3c0-0.1,0.1-0.2,0.3-0.2c0.1,0,0.3,0,0.6,0.1c0.3,0,0.5,0.1,0.6,0.1
			c0.9,0,1.6-0.1,1.8-0.2c0.1-0.1,0.2-0.1,0.2-0.1c0.1,0,0.2,0.1,0.2,0.2c0,0.1,0,0.1,0,0.1l-1,2.4c0.1-0.2,0.3-0.4,0.6-0.7
			c1.3-1.4,2.5-2.1,3.7-2.1c0.7,0,1.3,0.2,1.7,0.6C426.7,828.5,426.9,829,426.9,829.6z"/>
		<path class="st0" d="M319.4,867.5c0,0.2-0.3,0.3-0.9,0.3c0.6,0,0.3-0.1-1-0.1h-2h-3.4c-0.1,0.1-0.3,0.1-0.4,0.1
			c-0.3,0-0.4-0.1-0.4-0.3c0-0.2,0.1-0.2,0.3-0.2c0.2,0,0.4,0,0.6,0h0.3c0.5,0,0.9-0.1,1.2-0.2c0.2-0.1,0.4-0.6,0.5-1.5l0.5-3.5
			c0-0.1,0-0.1,0-0.2c0-0.1-0.3-0.2-0.9-0.2c-0.7,0-1.5,0-2.3,0c-0.8,0-1.3,0-1.3,0h-0.4c-0.1,0.1-0.3,0.4-0.7,0.8l-2.4,3.4
			c-0.3,0.5-0.5,0.8-0.5,1c0,0.4,0.5,0.6,1.4,0.6c0.1,0,0.3,0,0.5-0.1c0.2,0,0.4-0.1,0.5-0.1c0.2,0,0.4,0.1,0.4,0.3
			c0,0.2-0.2,0.3-0.7,0.3l-1.4-0.1l-2.4,0.1c-1.1,0-1.8,0-2.1,0s-0.4-0.1-0.4-0.3c0-0.1,0.1-0.2,0.3-0.2c0.1,0,0.3,0,0.5,0.1
			c0.2,0,0.4,0.1,0.5,0.1c0.6,0,1.1-0.1,1.5-0.3c0.3-0.2,0.8-0.8,1.7-1.9l7.5-9.9c0.5-0.6,1.1-1.5,2.1-2.6l2.3-3
			c0.2-0.2,0.3-0.3,0.4-0.3c0.2,0,0.3,0.1,0.3,0.4c0,0.4-0.1,0.9-0.2,1.4c-0.2,1-0.5,2.6-0.7,4.7l-1.1,9.3c-0.1,0.9-0.2,1.3-0.2,1.4
			c0,0.5,0.3,0.8,0.9,0.8h1.5C319.3,867.3,319.4,867.3,319.4,867.5z M316,853.8c0-0.2,0-0.2-0.1-0.2c-0.1,0-0.2,0.1-0.3,0.3
			c-0.1,0.2-0.2,0.4-0.2,0.4c-0.1,0.1-0.4,0.5-0.8,1.1l-2.8,3.7c-0.3,0.4-0.7,1-1.2,1.6c-0.1,0.1-0.1,0.1-0.2,0.2
			c0,0.1,0.1,0.2,0.4,0.2h0.5h1.3c1.3,0,2.1,0,2.3-0.2l0.8-5.3c0.1-0.3,0.1-0.8,0.2-1.4C316,854,316,853.9,316,853.8z"/>
		<path class="st0" d="M332.4,858.5c0,0.8-0.4,1.3-1.1,1.3c-0.2,0-0.5-0.1-0.6-0.3c-0.2-0.2-0.3-0.4-0.3-0.6c0-0.4,0.2-0.6,0.7-0.6
			l0.2,0c0.1,0.1,0.2,0.1,0.3,0.1c0.1,0,0.2-0.1,0.2-0.3c0-0.3-0.2-0.5-0.5-0.7c-0.3-0.2-0.7-0.3-1.1-0.3c-1.3,0-2.5,1-3.7,2.9
			c-1.2,2-1.8,3.8-1.8,5.5c0,1.5,0.7,2.2,2,2.2c1,0,2-0.6,3-1.8c0.2-0.2,0.3-0.3,0.4-0.3c0.1,0,0.1,0.1,0.1,0.2c0,0.2-0.2,0.5-0.7,1
			c-1,1-2.1,1.5-3.3,1.5c-1.1,0-2-0.3-2.7-1s-1-1.5-1-2.6c0-1.8,1-3.7,2.9-5.6c1.6-1.6,3.2-2.4,4.9-2.4c0.6,0,1.2,0.2,1.6,0.5
			C332.2,857.4,332.4,857.9,332.4,858.5z"/>
		<path class="st0" d="M345.4,865.8c0,0.1-0.2,0.3-0.5,0.6c-1.2,1-2.3,1.6-3.4,1.6c-0.5,0-0.9-0.1-1.2-0.4c-0.3-0.3-0.4-0.6-0.4-1.1
			c0-0.4,0.2-1,0.6-2l2.3-5.1c0.4-0.8,0.6-1.4,0.6-1.6c0-0.5-0.3-0.8-0.9-0.8c-0.7,0-1.6,0.5-2.6,1.5c-0.8,0.7-1.4,1.4-1.8,2
			c-0.4,0.6-0.9,1.5-1.4,2.8l-1.7,3.8c-0.1,0.3-0.2,0.5-0.3,0.6c-0.1,0.1-0.2,0.1-0.3,0.1c-0.1,0-0.3,0-0.7,0c-0.5,0-0.8,0-0.9,0
			c-0.1,0-0.1,0-0.2,0s-0.1,0-0.1-0.1c0-0.1,0.1-0.2,0.2-0.5l7.1-16.3c0.3-0.6,0.4-0.9,0.4-1c0-0.1,0-0.2-0.1-0.2
			c-0.1,0-0.4,0-0.8,0c-0.4,0-0.6-0.1-0.6-0.2c0-0.1,0.1-0.1,0.2-0.1c0.1,0,0.2,0,0.3,0h1.9c0.4,0,0.7,0,1.1,0c0.2,0,0.3,0,0.4,0
			c0.2,0,0.2,0.1,0.2,0.2s0,0.2-0.1,0.3c-0.1,0.3-0.2,0.5-0.3,0.7l-4.2,9.3c1.1-1.2,2-2.1,2.7-2.6s1.5-0.7,2.3-0.7
			c0.6,0,1.2,0.2,1.6,0.5c0.4,0.3,0.6,0.7,0.6,1.2c0,0.5-0.2,1.2-0.6,2.2l-2.4,5.4c-0.3,0.7-0.4,1.1-0.4,1.2c0,0.3,0.1,0.4,0.4,0.4
			c0.6,0,1.4-0.4,2.4-1.3c0.3-0.2,0.4-0.3,0.5-0.3C345.4,865.7,345.4,865.7,345.4,865.8z"/>
		<path class="st0" d="M354.4,856.7c0,0.1,0,0.2-0.1,0.3c-0.1,0.2-0.3,0.6-0.6,1.3l-3,6.8c-0.4,0.9-0.6,1.5-0.6,1.7
			c0,0.5,0.2,0.7,0.7,0.7c0.3,0,0.7-0.1,1.1-0.3c0.4-0.2,0.7-0.5,1-0.8c0.2-0.2,0.3-0.3,0.4-0.3c0.1,0,0.2,0.1,0.2,0.2
			c0,0.2-0.2,0.5-0.7,0.9c-0.7,0.6-1.6,0.9-2.5,0.9c-0.6,0-1.1-0.2-1.5-0.5c-0.4-0.3-0.6-0.7-0.6-1.2c0-0.4,0.2-1.1,0.6-2.1l2.7-6
			c0.1-0.3,0.2-0.5,0.3-0.7c0.1-0.1,0.1-0.1,0.1-0.2c0-0.2-0.4-0.3-1.1-0.3c-0.1,0-0.2-0.1-0.2-0.2c0-0.1,0.1-0.2,0.2-0.2
			c0,0,0.1,0,0.4,0.1c0.2,0,0.6,0.1,1.2,0.1c0.7,0,1.2-0.1,1.5-0.2c0.2-0.1,0.3-0.1,0.4-0.1C354.3,856.5,354.4,856.6,354.4,856.7z
			 M356.2,851.9c0,0.7-0.3,1.1-1,1.1c-0.3,0-0.6-0.1-0.9-0.3c-0.2-0.2-0.3-0.5-0.3-0.8c0-0.7,0.4-1.1,1.2-1.1
			C355.8,850.7,356.2,851.1,356.2,851.9z"/>
		<path class="st0" d="M366.5,858.3c0,0.9-0.5,1.7-1.5,2.3c-1,0.6-2.3,0.9-3.8,0.9c-0.6,0-1.2,0-1.8-0.1c-0.6,1.3-1,2.6-1,3.7
			c0,1.5,0.7,2.3,2.1,2.3c1.1,0,2.1-0.5,3.1-1.6c0.2-0.2,0.4-0.4,0.4-0.4c0.1,0,0.1,0,0.1,0.1c0,0.4-0.4,0.9-1.2,1.5
			c-0.9,0.7-1.9,1-2.9,1c-1.1,0-2.1-0.3-2.8-1s-1.1-1.5-1.1-2.5c0-1.9,1.1-3.8,3.2-5.6c1.9-1.6,3.5-2.4,5-2.4
			C365.7,856.6,366.5,857.1,366.5,858.3z M364.6,857.9c0-0.5-0.3-0.8-0.8-0.8c-0.6,0-1.1,0.2-1.6,0.6c-1,0.8-1.9,1.9-2.7,3.4
			c0.2,0,0.4,0,0.7,0c1,0,1.9-0.3,2.8-0.9C364.1,859.6,364.6,858.8,364.6,857.9z"/>
		<path class="st0" d="M378.5,858c0,1.3-0.2,2.6-0.7,4c-0.5,1.4-1.2,2.6-2,3.6c-1.3,1.6-2.6,2.4-4,2.4c-0.7,0-1.4-0.2-1.8-0.6
			c-0.5-0.4-0.7-0.9-0.7-1.6c0-0.8,0.3-2,1-3.6l1.5-3.6c0.2-0.5,0.3-0.8,0.3-1c0-0.4-0.2-0.5-0.6-0.5c-0.3,0-0.8,0.3-1.4,0.8
			c-0.6,0.5-1,1-1.3,1.5c-0.1,0.3-0.3,0.4-0.4,0.4c-0.2,0-0.2-0.1-0.2-0.2c0-0.4,0.5-1,1.4-1.9c0.9-0.8,1.8-1.3,2.7-1.3
			c0.5,0,1,0.1,1.3,0.4s0.5,0.6,0.5,1.1c0,0.5-0.2,1.1-0.5,1.9l-1.5,3.4c-0.5,1.1-0.7,2.1-0.7,2.9c0,0.9,0.4,1.3,1.1,1.3
			c1.1,0,2.3-1,3.6-3s1.9-3.8,1.9-5.6c0-0.6-0.1-0.9-0.4-0.9c0,0-0.1,0-0.2,0.1c-0.1,0-0.3,0.1-0.4,0.1c-0.5,0-0.7-0.2-0.7-0.7
			c0-0.3,0.1-0.5,0.3-0.7s0.5-0.3,0.8-0.3C378.1,856.6,378.5,857,378.5,858z"/>
		<path class="st0" d="M391.2,858.3c0,0.9-0.5,1.7-1.5,2.3s-2.3,0.9-3.8,0.9c-0.6,0-1.2,0-1.8-0.1c-0.6,1.3-1,2.6-1,3.7
			c0,1.5,0.7,2.3,2.1,2.3c1.1,0,2.1-0.5,3.1-1.6c0.2-0.2,0.4-0.4,0.4-0.4c0.1,0,0.1,0,0.1,0.1c0,0.4-0.4,0.9-1.2,1.5
			c-0.9,0.7-1.9,1-2.9,1c-1.1,0-2.1-0.3-2.8-1c-0.7-0.7-1.1-1.5-1.1-2.5c0-1.9,1.1-3.8,3.2-5.6c1.9-1.6,3.5-2.4,5-2.4
			C390.4,856.6,391.2,857.1,391.2,858.3z M389.3,857.9c0-0.5-0.3-0.8-0.8-0.8c-0.6,0-1.1,0.2-1.6,0.6c-1,0.8-1.9,1.9-2.7,3.4
			c0.2,0,0.4,0,0.7,0c1,0,1.9-0.3,2.8-0.9C388.8,859.6,389.3,858.8,389.3,857.9z"/>
		<path class="st0" d="M409.2,858.5c0,0.5-0.2,1.2-0.6,2.2l-1.9,4.4c-0.3,0.7-0.5,1.2-0.5,1.5c0,0.3,0.2,0.5,0.6,0.5
			c0.6,0,1.2-0.3,1.8-1c0.2-0.2,0.4-0.3,0.5-0.3c0.1,0,0.2,0,0.2,0.1c0,0.2-0.3,0.5-0.9,0.9c-0.9,0.6-1.7,0.9-2.4,0.9
			c-0.5,0-0.9-0.1-1.2-0.4s-0.5-0.6-0.5-1c0-0.4,0.2-1.1,0.6-2l1.9-4.4c0.5-1,0.7-1.7,0.7-2c0-0.6-0.3-0.9-0.8-0.9
			c-0.8,0-1.7,0.6-2.6,1.7c-0.6,0.7-1.4,2.2-2.3,4.4l-1.6,3.7c-0.2,0.6-0.4,0.9-0.5,0.9c-0.1,0-0.2,0-0.2,0c-0.3,0-0.5,0-0.7,0
			c-0.1,0-0.2,0-0.4,0s-0.3,0-0.4,0c-0.1,0-0.2,0-0.2-0.1c0-0.1,0-0.1,0.1-0.3s0.2-0.3,0.3-0.6l2.7-6.4c0.6-1.3,0.9-2.2,0.9-2.6
			c0-0.5-0.3-0.7-0.8-0.7c-0.7,0-1.5,0.6-2.5,1.7c-0.3,0.3-0.8,1-1.4,1.8c-0.2,0.3-0.5,1-1,2l-2,4.6c-0.2,0.5-0.4,0.7-0.5,0.7
			c-0.1,0-0.2,0-0.2,0c-0.3,0-0.4-0.1-0.5-0.1c-0.5,0-0.9,0-1,0.1c0,0-0.1,0-0.2,0c-0.1,0-0.1,0-0.1-0.1c0.1-0.2,0.2-0.4,0.3-0.6
			l4.1-9.5c0.1-0.1,0.1-0.1,0.1-0.2c0-0.2-0.2-0.2-0.5-0.2c-0.5,0-0.7-0.1-0.7-0.3c0-0.1,0.1-0.2,0.3-0.2c0.2,0,0.4,0,0.7,0.1
			c0.3,0,0.6,0.1,0.7,0.1c0.8,0,1.3-0.1,1.5-0.2c0.1,0,0.1,0,0.2-0.1c0.1,0,0.2,0.1,0.2,0.2c0,0-0.1,0.2-0.2,0.6
			c-0.1,0.2-0.3,0.7-0.5,1.3l-0.1,0.4c0.2-0.2,0.5-0.5,1-1.1c0.8-0.9,1.7-1.3,2.9-1.3c0.7,0,1.2,0.2,1.5,0.5c0.3,0.4,0.5,1,0.5,1.9
			c1.1-1.6,2.3-2.4,3.6-2.4c0.7,0,1.2,0.2,1.6,0.5C409,857.4,409.2,857.9,409.2,858.5z"/>
		<path class="st0" d="M422.4,858.3c0,0.9-0.5,1.7-1.5,2.3c-1,0.6-2.3,0.9-3.8,0.9c-0.6,0-1.2,0-1.8-0.1c-0.6,1.3-1,2.6-1,3.7
			c0,1.5,0.7,2.3,2.1,2.3c1.1,0,2.1-0.5,3.1-1.6c0.2-0.2,0.4-0.4,0.4-0.4c0.1,0,0.1,0,0.1,0.1c0,0.4-0.4,0.9-1.2,1.5
			c-0.9,0.7-1.9,1-2.9,1c-1.1,0-2.1-0.3-2.8-1c-0.7-0.7-1.1-1.5-1.1-2.5c0-1.9,1.1-3.8,3.2-5.6c1.9-1.6,3.5-2.4,5-2.4
			C421.7,856.6,422.4,857.1,422.4,858.3z M420.6,857.9c0-0.5-0.3-0.8-0.8-0.8c-0.6,0-1.1,0.2-1.6,0.6c-1,0.8-1.9,1.9-2.7,3.4
			c0.2,0,0.4,0,0.7,0c1,0,1.9-0.3,2.8-0.9C420.1,859.6,420.6,858.8,420.6,857.9z"/>
		<path class="st0" d="M435.3,858.6c0,0.4-0.2,1.1-0.7,2.2l-2.1,4.8c-0.2,0.6-0.4,0.9-0.4,1.1c0,0.4,0.2,0.5,0.6,0.5
			c0.5,0,1.2-0.4,2.2-1.2c0.1-0.1,0.2-0.1,0.2-0.1c0.1,0,0.2,0,0.2,0.1c0,0.2-0.3,0.5-0.9,0.9c-0.8,0.5-1.6,0.8-2.5,0.8
			c-0.5,0-1-0.1-1.3-0.4c-0.4-0.2-0.5-0.5-0.5-0.9c0-0.3,0.2-0.8,0.5-1.6l2.1-4.7c0.5-1.1,0.8-1.9,0.8-2.3c0-0.6-0.3-0.9-0.9-0.9
			c-0.8,0-1.7,0.6-2.8,1.7c-0.8,0.9-1.6,2.1-2.2,3.6l-2.1,4.9c-0.1,0.3-0.2,0.4-0.3,0.4c0,0-0.2,0-0.6,0c-0.1,0-0.2,0-0.3,0
			c-0.1,0-0.4,0-0.7,0c-0.1,0-0.1,0-0.2,0c-0.1,0-0.2,0-0.2-0.1c0,0,0-0.1,0.1-0.2l0.2-0.4l4-9.5c0.1-0.1,0.1-0.2,0.1-0.2
			c0-0.1-0.2-0.2-0.7-0.2c-0.5,0-0.8-0.1-0.8-0.3c0-0.1,0.1-0.2,0.3-0.2c0.1,0,0.3,0,0.6,0.1c0.3,0,0.5,0.1,0.6,0.1
			c0.9,0,1.6-0.1,1.8-0.2c0.1-0.1,0.2-0.1,0.2-0.1c0.1,0,0.2,0.1,0.2,0.2c0,0.1,0,0.1,0,0.1l-1,2.4c0.1-0.2,0.3-0.4,0.6-0.7
			c1.3-1.4,2.5-2.1,3.7-2.1c0.7,0,1.3,0.2,1.7,0.6C435.1,857.5,435.3,858,435.3,858.6z"/>
		<path class="st0" d="M446.5,856.8c0,0.2-0.4,0.4-1.1,0.4h-1H444l-3.5,7.9c-0.4,0.9-0.6,1.4-0.6,1.6c0,0.4,0.3,0.5,0.8,0.5
			c0.8,0,1.5-0.4,2.1-1.2c0.1-0.2,0.2-0.3,0.3-0.3c0.1,0,0.2,0.1,0.2,0.2c0,0.2-0.3,0.6-0.9,1.1c-0.7,0.6-1.4,0.9-2.4,0.9
			c-0.6,0-1.1-0.2-1.5-0.5c-0.4-0.3-0.6-0.7-0.6-1.2c0-0.3,0.2-0.9,0.6-1.7l3.4-7.3h-1.1c-0.3,0-0.4-0.1-0.4-0.2
			c0-0.2,0.1-0.3,0.4-0.3h0.2c0.1,0,0.2,0,0.4,0c0.2,0,0.5,0,0.7,0l0.4-1.1c0.2-0.4,0.3-0.6,0.4-0.6s0.2,0,0.4,0c0.2,0,0.3,0,0.4,0
			c0.2,0,0.5-0.1,0.8-0.2c0.1,0,0.1,0,0.2,0c0.1,0,0.1,0,0.1,0.1l-0.3,0.6l-0.6,1.2h0.6h1c0.1,0,0.2,0,0.3-0.1s0.2-0.1,0.2-0.1
			C446.4,856.6,446.5,856.7,446.5,856.8z"/>
	</g>
</g>
</svg>
