<?xml version="1.0" encoding="utf-8"?>
<!-- Generator: Adobe Illustrator 22.0.1, SVG Export Plug-In . SVG Version: 6.00 Build 0)  -->
<svg version="1.1" id="Layer_1" xmlns="http://www.w3.org/2000/svg" xmlns:xlink="http://www.w3.org/1999/xlink" x="0px" y="0px"
	 viewBox="0 0 195 60.8" style="enable-background:new 0 0 195 60.8;" xml:space="preserve">
<style type="text/css">
	.st0{fill:#BCBEC0;}
	.st1{opacity:0.7;fill:#BCBEC0;enable-background:new    ;}
	.st2{opacity:0.5;fill:#BCBEC0;enable-background:new    ;}
</style>
<g>
	<path class="st0" d="M33.6,0c1.1,0.4,2.3,0.4,3.4,0.7c12.3,2.7,21.8,12.9,23.5,25.4c2.3,16.4-8.9,31.7-25.2,34.4
		C18.8,63.1,3.2,51.9,0.4,35.5c-0.1-0.6,0-1.2-0.4-1.7c0-2.2,0-4.5,0-6.7c0.3-0.3,0.3-0.8,0.3-1.2C2.1,13.5,11.7,3.3,23.9,0.7
		C25,0.4,26.2,0.4,27.2,0C29.3,0,31.5,0,33.6,0z M2.1,30.4c0,15.5,12.4,28,27.7,28.3C45.7,59,58.4,46.3,58.7,30.9
		C58.9,15,46.1,2.1,30.4,2.1C14.8,2.1,2.1,14.8,2.1,30.4z"/>
	<path class="st0" d="M150.5,44.1c0,2.4,0,4.9,0,7.3c0,0.8-0.2,0.9-0.9,0.9c-1-0.1-1.9-0.1-2.9,0c-0.9,0.1-1-0.3-1-1
		c0-4.8,0-9.6,0-14.4c0-0.8-0.2-1-1-0.9c-2,0-2,0-2-2c0-1.9,0-2,2-1.9c0.7,0,1.1-0.1,1.1-0.9c0.1-1.8,0.7-3.5,1.9-4.9
		c2.1-2.5,4.8-2.8,7.8-2.2c1.9,0.4,1.8,0.4,1.2,2.1c-0.2,0.6-0.3,1.4-0.8,1.8c-0.4,0.4-1.2-0.2-1.8-0.3c-2.5-0.4-3.9,2.1-3.7,4
		c0,0.4,0.3,0.4,0.6,0.4c2.2,0,4.4,0,6.6,0c0.6,0,0.6-0.3,0.6-0.7c0.1-1.7,0.6-3.3,1.6-4.7c2.1-2.8,4.9-3.3,8.1-2.7
		c1.9,0.4,1.8,0.4,1.2,2.2c0,0.1,0,0.1-0.1,0.2c-0.2,0.6-0.3,1.3-0.7,1.6c-0.4,0.3-1.1-0.2-1.6-0.3c-2.2-0.4-4.3,1.8-3.9,4
		c0.1,0.4,0.3,0.3,0.6,0.3c1,0,2.1,0,3.1,0c0.5,0,0.6,0.1,0.6,0.6c0,0.9,0,1.9,0,2.8c0,0.4-0.1,0.6-0.6,0.5c-0.9,0-1.9,0-2.8,0
		c-0.6,0-0.8,0.2-0.8,0.8c0,4.9,0,9.7,0,14.6c0,0.8-0.3,1-1,1c-1-0.1-2-0.1-3,0c-0.6,0-0.8-0.2-0.8-0.8c0-4.8,0-9.6,0-14.4
		c0-1-0.3-1.1-1.2-1.1c-1.9,0.1-3.7,0-5.6,0c-0.7,0-0.9,0.2-0.9,0.9C150.5,39.3,150.5,41.7,150.5,44.1z"/>
	<path class="st0" d="M137.2,50.5c-2.4,2.6-6.8,2.7-9.4,1.5c-2.4-1.1-3.6-3.6-3.2-6.5c0.5-3.2,2.7-5.4,6.4-6.2
		c1.7-0.3,3.4-0.5,5.1-0.2c0.5,0.1,0.6-0.1,0.6-0.6c-0.3-1.5-1.4-2.6-3.3-2.8c-1.7-0.2-3.5-0.1-5.1,0.6c-0.4,0.2-0.6,0.2-0.7-0.3
		c-0.2-0.9-0.4-1.7-0.7-2.5c-0.2-0.6,0.1-0.8,0.5-0.9c2.3-0.9,4.6-1,7-0.8c0.8,0.1,1.6,0.2,2.4,0.5c3,1,4.1,3.3,4.5,6.2
		c0.4,2.6,0.2,5.3,0.2,7.9c0,0.9,0.1,1.9,0.3,2.8c0.1,0.6,0.3,1.2,0.8,1.6c0.5,0.5,0.4,0.8,0,1.2c-1.3,1.3-3.7,1-4.9-0.6
		C137.5,51,137.4,50.7,137.2,50.5z M136.7,44.3c0-0.4,0-0.8,0-1.1c0-0.2,0-0.4-0.3-0.5c-2.1-0.3-4.2-0.3-6,1c-1,0.7-1.3,2.3-0.9,3.5
		c0.4,1,1.3,1.6,2.7,1.6c0.6,0,1.2,0,1.8-0.2c1.3-0.3,2.1-1.1,2.5-2.4C136.7,45.7,136.7,45,136.7,44.3z"/>
	<path class="st1" d="M78.2,42c0-3.1,0-6.1,0-9.2c0-0.8,0.2-1,1-0.9c0.3,0,0.6,0,0.9,0c1.1-0.2,2,0.1,2.3,1.4
		c0.1,0.5,0.4,0.3,0.7,0.1c3.1-2.7,8.3-2.4,11.1,0.5c1.5,1.6,1.9,3.5,2,5.6c0,4,0,8,0,12c0,0.6-0.2,0.8-0.8,0.8
		c-1.1-0.1-2.2-0.1-3.2,0c-0.6,0-0.8-0.2-0.8-0.8c0-3.6,0-7.1,0-10.7c0-0.9,0-1.8-0.3-2.6c-0.6-1.9-2.4-2.9-4.5-2.5
		c-0.5,0.1-1,0.3-1.5,0.5c-1.3,0.6-2.1,1.4-2,3.1c0.2,4.1,0,8.2,0.1,12.3c0,0.7-0.2,0.8-0.8,0.8c-1.1-0.1-2.2,0-3.3,0
		c-0.6,0-0.7-0.2-0.7-0.7C78.2,48.4,78.2,45.2,78.2,42z"/>
	<path class="st0" d="M101.4,40.6c0-3.6,0-7.2,0-10.8c0-0.7-0.2-0.8-0.8-0.8c-2.4,0-4.9,0-7.3,0c-0.6,0-0.8-0.1-0.7-0.7
		c0-1,0.1-2,0-3c0-0.7,0.3-0.7,0.8-0.7c6.4,0,12.8,0,19.2,0c0.8,0,1.5,0,2.3,0c0.5,0,0.7,0.2,0.6,0.7c0,1,0,2,0,3.1
		c0,0.5-0.2,0.7-0.7,0.7c-2.5,0-5,0-7.5,0c-0.9,0-1.1,0.3-1.1,1.1c0,7.1,0,14.2,0,21.3c0,0.8-0.3,1-1,1c-1-0.1-2.1-0.1-3.1,0
		c-0.8,0.1-0.9-0.2-0.9-0.9C101.4,47.8,101.4,44.2,101.4,40.6z"/>
	<path class="st0" d="M177.7,42.3c-0.1-6.7,4.9-11.4,12.6-10.6c1.5,0.2,2.9,0.7,4.2,1.5c0.4,0.3,0.6,0.5,0.3,0.9
		c-0.5,0.8-1,1.6-1.4,2.5c-0.2,0.5-0.4,0.4-0.8,0.1c-1.6-1.2-3.4-1.4-5.3-1c-2.1,0.4-3.4,1.8-4,3.8c-0.5,1.6-0.5,3.2-0.2,4.9
		c0.6,2.6,2.3,4,5,4.2c1.8,0.1,3.4-0.2,4.9-1.3c0.5-0.4,0.6-0.3,0.9,0.2c0.4,0.9,0.8,1.8,1.3,2.7c0.1,0.2,0.2,0.4-0.1,0.7
		c-3.5,2.4-10.6,2.5-14-0.5C178.4,48.2,177.7,45.4,177.7,42.3z"/>
	<path class="st1" d="M69.8,38.3c0-4.3,0-8.7,0-13c0-0.7,0.2-0.9,0.8-0.8c1.1,0.1,2.3,0.1,3.4,0c0.6,0,0.8,0.2,0.8,0.8
		c0,4.9,0,9.8,0,14.7c0,3.8,0,7.7,0,11.5c0,0.7-0.2,0.9-0.8,0.8c-1.1-0.1-2.3-0.1-3.4,0c-0.6,0-0.8-0.2-0.8-0.8
		C69.8,47,69.8,42.7,69.8,38.3z"/>
	<path class="st0" d="M117.3,33.7c2.4-2.2,5.1-2.4,8-1.7c1,0.3,1,0.3,0.5,1.3c-0.4,0.9-0.9,1.8-1.3,2.7c-0.2,0.4-0.3,0.5-0.8,0.3
		c-3.1-1.4-6.2,0.3-6.4,3.8c-0.2,3.7-0.1,7.4-0.1,11.2c0,1.3,0.2,1.1-1.1,1.1c-1,0-2,0-3,0c-0.5,0-0.7-0.1-0.7-0.6
		c0-6.4,0-12.7,0-19.1c0-0.5,0.1-0.6,0.6-0.6c1.1,0,2.2,0.1,3.2,0c0.7,0,1,0.1,0.9,0.9C117.3,33.1,117.3,33.3,117.3,33.7z"/>
	<path class="st0" d="M175.5,42.3c0,3,0,6.1,0,9.1c0,0.8-0.2,0.9-0.9,0.9c-1.1-0.1-2.1,0-3.2,0c-0.6,0-0.8-0.2-0.8-0.8
		c0-4.9,0-9.8,0-14.7c0-0.8-0.2-1-1-0.9c-1.7,0.1-1.7,0-1.7-1.6c0-0.7-0.3-1.7,0.2-2.2c0.4-0.4,1.4-0.1,2.1-0.1c1.5,0,2.9,0,4.4,0
		c0.6,0,0.8,0.2,0.8,0.8C175.5,35.9,175.5,39.1,175.5,42.3z"/>
	<path class="st0" d="M173,29.7c-1.5,0-2.7-1.3-2.7-2.8c0-1.5,1.3-2.8,2.8-2.8c1.5,0,2.8,1.3,2.8,2.8
		C175.9,28.5,174.6,29.7,173,29.7z"/>
	<path class="st2" d="M52.3,42.8c-1.3-2.3-2.7-4.4-4.3-6.4c-3.9-4.7-8.4-8.6-13.3-12.1c-6.4-4.6-13.2-8.5-20.3-12
		c-1-0.5-1.1-0.5-0.2-1.3c5.1-4.2,11-6.2,17.6-5.8c6,0.3,11.3,2.5,15.7,6.6c6,5.6,8.6,12.7,8,20.9C55.2,36.3,54.2,39.6,52.3,42.8z"
		/>
	<path class="st1" d="M26.1,33.8c0,3.9-1.8,7.4-4.5,10.5c-1.8,2.2-4,4-6.2,5.6c-0.4,0.3-0.7,0.3-1-0.1c-6.4-5.6-9.6-12.6-9.1-21.1
		c0.3-5.5,2.3-10.3,5.8-14.6c0.5-0.6,0.8-0.6,1.3-0.2c4,2.9,7.7,6,10.5,10.1C24.8,27,26.1,30.1,26.1,33.8z"/>
</g>
</svg>
